twenty-first-bold-italic.ufo
<glyph name="exclam" format="2">
  <advance width="333"/>
  <unicode hex="0021"/>
  <outline>
    <component base="period" xOffset="-9"/>
    <contour>
      <point x="152" y="203" type="line"/>
      <point x="197" y="336"/>
      <point x="221" y="394"/>
      <point x="281" y="514" type="curve" smooth="yes"/>
      <point x="336" y="625"/>
      <point x="336" y="625"/>
      <point x="336" y="657" type="curve" smooth="yes"/>
      <point x="336" y="704"/>
      <point x="296" y="737"/>
      <point x="239" y="737" type="curve" smooth="yes"/>
      <point x="213" y="737"/>
      <point x="190" y="725"/>
      <point x="175" y="702" type="curve" smooth="yes"/>
      <point x="158" y="677"/>
      <point x="155" y="657"/>
      <point x="151" y="567" type="curve" smooth="yes"/>
      <point x="147" y="468"/>
      <point x="130" y="351"/>
      <point x="100" y="216" type="curve"/>
    </contour>
  </outline>
</glyph>
<glyph name="dollar" format="2">
  <advance width="574"/>
  <unicode hex="0024"/>
  <outline>
    <contour>
      <point x="333" y="414" type="line"/>
      <point x="394" y="640" type="line"/>
      <point x="434" y="632"/>
      <point x="463" y="612"/>
      <point x="463" y="594" type="curve" smooth="yes"/>
      <point x="463" y="587"/>
      <point x="459" y="583"/>
      <point x="450" y="579" type="curve" smooth="yes"/>
      <point x="417" y="565"/>
      <point x="404" y="547"/>
      <point x="404" y="515" type="curve" smooth="yes"/>
      <point x="404" y="472"/>
      <point x="433" y="443"/>
      <point x="476" y="443" type="curve" smooth="yes"/>
      <point x="526" y="443"/>
      <point x="559" y="479"/>
      <point x="559" y="533" type="curve" smooth="yes"/>
      <point x="559" y="612"/>
      <point x="502" y="671"/>
      <point x="407" y="688" type="curve"/>
      <point x="435" y="794" type="line"/>
      <point x="381" y="794" type="line"/>
      <point x="354" y="694" type="line"/>
      <point x="346" y="694" type="line" smooth="yes"/>
      <point x="196" y="694"/>
      <point x="96" y="606"/>
      <point x="96" y="475" type="curve" smooth="yes"/>
      <point x="96" y="394"/>
      <point x="140" y="334"/>
      <point x="231" y="291" type="curve" smooth="yes"/>
      <point x="245" y="285" type="line"/>
      <point x="179" y="40" type="line"/>
      <point x="130" y="52"/>
      <point x="102" y="70"/>
      <point x="102" y="91" type="curve" smooth="yes"/>
      <point x="102" y="102"/>
      <point x="107" y="107"/>
      <point x="127" y="117" type="curve" smooth="yes"/>
      <point x="155" y="132"/>
      <point x="169" y="153"/>
      <point x="169" y="181" type="curve" smooth="yes"/>
      <point x="169" y="221"/>
      <point x="137" y="250"/>
      <point x="93" y="250" type="curve" smooth="yes"/>
      <point x="39" y="250"/>
      <point x="3" y="211"/>
      <point x="3" y="151" type="curve" smooth="yes"/>
      <point x="3" y="71"/>
      <point x="66" y="10"/>
      <point x="166" y="-9" type="curve"/>
      <point x="129" y="-145" type="line"/>
      <point x="183" y="-145" type="line"/>
      <point x="218" y="-15" type="line"/>
      <point x="228" y="-15" type="line" smooth="yes"/>
      <point x="269" y="-15"/>
      <point x="316" y="-7"/>
      <point x="351" y="6" type="curve" smooth="yes"/>
      <point x="438" y="40"/>
      <point x="499" y="124"/>
      <point x="499" y="212" type="curve" smooth="yes"/>
      <point x="499" y="288"/>
      <point x="447" y="359"/>
      <point x="359" y="402" type="curve" smooth="yes"/>
    </contour>
    <contour>
      <point x="293" y="263" type="line"/>
      <point x="358" y="229"/>
      <point x="380" y="202"/>
      <point x="380" y="153" type="curve" smooth="yes"/>
      <point x="380" y="85"/>
      <point x="318" y="36"/>
      <point x="231" y="34" type="curve"/>
    </contour>
    <contour>
      <point x="286" y="437" type="line"/>
      <point x="232" y="460"/>
      <point x="208" y="489"/>
      <point x="208" y="532" type="curve" smooth="yes"/>
      <point x="208" y="599"/>
      <point x="257" y="641"/>
      <point x="341" y="644" type="curve"/>
    </contour>
  </outline>
</glyph>
<glyph name="asterisk" format="2">
  <advance width="500"/>
  <unicode hex="002A"/>
  <outline>
    <contour>
      <point x="278" y="511" type="line"/>
      <point x="295" y="515" type="line"/>
      <point x="312" y="520"/>
      <point x="326" y="522"/>
      <point x="339" y="522" type="curve" smooth="yes"/>
      <point x="346" y="522"/>
      <point x="356" y="521"/>
      <point x="366" y="518" type="curve"/>
      <point x="402" y="511"/>
      <point x="402" y="511"/>
      <point x="413" y="511" type="curve" smooth="yes"/>
      <point x="446" y="511"/>
      <point x="472" y="534"/>
      <point x="472" y="563" type="curve" smooth="yes"/>
      <point x="472" y="591"/>
      <point x="449" y="612"/>
      <point x="420" y="612" type="curve" smooth="yes"/>
      <point x="403" y="612"/>
      <point x="387" y="605"/>
      <point x="370" y="590" type="curve" smooth="yes"/>
      <point x="330" y="554"/>
      <point x="328" y="552"/>
      <point x="288" y="541" type="curve" smooth="yes"/>
      <point x="271" y="536" type="line"/>
      <point x="275" y="553" type="line"/>
      <point x="285" y="586"/>
      <point x="290" y="597"/>
      <point x="308" y="617" type="curve" smooth="yes"/>
      <point x="343" y="655"/>
      <point x="347" y="663"/>
      <point x="347" y="686" type="curve" smooth="yes"/>
      <point x="347" y="714"/>
      <point x="325" y="737"/>
      <point x="298" y="737" type="curve" smooth="yes"/>
      <point x="269" y="737"/>
      <point x="245" y="711"/>
      <point x="245" y="679" type="curve" smooth="yes"/>
      <point x="245" y="671"/>
      <point x="246" y="664"/>
      <point x="248" y="656" type="curve" smooth="yes"/>
      <point x="257" y="615"/>
      <point x="257" y="614"/>
      <point x="257" y="604" type="curve" smooth="yes"/>
      <point x="257" y="593"/>
      <point x="254" y="578"/>
      <point x="250" y="560" type="curve"/>
      <point x="245" y="543" type="line"/>
      <point x="232" y="556" type="line" smooth="yes"/>
      <point x="208" y="581"/>
      <point x="202" y="591"/>
      <point x="193" y="615" type="curve" smooth="yes"/>
      <point x="179" y="652"/>
      <point x="178" y="654"/>
      <point x="170" y="665" type="curve" smooth="yes"/>
      <point x="158" y="681"/>
      <point x="141" y="690"/>
      <point x="123" y="690" type="curve" smooth="yes"/>
      <point x="98" y="690"/>
      <point x="78" y="669"/>
      <point x="78" y="643" type="curve" smooth="yes"/>
      <point x="78" y="616"/>
      <point x="97" y="594"/>
      <point x="130" y="583" type="curve" smooth="yes"/>
      <point x="180" y="567"/>
      <point x="184" y="566"/>
      <point x="214" y="537" type="curve"/>
      <point x="226" y="524" type="line"/>
      <point x="209" y="520" type="line" smooth="yes"/>
      <point x="190" y="515"/>
      <point x="174" y="512"/>
      <point x="162" y="512" type="curve" smooth="yes"/>
      <point x="156" y="512"/>
      <point x="148" y="513"/>
      <point x="138" y="515" type="curve" smooth="yes"/>
      <point x="103" y="521"/>
      <point x="103" y="521"/>
      <point x="93" y="521" type="curve" smooth="yes"/>
      <point x="59" y="521"/>
      <point x="32" y="498"/>
      <point x="32" y="470" type="curve" smooth="yes"/>
      <point x="32" y="443"/>
      <point x="55" y="422"/>
      <point x="84" y="422" type="curve" smooth="yes"/>
      <point x="101" y="422"/>
      <point x="117" y="429"/>
      <point x="134" y="444" type="curve" smooth="yes"/>
      <point x="174" y="481"/>
      <point x="176" y="482"/>
      <point x="216" y="494" type="curve" smooth="yes"/>
      <point x="233" y="499" type="line"/>
      <point x="228" y="481" type="line" smooth="yes"/>
      <point x="219" y="448"/>
      <point x="214" y="438"/>
      <point x="197" y="417" type="curve" smooth="yes"/>
      <point x="164" y="378"/>
      <point x="160" y="369"/>
      <point x="160" y="347" type="curve" smooth="yes"/>
      <point x="160" y="318"/>
      <point x="179" y="297"/>
      <point x="206" y="297" type="curve" smooth="yes"/>
      <point x="235" y="297"/>
      <point x="258" y="323"/>
      <point x="258" y="356" type="curve" smooth="yes"/>
      <point x="258" y="364"/>
      <point x="257" y="371"/>
      <point x="256" y="378" type="curve"/>
      <point x="247" y="420"/>
      <point x="247" y="420"/>
      <point x="247" y="430" type="curve" smooth="yes"/>
      <point x="247" y="442"/>
      <point x="249" y="457"/>
      <point x="254" y="474" type="curve" smooth="yes"/>
      <point x="259" y="492" type="line"/>
      <point x="272" y="479" type="line" smooth="yes"/>
      <point x="295" y="455"/>
      <point x="302" y="444"/>
      <point x="310" y="419" type="curve" smooth="yes"/>
      <point x="323" y="379"/>
      <point x="324" y="377"/>
      <point x="332" y="367" type="curve" smooth="yes"/>
      <point x="344" y="352"/>
      <point x="360" y="343"/>
      <point x="377" y="343" type="curve" smooth="yes"/>
      <point x="405" y="343"/>
      <point x="426" y="365"/>
      <point x="426" y="392" type="curve" smooth="yes"/>
      <point x="426" y="419"/>
      <point x="407" y="440"/>
      <point x="374" y="451" type="curve" smooth="yes"/>
      <point x="322" y="468"/>
      <point x="321" y="469"/>
      <point x="290" y="498" type="curve"/>
    </contour>
  </outline>
</glyph>
<glyph name="comma" format="2">
  <advance width="287"/>
  <unicode hex="002C"/>
  <outline>
    <contour>
      <point x="-27" y="-187" type="line"/>
      <point x="107" y="-134"/>
      <point x="180" y="-54"/>
      <point x="180" y="44" type="curve" smooth="yes"/>
      <point x="180" y="112"/>
      <point x="139" y="159"/>
      <point x="78" y="159" type="curve" smooth="yes"/>
      <point x="22" y="159"/>
      <point x="-16" y="122"/>
      <point x="-16" y="68" type="curve" smooth="yes"/>
      <point x="-16" y="18"/>
      <point x="12" y="-11"/>
      <point x="62" y="-11" type="curve" smooth="yes"/>
      <point x="70" y="-11"/>
      <point x="76" y="-11"/>
      <point x="86" y="-9" type="curve"/>
      <point x="86" y="-60"/>
      <point x="43" y="-104"/>
      <point x="-48" y="-146" type="curve"/>
    </contour>
  </outline>
</glyph>
<glyph name="hyphen" format="2">
  <advance width="333"/>
  <unicode hex="002D"/>
  <outline>
    <contour>
      <point x="45" y="310" type="line"/>
      <point x="10" y="180" type="line"/>
      <point x="237" y="180" type="line"/>
      <point x="272" y="310" type="line"/>
    </contour>
  </outline>
</glyph>
<glyph name="one" format="2">
  <advance width="574"/>
  <unicode hex="0031"/>
  <outline>
    <contour>
      <point x="489" y="707" type="line"/>
      <point x="448" y="707" type="line"/>
      <point x="403" y="673"/>
      <point x="274" y="639"/>
      <point x="173" y="635" type="curve"/>
      <point x="160" y="585" type="line"/>
      <point x="250" y="585" type="line" smooth="yes"/>
      <point x="284" y="585"/>
      <point x="294" y="579"/>
      <point x="294" y="559" type="curve" smooth="yes"/>
      <point x="294" y="550"/>
      <point x="292" y="537"/>
      <point x="287" y="521" type="curve" smooth="yes"/>
      <point x="187" y="144" type="line" smooth="yes"/>
      <point x="179" y="114"/>
      <point x="174" y="97"/>
      <point x="173" y="94" type="curve"/>
      <point x="169" y="79"/>
      <point x="166" y="73"/>
      <point x="160" y="68" type="curve"/>
      <point x="151" y="58"/>
      <point x="130" y="55"/>
      <point x="84" y="54" type="curve" smooth="yes"/>
      <point x="33" y="54" type="line"/>
      <point x="25" y="0" type="line"/>
      <point x="446" y="0" type="line"/>
      <point x="454" y="54" type="line"/>
      <point x="404" y="54" type="line" smooth="yes"/>
      <point x="339" y="54"/>
      <point x="325" y="59"/>
      <point x="325" y="81" type="curve" smooth="yes"/>
      <point x="325" y="91"/>
      <point x="329" y="110"/>
      <point x="338" y="144" type="curve" smooth="yes"/>
    </contour>
  </outline>
</glyph>
<glyph name="two" format="2">
  <advance width="574"/>
  <unicode hex="0032"/>
  <outline>
    <contour>
      <point x="463" y="249" type="line"/>
      <point x="453" y="230" type="line" smooth="yes"/>
      <point x="414" y="149"/>
      <point x="396" y="137"/>
      <point x="326" y="135" type="curve" smooth="yes"/>
      <point x="130" y="135" type="line"/>
      <point x="145" y="150"/>
      <point x="174" y="170"/>
      <point x="230" y="205" type="curve" smooth="yes"/>
      <point x="403" y="309"/>
      <point x="403" y="309"/>
      <point x="422" y="324" type="curve" smooth="yes"/>
      <point x="501" y="385"/>
      <point x="543" y="455"/>
      <point x="543" y="524" type="curve" smooth="yes"/>
      <point x="543" y="574"/>
      <point x="519" y="626"/>
      <point x="483" y="657" type="curve" smooth="yes"/>
      <point x="447" y="687"/>
      <point x="390" y="705"/>
      <point x="327" y="705" type="curve" smooth="yes"/>
      <point x="182" y="705"/>
      <point x="76" y="616"/>
      <point x="76" y="496" type="curve" smooth="yes"/>
      <point x="76" y="432"/>
      <point x="117" y="386"/>
      <point x="174" y="386" type="curve" smooth="yes"/>
      <point x="223" y="386"/>
      <point x="255" y="418"/>
      <point x="255" y="467" type="curve" smooth="yes"/>
      <point x="255" y="501"/>
      <point x="239" y="523"/>
      <point x="203" y="539" type="curve" smooth="yes"/>
      <point x="170" y="554"/>
      <point x="164" y="559"/>
      <point x="164" y="574" type="curve" smooth="yes"/>
      <point x="164" y="609"/>
      <point x="216" y="644"/>
      <point x="270" y="644" type="curve" smooth="yes"/>
      <point x="334" y="644"/>
      <point x="379" y="600"/>
      <point x="379" y="537" type="curve" smooth="yes"/>
      <point x="379" y="489"/>
      <point x="357" y="433"/>
      <point x="319" y="386" type="curve" smooth="yes"/>
      <point x="289" y="348"/>
      <point x="238" y="299"/>
      <point x="140" y="214" type="curve" smooth="yes"/>
      <point x="5" y="97"/>
      <point x="-40" y="42"/>
      <point x="-35" y="0" type="curve"/>
      <point x="421" y="0" type="line"/>
      <point x="506" y="234" type="line"/>
    </contour>
  </outline>
</glyph>
<glyph name="three" format="2">
  <advance width="574"/>
  <unicode hex="0033"/>
  <outline>
    <contour>
      <point x="344" y="360" type="curve"/>
      <point x="404" y="373"/>
      <point x="431" y="384"/>
      <point x="465" y="407" type="curve" smooth="yes"/>
      <point x="510" y="438"/>
      <point x="538" y="491"/>
      <point x="538" y="544" type="curve" smooth="yes"/>
      <point x="538" y="640"/>
      <point x="451" y="705"/>
      <point x="325" y="705" type="curve" smooth="yes"/>
      <point x="200" y="705"/>
      <point x="103" y="636"/>
      <point x="103" y="547" type="curve" smooth="yes"/>
      <point x="103" y="495"/>
      <point x="136" y="460"/>
      <point x="185" y="460" type="curve" smooth="yes"/>
      <point x="228" y="460"/>
      <point x="262" y="491"/>
      <point x="262" y="531" type="curve" smooth="yes"/>
      <point x="262" y="555"/>
      <point x="251" y="575"/>
      <point x="230" y="592" type="curve" smooth="yes"/>
      <point x="212" y="606"/>
      <point x="212" y="606"/>
      <point x="212" y="611" type="curve" smooth="yes"/>
      <point x="212" y="632"/>
      <point x="254" y="652"/>
      <point x="295" y="652" type="curve" smooth="yes"/>
      <point x="350" y="652"/>
      <point x="382" y="616"/>
      <point x="382" y="555" type="curve" smooth="yes"/>
      <point x="382" y="506"/>
      <point x="364" y="459"/>
      <point x="330" y="421" type="curve" smooth="yes"/>
      <point x="309" y="396"/>
      <point x="288" y="386"/>
      <point x="259" y="386" type="curve" smooth="yes"/>
      <point x="248" y="386"/>
      <point x="241" y="387"/>
      <point x="227" y="392" type="curve" smooth="yes"/>
      <point x="215" y="396"/>
      <point x="209" y="397"/>
      <point x="201" y="397" type="curve" smooth="yes"/>
      <point x="181" y="397"/>
      <point x="168" y="384"/>
      <point x="168" y="363" type="curve" smooth="yes"/>
      <point x="168" y="341"/>
      <point x="181" y="329"/>
      <point x="203" y="329" type="curve" smooth="yes"/>
      <point x="210" y="329"/>
      <point x="217" y="330"/>
      <point x="226" y="333" type="curve"/>
      <point x="248" y="339"/>
      <point x="248" y="339"/>
      <point x="257" y="339" type="curve" smooth="yes"/>
      <point x="301" y="339"/>
      <point x="324" y="306"/>
      <point x="324" y="245" type="curve" smooth="yes"/>
      <point x="324" y="192"/>
      <point x="310" y="136"/>
      <point x="286" y="96" type="curve" smooth="yes"/>
      <point x="264" y="59"/>
      <point x="223" y="35"/>
      <point x="180" y="35" type="curve" smooth="yes"/>
      <point x="138" y="35"/>
      <point x="95" y="59"/>
      <point x="95" y="82" type="curve" smooth="yes"/>
      <point x="95" y="93"/>
      <point x="98" y="96"/>
      <point x="115" y="101" type="curve" smooth="yes"/>
      <point x="148" y="112"/>
      <point x="167" y="137"/>
      <point x="167" y="171" type="curve" smooth="yes"/>
      <point x="167" y="216"/>
      <point x="134" y="248"/>
      <point x="86" y="248" type="curve" smooth="yes"/>
      <point x="32" y="248"/>
      <point x="-5" y="207"/>
      <point x="-5" y="147" type="curve" smooth="yes"/>
      <point x="-5" y="47"/>
      <point x="77" y="-15"/>
      <point x="210" y="-15" type="curve" smooth="yes"/>
      <point x="370" y="-15"/>
      <point x="488" y="81"/>
      <point x="488" y="210" type="curve" smooth="yes"/>
      <point x="488" y="256"/>
      <point x="464" y="304"/>
      <point x="430" y="327" type="curve" smooth="yes"/>
      <point x="410" y="341"/>
      <point x="393" y="348"/>
    </contour>
  </outline>
</glyph>
<glyph name="four" format="2">
  <advance width="574"/>
  <unicode hex="0034"/>
  <outline>
    <contour>
      <point x="535" y="250" type="line"/>
      <point x="421" y="250" type="line"/>
      <point x="544" y="707" type="line"/>
      <point x="449" y="707" type="line"/>
      <point x="-13" y="239" type="line"/>
      <point x="-13" y="184" type="line"/>
      <point x="252" y="184" type="line"/>
      <point x="242" y="144" type="line" smooth="yes"/>
      <point x="233" y="113"/>
      <point x="231" y="104"/>
      <point x="228" y="94" type="curve" smooth="yes"/>
      <point x="224" y="79"/>
      <point x="221" y="74"/>
      <point x="215" y="68" type="curve" smooth="yes"/>
      <point x="206" y="59"/>
      <point x="185" y="55"/>
      <point x="139" y="54" type="curve" smooth="yes"/>
      <point x="114" y="54" type="line"/>
      <point x="107" y="0" type="line"/>
      <point x="470" y="0" type="line"/>
      <point x="477" y="54" type="line"/>
      <point x="459" y="54" type="line" smooth="yes"/>
      <point x="394" y="54"/>
      <point x="380" y="59"/>
      <point x="380" y="81" type="curve" smooth="yes"/>
      <point x="380" y="91"/>
      <point x="384" y="110"/>
      <point x="393" y="144" type="curve" smooth="yes"/>
      <point x="404" y="184" type="line"/>
      <point x="524" y="184" type="line"/>
    </contour>
    <contour>
      <point x="270" y="250" type="line"/>
      <point x="77" y="250" type="line"/>
      <point x="344" y="525" type="line"/>
    </contour>
  </outline>
</glyph>
<glyph name="five" format="2">
  <advance width="574"/>
  <unicode hex="0035"/>
  <outline>
    <contour>
      <point x="105" y="387" type="line"/>
      <point x="79" y="375"/>
      <point x="66" y="359"/>
      <point x="66" y="337" type="curve" smooth="yes"/>
      <point x="66" y="317"/>
      <point x="80" y="302"/>
      <point x="99" y="302" type="curve" smooth="yes"/>
      <point x="128" y="302"/>
      <point x="147" y="322"/>
      <point x="152" y="360" type="curve"/>
      <point x="202" y="382"/>
      <point x="218" y="386"/>
      <point x="244" y="386" type="curve" smooth="yes"/>
      <point x="308" y="386"/>
      <point x="345" y="338"/>
      <point x="345" y="256" type="curve" smooth="yes"/>
      <point x="345" y="133"/>
      <point x="274" y="36"/>
      <point x="184" y="36" type="curve" smooth="yes"/>
      <point x="140" y="36"/>
      <point x="101" y="56"/>
      <point x="101" y="78" type="curve" smooth="yes"/>
      <point x="101" y="84"/>
      <point x="104" y="87"/>
      <point x="113" y="90" type="curve" smooth="yes"/>
      <point x="152" y="103"/>
      <point x="172" y="129"/>
      <point x="172" y="168" type="curve" smooth="yes"/>
      <point x="172" y="213"/>
      <point x="140" y="243"/>
      <point x="92" y="243" type="curve" smooth="yes"/>
      <point x="36" y="243"/>
      <point x="0" y="203"/>
      <point x="0" y="142" type="curve" smooth="yes"/>
      <point x="0" y="46"/>
      <point x="80" y="-15"/>
      <point x="206" y="-15" type="curve" smooth="yes"/>
      <point x="381" y="-15"/>
      <point x="510" y="105"/>
      <point x="510" y="268" type="curve" smooth="yes"/>
      <point x="510" y="378"/>
      <point x="430" y="450"/>
      <point x="308" y="450" type="curve" smooth="yes"/>
      <point x="263" y="450"/>
      <point x="226" y="442"/>
      <point x="175" y="423" type="curve"/>
      <point x="213" y="553" type="line"/>
      <point x="293" y="536"/>
      <point x="293" y="536"/>
      <point x="338" y="536" type="curve" smooth="yes"/>
      <point x="418" y="536"/>
      <point x="473" y="552"/>
      <point x="515" y="589" type="curve" smooth="yes"/>
      <point x="546" y="616"/>
      <point x="573" y="666"/>
      <point x="573" y="697" type="curve" smooth="yes"/>
      <point x="573" y="702"/>
      <point x="571" y="705"/>
      <point x="567" y="705" type="curve" smooth="yes"/>
      <point x="565" y="705"/>
      <point x="563" y="704"/>
      <point x="557" y="702" type="curve"/>
      <point x="513" y="684"/>
      <point x="471" y="676"/>
      <point x="417" y="676" type="curve" smooth="yes"/>
      <point x="350" y="676"/>
      <point x="278" y="686"/>
      <point x="197" y="705" type="curve"/>
    </contour>
  </outline>
</glyph>
<glyph name="six" format="2">
  <advance width="574"/>
  <unicode hex="0036"/>
  <outline>
    <contour>
      <point x="225" y="390" type="curve"/>
      <point x="253" y="489"/>
      <point x="274" y="541"/>
      <point x="299" y="579" type="curve" smooth="yes"/>
      <point x="332" y="629"/>
      <point x="368" y="654"/>
      <point x="405" y="654" type="curve" smooth="yes"/>
      <point x="425" y="654"/>
      <point x="440" y="646"/>
      <point x="440" y="636" type="curve" smooth="yes"/>
      <point x="440" y="631"/>
      <point x="438" y="627"/>
      <point x="432" y="620" type="curve" smooth="yes"/>
      <point x="416" y="602"/>
      <point x="410" y="587"/>
      <point x="410" y="567" type="curve" smooth="yes"/>
      <point x="410" y="526"/>
      <point x="443" y="496"/>
      <point x="488" y="496" type="curve" smooth="yes"/>
      <point x="538" y="496"/>
      <point x="573" y="531"/>
      <point x="573" y="581" type="curve" smooth="yes"/>
      <point x="573" y="653"/>
      <point x="502" y="705"/>
      <point x="405" y="705" type="curve" smooth="yes"/>
      <point x="302" y="705"/>
      <point x="217" y="659"/>
      <point x="145" y="566" type="curve" smooth="yes"/>
      <point x="73" y="472"/>
      <point x="30" y="346"/>
      <point x="30" y="230" type="curve" smooth="yes"/>
      <point x="30" y="79"/>
      <point x="112" y="-15"/>
      <point x="243" y="-15" type="curve" smooth="yes"/>
      <point x="394" y="-15"/>
      <point x="520" y="107"/>
      <point x="520" y="253" type="curve" smooth="yes"/>
      <point x="520" y="357"/>
      <point x="445" y="431"/>
      <point x="338" y="431" type="curve" smooth="yes"/>
      <point x="292" y="431"/>
      <point x="263" y="421"/>
    </contour>
    <contour>
      <point x="294" y="371" type="curve" smooth="yes"/>
      <point x="335" y="371"/>
      <point x="358" y="334"/>
      <point x="358" y="270" type="curve" smooth="yes"/>
      <point x="358" y="212"/>
      <point x="346" y="147"/>
      <point x="326" y="97" type="curve" smooth="yes"/>
      <point x="308" y="55"/>
      <point x="279" y="31"/>
      <point x="245" y="31" type="curve" smooth="yes"/>
      <point x="203" y="31"/>
      <point x="181" y="68"/>
      <point x="181" y="138" type="curve" smooth="yes"/>
      <point x="181" y="190"/>
      <point x="191" y="253"/>
      <point x="206" y="291" type="curve" smooth="yes"/>
      <point x="226" y="345"/>
      <point x="255" y="371"/>
    </contour>
  </outline>
</glyph>
<glyph name="seven" format="2">
  <advance width="574"/>
  <unicode hex="0037"/>
  <outline>
    <contour>
      <point x="592" y="705" type="line"/>
      <point x="482" y="697"/>
      <point x="426" y="694"/>
      <point x="355" y="694" type="curve" smooth="yes"/>
      <point x="288" y="694"/>
      <point x="249" y="696"/>
      <point x="167" y="705" type="curve"/>
      <point x="64" y="447" type="line"/>
      <point x="110" y="432" type="line"/>
      <point x="126" y="462" type="line" smooth="yes"/>
      <point x="169" y="539"/>
      <point x="197" y="560"/>
      <point x="258" y="559" type="curve" smooth="yes"/>
      <point x="470" y="559" type="line"/>
      <point x="433" y="511" type="line" smooth="yes"/>
      <point x="168" y="169"/>
      <point x="144" y="132"/>
      <point x="144" y="66" type="curve" smooth="yes"/>
      <point x="144" y="17"/>
      <point x="180" y="-15"/>
      <point x="233" y="-15" type="curve" smooth="yes"/>
      <point x="268" y="-15"/>
      <point x="298" y="1"/>
      <point x="314" y="27" type="curve" smooth="yes"/>
      <point x="325" y="46"/>
      <point x="330" y="60"/>
      <point x="339" y="106" type="curve" smooth="yes"/>
      <point x="367" y="261"/>
      <point x="408" y="351"/>
      <point x="593" y="667" type="curve"/>
    </contour>
  </outline>
</glyph>
<glyph name="eight" format="2">
  <advance width="574"/>
  <unicode hex="0038"/>
  <outline>
    <contour>
      <point x="406" y="382" type="curve"/>
      <point x="505" y="419"/>
      <point x="551" y="471"/>
      <point x="551" y="546" type="curve" smooth="yes"/>
      <point x="551" y="641"/>
      <point x="469" y="705"/>
      <point x="349" y="705" type="curve" smooth="yes"/>
      <point x="202" y="705"/>
      <point x="98" y="615"/>
      <point x="98" y="488" type="curve" smooth="yes"/>
      <point x="98" y="427"/>
      <point x="119" y="385"/>
      <point x="172" y="339" type="curve"/>
      <point x="130" y="323"/>
      <point x="100" y="307"/>
      <point x="74" y="287" type="curve" smooth="yes"/>
      <point x="28" y="252"/>
      <point x="0" y="200"/>
      <point x="0" y="148" type="curve" smooth="yes"/>
      <point x="0" y="50"/>
      <point x="90" y="-15"/>
      <point x="224" y="-15" type="curve" smooth="yes"/>
      <point x="390" y="-15"/>
      <point x="505" y="76"/>
      <point x="505" y="206" type="curve" smooth="yes"/>
      <point x="505" y="278"/>
      <point x="470" y="341"/>
    </contour>
    <contour>
      <point x="365" y="410" type="curve"/>
      <point x="311" y="438"/>
      <point x="301" y="444"/>
      <point x="287" y="452" type="curve" smooth="yes"/>
      <point x="236" y="483"/>
      <point x="219" y="507"/>
      <point x="219" y="550" type="curve" smooth="yes"/>
      <point x="219" y="611"/>
      <point x="266" y="655"/>
      <point x="333" y="655" type="curve" smooth="yes"/>
      <point x="400" y="655"/>
      <point x="440" y="613"/>
      <point x="440" y="543" type="curve" smooth="yes"/>
      <point x="440" y="487"/>
      <point x="419" y="450"/>
    </contour>
    <contour>
      <point x="211" y="306" type="curve"/>
      <point x="226" y="298"/>
      <point x="228" y="297"/>
      <point x="240" y="291" type="curve" smooth="yes"/>
      <point x="278" y="272"/>
      <point x="278" y="272"/>
      <point x="286" y="267" type="curve" smooth="yes"/>
      <point x="349" y="231"/>
      <point x="375" y="196"/>
      <point x="375" y="148" type="curve" smooth="yes"/>
      <point x="375" y="83"/>
      <point x="319" y="33"/>
      <point x="245" y="33" type="curve" smooth="yes"/>
      <point x="171" y="33"/>
      <point x="121" y="81"/>
      <point x="121" y="153" type="curve" smooth="yes"/>
      <point x="121" y="218"/>
      <point x="153" y="272"/>
    </contour>
  </outline>
</glyph>
<glyph name="nine" format="2">
  <advance width="574"/>
  <unicode hex="0039"/>
  <outline>
    <contour>
      <point x="349" y="300" type="curve"/>
      <point x="321" y="201"/>
      <point x="300" y="149"/>
      <point x="275" y="111" type="curve" smooth="yes"/>
      <point x="242" y="61"/>
      <point x="206" y="36"/>
      <point x="169" y="36" type="curve" smooth="yes"/>
      <point x="149" y="36"/>
      <point x="134" y="44"/>
      <point x="134" y="54" type="curve" smooth="yes"/>
      <point x="134" y="59"/>
      <point x="136" y="63"/>
      <point x="142" y="70" type="curve" smooth="yes"/>
      <point x="158" y="88"/>
      <point x="164" y="103"/>
      <point x="164" y="123" type="curve" smooth="yes"/>
      <point x="164" y="164"/>
      <point x="131" y="194"/>
      <point x="86" y="194" type="curve" smooth="yes"/>
      <point x="36" y="194"/>
      <point x="1" y="159"/>
      <point x="1" y="109" type="curve" smooth="yes"/>
      <point x="1" y="37"/>
      <point x="72" y="-15"/>
      <point x="169" y="-15" type="curve" smooth="yes"/>
      <point x="271" y="-15"/>
      <point x="357" y="31"/>
      <point x="429" y="124" type="curve" smooth="yes"/>
      <point x="501" y="218"/>
      <point x="544" y="344"/>
      <point x="544" y="460" type="curve" smooth="yes"/>
      <point x="544" y="611"/>
      <point x="462" y="705"/>
      <point x="331" y="705" type="curve" smooth="yes"/>
      <point x="180" y="705"/>
      <point x="54" y="583"/>
      <point x="54" y="437" type="curve" smooth="yes"/>
      <point x="54" y="333"/>
      <point x="129" y="259"/>
      <point x="236" y="259" type="curve" smooth="yes"/>
      <point x="282" y="259"/>
      <point x="310" y="269"/>
    </contour>
    <contour>
      <point x="329" y="659" type="curve" smooth="yes"/>
      <point x="371" y="659"/>
      <point x="393" y="622"/>
      <point x="393" y="552" type="curve" smooth="yes"/>
      <point x="393" y="500"/>
      <point x="383" y="438"/>
      <point x="368" y="399" type="curve" smooth="yes"/>
      <point x="348" y="345"/>
      <point x="319" y="319"/>
      <point x="280" y="319" type="curve" smooth="yes"/>
      <point x="239" y="319"/>
      <point x="216" y="355"/>
      <point x="216" y="420" type="curve" smooth="yes"/>
      <point x="216" y="478"/>
      <point x="228" y="544"/>
      <point x="248" y="593" type="curve" smooth="yes"/>
      <point x="266" y="635"/>
      <point x="295" y="659"/>
    </contour>
  </outline>
</glyph>
<glyph name="less" format="2">
  <advance width="606"/>
  <unicode hex="003C"/>
  <outline>
    <contour>
      <point x="577" y="498" type="line"/>
      <point x="610" y="623" type="line"/>
      <point x="39" y="391" type="line"/>
      <point x="15" y="301" type="line"/>
      <point x="462" y="69" type="line"/>
      <point x="495" y="195" type="line"/>
      <point x="209" y="347" type="line"/>
    </contour>
  </outline>
</glyph>
<glyph name="equal" format="2">
  <advance width="606"/>
  <unicode hex="003D"/>
  <outline>
    <contour>
      <point x="41" y="92" type="line"/>
      <point x="545" y="92" type="line"/>
      <point x="545" y="207" type="line"/>
      <point x="41" y="207" type="line"/>
    </contour>
    <contour>
      <point x="41" y="298" type="line"/>
      <point x="545" y="298" type="line"/>
      <point x="545" y="413" type="line"/>
      <point x="41" y="413" type="line"/>
    </contour>
  </outline>
</glyph>
<glyph name="greater" format="2">
  <advance width="606"/>
  <unicode hex="003E"/>
  <outline>
    <contour>
      <point x="101" y="498" type="line"/>
      <point x="388" y="347" type="line"/>
      <point x="20" y="195" type="line"/>
      <point x="-14" y="69" type="line"/>
      <point x="557" y="301" type="line"/>
      <point x="581" y="391" type="line"/>
      <point x="134" y="623" type="line"/>
    </contour>
  </outline>
</glyph>
<glyph name="at" format="2">
  <advance width="747"/>
  <unicode hex="0040"/>
  <outline>
    <contour>
      <point x="643" y="190" type="line"/>
      <point x="586" y="97"/>
      <point x="495" y="46"/>
      <point x="388" y="46" type="curve" smooth="yes"/>
      <point x="217" y="46"/>
      <point x="87" y="184"/>
      <point x="87" y="366" type="curve" smooth="yes"/>
      <point x="87" y="544"/>
      <point x="215" y="676"/>
      <point x="387" y="676" type="curve" smooth="yes"/>
      <point x="544" y="676"/>
      <point x="657" y="568"/>
      <point x="657" y="418" type="curve" smooth="yes"/>
      <point x="657" y="343"/>
      <point x="631" y="280"/>
      <point x="582" y="238" type="curve" smooth="yes"/>
      <point x="559" y="219"/>
      <point x="537" y="208"/>
      <point x="518" y="208" type="curve" smooth="yes"/>
      <point x="502" y="208"/>
      <point x="494" y="215"/>
      <point x="494" y="231" type="curve" smooth="yes"/>
      <point x="494" y="240"/>
      <point x="497" y="253"/>
      <point x="501" y="268" type="curve" smooth="yes"/>
      <point x="593" y="556" type="line"/>
      <point x="489" y="556" type="line"/>
      <point x="477" y="522" type="line"/>
      <point x="452" y="560"/>
      <point x="428" y="574"/>
      <point x="384" y="574" type="curve" smooth="yes"/>
      <point x="325" y="574"/>
      <point x="267" y="543"/>
      <point x="227" y="489" type="curve" smooth="yes"/>
      <point x="185" y="431"/>
      <point x="159" y="358"/>
      <point x="159" y="294" type="curve" smooth="yes"/>
      <point x="159" y="210"/>
      <point x="216" y="145"/>
      <point x="291" y="145" type="curve" smooth="yes"/>
      <point x="341" y="145"/>
      <point x="377" y="169"/>
      <point x="404" y="220" type="curve"/>
      <point x="403" y="213"/>
      <point x="402" y="207"/>
      <point x="402" y="204" type="curve" smooth="yes"/>
      <point x="402" y="169"/>
      <point x="432" y="147"/>
      <point x="479" y="147" type="curve" smooth="yes"/>
      <point x="605" y="147"/>
      <point x="722" y="281"/>
      <point x="722" y="425" type="curve" smooth="yes"/>
      <point x="722" y="599"/>
      <point x="574" y="737"/>
      <point x="388" y="737" type="curve" smooth="yes"/>
      <point x="185" y="737"/>
      <point x="22" y="570"/>
      <point x="22" y="362" type="curve" smooth="yes"/>
      <point x="22" y="152"/>
      <point x="183" y="-15"/>
      <point x="386" y="-15" type="curve" smooth="yes"/>
      <point x="487" y="-15"/>
      <point x="572" y="21"/>
      <point x="648" y="98" type="curve" smooth="yes"/>
      <point x="680" y="130"/>
      <point x="696" y="153"/>
      <point x="712" y="190" type="curve"/>
    </contour>
    <contour>
      <point x="404" y="523" type="curve" smooth="yes"/>
      <point x="431" y="523"/>
      <point x="452" y="502"/>
      <point x="452" y="477" type="curve" smooth="yes"/>
      <point x="452" y="452"/>
      <point x="419" y="343"/>
      <point x="392" y="280" type="curve" smooth="yes"/>
      <point x="368" y="225"/>
      <point x="339" y="196"/>
      <point x="306" y="196" type="curve" smooth="yes"/>
      <point x="276" y="196"/>
      <point x="260" y="217"/>
      <point x="260" y="256" type="curve" smooth="yes"/>
      <point x="260" y="312"/>
      <point x="282" y="386"/>
      <point x="317" y="449" type="curve" smooth="yes"/>
      <point x="345" y="499"/>
      <point x="373" y="523"/>
    </contour>
  </outline>
</glyph>
<glyph name="F" format="2">
  <advance width="704"/>
  <unicode hex="0046"/>
  <outline>
    <contour>
      <point x="726" y="722" type="line"/>
      <point x="113" y="722" type="line"/>
      <point x="105" y="668" type="line"/>
      <point x="124" y="668" type="line" smooth="yes"/>
      <point x="190" y="668"/>
      <point x="203" y="663"/>
      <point x="203" y="641" type="curve" smooth="yes"/>
      <point x="203" y="632"/>
      <point x="199" y="612"/>
      <point x="190" y="578" type="curve" smooth="yes"/>
      <point x="73" y="144" type="line" smooth="yes"/>
      <point x="65" y="114"/>
      <point x="61" y="97"/>
      <point x="60" y="94" type="curve"/>
      <point x="56" y="79"/>
      <point x="53" y="74"/>
      <point x="47" y="68" type="curve" smooth="yes"/>
      <point x="38" y="59"/>
      <point x="17" y="55"/>
      <point x="-30" y="54" type="curve" smooth="yes"/>
      <point x="-34" y="54" type="line"/>
      <point x="-41" y="0" type="line"/>
      <point x="334" y="0" type="line"/>
      <point x="342" y="54" type="line"/>
      <point x="315" y="54" type="line" smooth="yes"/>
      <point x="250" y="54"/>
      <point x="236" y="59"/>
      <point x="236" y="81" type="curve" smooth="yes"/>
      <point x="236" y="90"/>
      <point x="240" y="107"/>
      <point x="250" y="144" type="curve" smooth="yes"/>
      <point x="304" y="346" type="line"/>
      <point x="326" y="346" type="line" smooth="yes"/>
      <point x="389" y="346"/>
      <point x="420" y="314"/>
      <point x="420" y="249" type="curve" smooth="yes"/>
      <point x="420" y="230"/>
      <point x="419" y="217"/>
      <point x="415" y="189" type="curve"/>
      <point x="468" y="180" type="line"/>
      <point x="557" y="516" type="line"/>
      <point x="505" y="523" type="line"/>
      <point x="471" y="434"/>
      <point x="426" y="401"/>
      <point x="339" y="400" type="curve" smooth="yes"/>
      <point x="318" y="400" type="line"/>
      <point x="377" y="620" type="line" smooth="yes"/>
      <point x="389" y="661"/>
      <point x="398" y="667"/>
      <point x="440" y="668" type="curve" smooth="yes"/>
      <point x="476" y="668" type="line" smooth="yes"/>
      <point x="597" y="664"/>
      <point x="632" y="622"/>
      <point x="634" y="477" type="curve"/>
      <point x="686" y="477" type="line"/>
    </contour>
  </outline>
</glyph>
<glyph name="I" format="2">
  <advance width="444"/>
  <unicode hex="0049"/>
  <unicode hex="0399"/>
  <unicode hex="0406"/>
  <unicode hex="04C0"/>
  <unicode hex="04CF"/>
  <outline>
    <contour>
      <point x="340" y="54" type="line"/>
      <point x="318" y="54" type="line" smooth="yes"/>
      <point x="253" y="54"/>
      <point x="239" y="59"/>
      <point x="239" y="81" type="curve" smooth="yes"/>
      <point x="239" y="90"/>
      <point x="243" y="110"/>
      <point x="253" y="144" type="curve" smooth="yes"/>
      <point x="369" y="578" type="line" smooth="yes"/>
      <point x="377" y="608"/>
      <point x="381" y="625"/>
      <point x="382" y="628" type="curve" smooth="yes"/>
      <point x="387" y="643"/>
      <point x="389" y="648"/>
      <point x="396" y="654" type="curve"/>
      <point x="405" y="663"/>
      <point x="426" y="667"/>
      <point x="472" y="668" type="curve" smooth="yes"/>
      <point x="479" y="668" type="line"/>
      <point x="486" y="722" type="line"/>
      <point x="113" y="722" type="line"/>
      <point x="105" y="668" type="line"/>
      <point x="127" y="668" type="line" smooth="yes"/>
      <point x="193" y="668"/>
      <point x="206" y="663"/>
      <point x="206" y="641" type="curve" smooth="yes"/>
      <point x="206" y="632"/>
      <point x="202" y="613"/>
      <point x="192" y="578" type="curve" smooth="yes"/>
      <point x="76" y="144" type="line" smooth="yes"/>
      <point x="68" y="114"/>
      <point x="64" y="97"/>
      <point x="63" y="94" type="curve" smooth="yes"/>
      <point x="58" y="79"/>
      <point x="55" y="74"/>
      <point x="49" y="68" type="curve"/>
      <point x="41" y="59"/>
      <point x="19" y="55"/>
      <point x="-27" y="54" type="curve" smooth="yes"/>
      <point x="-34" y="54" type="line"/>
      <point x="-41" y="0" type="line"/>
      <point x="332" y="0" type="line"/>
    </contour>
  </outline>
</glyph>
<glyph name="J" format="2">
  <advance width="667"/>
  <unicode hex="004A"/>
  <unicode hex="0408"/>
  <outline>
    <contour>
      <point x="332" y="668" type="line"/>
      <point x="362" y="668" type="line" smooth="yes"/>
      <point x="427" y="668"/>
      <point x="441" y="663"/>
      <point x="441" y="641" type="curve" smooth="yes"/>
      <point x="441" y="632"/>
      <point x="438" y="616"/>
      <point x="427" y="578" type="curve" smooth="yes"/>
      <point x="342" y="260" type="line" smooth="yes"/>
      <point x="315" y="158"/>
      <point x="312" y="150"/>
      <point x="290" y="114" type="curve" smooth="yes"/>
      <point x="262" y="69"/>
      <point x="217" y="42"/>
      <point x="170" y="42" type="curve" smooth="yes"/>
      <point x="107" y="42"/>
      <point x="59" y="83"/>
      <point x="59" y="135" type="curve" smooth="yes"/>
      <point x="59" y="151"/>
      <point x="65" y="160"/>
      <point x="77" y="160" type="curve" smooth="yes"/>
      <point x="83" y="160"/>
      <point x="86" y="159"/>
      <point x="100" y="151" type="curve" smooth="yes"/>
      <point x="115" y="142"/>
      <point x="129" y="138"/>
      <point x="144" y="138" type="curve" smooth="yes"/>
      <point x="193" y="138"/>
      <point x="231" y="178"/>
      <point x="231" y="231" type="curve" smooth="yes"/>
      <point x="231" y="289"/>
      <point x="188" y="328"/>
      <point x="124" y="328" type="curve" smooth="yes"/>
      <point x="46" y="328"/>
      <point x="-9" y="262"/>
      <point x="-9" y="169" type="curve" smooth="yes"/>
      <point x="-9" y="51"/>
      <point x="75" y="-15"/>
      <point x="226" y="-15" type="curve" smooth="yes"/>
      <point x="347" y="-15"/>
      <point x="421" y="24"/>
      <point x="470" y="113" type="curve" smooth="yes"/>
      <point x="487" y="144"/>
      <point x="487" y="144"/>
      <point x="522" y="274" type="curve" smooth="yes"/>
      <point x="604" y="578" type="line"/>
      <point x="607" y="592"/>
      <point x="611" y="606"/>
      <point x="615" y="620" type="curve" smooth="yes"/>
      <point x="617" y="628" type="line" smooth="yes"/>
      <point x="621" y="643"/>
      <point x="624" y="648"/>
      <point x="630" y="654" type="curve" smooth="yes"/>
      <point x="640" y="664"/>
      <point x="660" y="667"/>
      <point x="707" y="668" type="curve" smooth="yes"/>
      <point x="711" y="668" type="line"/>
      <point x="718" y="722" type="line"/>
      <point x="340" y="722" type="line"/>
    </contour>
  </outline>
</glyph>
<glyph name="V" format="2">
  <advance width="741"/>
  <unicode hex="0056"/>
  <outline>
    <contour>
      <point x="384" y="209" type="line"/>
      <point x="309" y="610" type="line" smooth="yes"/>
      <point x="306" y="624"/>
      <point x="305" y="635"/>
      <point x="305" y="641" type="curve" smooth="yes"/>
      <point x="305" y="648"/>
      <point x="309" y="655"/>
      <point x="315" y="660" type="curve" smooth="yes"/>
      <point x="324" y="667"/>
      <point x="332" y="668"/>
      <point x="371" y="668" type="curve" smooth="yes"/>
      <point x="398" y="668" type="line"/>
      <point x="406" y="722" type="line"/>
      <point x="39" y="722" type="line"/>
      <point x="32" y="668" type="line"/>
      <point x="64" y="668" type="line" smooth="yes"/>
      <point x="113" y="668"/>
      <point x="125" y="656"/>
      <point x="138" y="593" type="curve" smooth="yes"/>
      <point x="258" y="-14" type="line"/>
      <point x="324" y="-14" type="line"/>
      <point x="662" y="560" type="line" smooth="yes"/>
      <point x="712" y="641"/>
      <point x="735" y="660"/>
      <point x="795" y="668" type="curve"/>
      <point x="802" y="722" type="line"/>
      <point x="523" y="722" type="line"/>
      <point x="516" y="668" type="line"/>
      <point x="543" y="668" type="line" smooth="yes"/>
      <point x="589" y="668"/>
      <point x="610" y="656"/>
      <point x="610" y="629" type="curve" smooth="yes"/>
      <point x="610" y="613"/>
      <point x="604" y="596"/>
      <point x="591" y="572" type="curve" smooth="yes"/>
    </contour>
  </outline>
</glyph>
<glyph name="Z" format="2">
  <advance width="704"/>
  <unicode hex="005A"/>
  <unicode hex="0396"/>
  <outline>
    <contour>
      <point x="715" y="722" type="line"/>
      <point x="134" y="722" type="line"/>
      <point x="68" y="478" type="line"/>
      <point x="117" y="469" type="line"/>
      <point x="199" y="614"/>
      <point x="275" y="666"/>
      <point x="407" y="668" type="curve" smooth="yes"/>
      <point x="486" y="668" type="line"/>
      <point x="-21" y="54" type="line"/>
      <point x="-29" y="0" type="line"/>
      <point x="582" y="0" type="line"/>
      <point x="652" y="260" type="line"/>
      <point x="601" y="273" type="line"/>
      <point x="527" y="121"/>
      <point x="426" y="51"/>
      <point x="288" y="54" type="curve" smooth="yes"/>
      <point x="197" y="54" type="line"/>
      <point x="707" y="668" type="line"/>
    </contour>
  </outline>
</glyph>
<glyph name="underscore" format="2">
  <advance width="500"/>
  <unicode hex="005F"/>
  <outline>
    <contour>
      <point x="-29" y="-73" type="line"/>
      <point x="-29" y="-163" type="line"/>
      <point x="471" y="-163" type="line"/>
      <point x="471" y="-73" type="line"/>
    </contour>
  </outline>
</glyph>
<glyph name="grave" format="2">
  <advance width="333"/>
  <unicode hex="0060"/>
  <outline>
    <contour>
      <point x="356" y="535" type="line"/>
      <point x="254" y="677" type="line" smooth="yes"/>
      <point x="230" y="710"/>
      <point x="216" y="719"/>
      <point x="189" y="719" type="curve" smooth="yes"/>
      <point x="158" y="719"/>
      <point x="136" y="699"/>
      <point x="136" y="670" type="curve" smooth="yes"/>
      <point x="136" y="652"/>
      <point x="146" y="636"/>
      <point x="166" y="624" type="curve" smooth="yes"/>
      <point x="307" y="535" type="line"/>
    </contour>
  </outline>
</glyph>
<glyph name="b" format="2">
  <advance width="611"/>
  <unicode hex="0062"/>
  <outline>
    <contour>
      <point x="351" y="736" type="line"/>
      <point x="84" y="722" type="line"/>
      <point x="77" y="675" type="line"/>
      <point x="101" y="675" type="line" smooth="yes"/>
      <point x="151" y="675"/>
      <point x="163" y="669"/>
      <point x="163" y="644" type="curve" smooth="yes"/>
      <point x="163" y="633"/>
      <point x="160" y="623"/>
      <point x="147" y="577" type="curve" smooth="yes"/>
      <point x="50" y="251" type="line" smooth="yes"/>
      <point x="29" y="180"/>
      <point x="28" y="177"/>
      <point x="28" y="145" type="curve" smooth="yes"/>
      <point x="28" y="49"/>
      <point x="109" y="-14"/>
      <point x="232" y="-14" type="curve" smooth="yes"/>
      <point x="314" y="-14"/>
      <point x="386" y="14"/>
      <point x="446" y="70" type="curve" smooth="yes"/>
      <point x="515" y="133"/>
      <point x="557" y="223"/>
      <point x="557" y="306" type="curve" smooth="yes"/>
      <point x="557" y="404"/>
      <point x="484" y="478"/>
      <point x="388" y="478" type="curve" smooth="yes"/>
      <point x="340" y="478"/>
      <point x="306" y="464"/>
      <point x="260" y="426" type="curve"/>
    </contour>
    <contour>
      <point x="330" y="407" type="curve" smooth="yes"/>
      <point x="367" y="407"/>
      <point x="394" y="375"/>
      <point x="394" y="333" type="curve" smooth="yes"/>
      <point x="394" y="289"/>
      <point x="371" y="195"/>
      <point x="347" y="141" type="curve" smooth="yes"/>
      <point x="314" y="68"/>
      <point x="276" y="29"/>
      <point x="237" y="29" type="curve" smooth="yes"/>
      <point x="198" y="29"/>
      <point x="171" y="60"/>
      <point x="171" y="105" type="curve" smooth="yes"/>
      <point x="171" y="155"/>
      <point x="197" y="252"/>
      <point x="228" y="315" type="curve" smooth="yes"/>
      <point x="258" y="378"/>
      <point x="291" y="407"/>
    </contour>
  </outline>
</glyph>
<glyph name="f" format="2">
  <advance width="389"/>
  <unicode hex="0066"/>
  <outline>
    <contour>
      <point x="422" y="463" type="line"/>
      <point x="295" y="463" type="line"/>
      <point x="305" y="504" type="line" smooth="yes"/>
      <point x="341" y="651"/>
      <point x="363" y="689"/>
      <point x="412" y="689" type="curve" smooth="yes"/>
      <point x="424" y="689"/>
      <point x="433" y="685"/>
      <point x="433" y="679" type="curve" smooth="yes"/>
      <point x="433" y="677"/>
      <point x="431" y="673"/>
      <point x="429" y="670" type="curve"/>
      <point x="409" y="644"/>
      <point x="405" y="634"/>
      <point x="405" y="614" type="curve" smooth="yes"/>
      <point x="405" y="575"/>
      <point x="433" y="548"/>
      <point x="473" y="548" type="curve" smooth="yes"/>
      <point x="518" y="548"/>
      <point x="550" y="581"/>
      <point x="550" y="627" type="curve" smooth="yes"/>
      <point x="550" y="691"/>
      <point x="493" y="736"/>
      <point x="413" y="736" type="curve" smooth="yes"/>
      <point x="346" y="736"/>
      <point x="291" y="711"/>
      <point x="241" y="657" type="curve" smooth="yes"/>
      <point x="201" y="613"/>
      <point x="176" y="560"/>
      <point x="149" y="463" type="curve"/>
      <point x="51" y="463" type="line"/>
      <point x="34" y="402" type="line"/>
      <point x="133" y="402" type="line"/>
      <point x="69" y="132" type="line" smooth="yes"/>
      <point x="21" y="-42"/>
      <point x="-20" y="-160"/>
      <point x="-48" y="-205" type="curve"/>
      <point x="133" y="-179" type="line"/>
      <point x="168" y="-83"/>
      <point x="204" y="47"/>
      <point x="234" y="188" type="curve" smooth="yes"/>
      <point x="281" y="402" type="line"/>
      <point x="406" y="402" type="line"/>
    </contour>
  </outline>
</glyph>
<glyph name="g" format="2">
  <advance width="611"/>
  <unicode hex="0067"/>
  <outline>
    <contour>
      <point x="399" y="462" type="curve"/>
      <point x="363" y="474"/>
      <point x="336" y="478"/>
      <point x="296" y="478" type="curve" smooth="yes"/>
      <point x="162" y="478"/>
      <point x="69" y="407"/>
      <point x="69" y="303" type="curve" smooth="yes"/>
      <point x="69" y="263"/>
      <point x="84" y="235"/>
      <point x="120" y="205" type="curve"/>
      <point x="42" y="181"/>
      <point x="0" y="139"/>
      <point x="0" y="86" type="curve" smooth="yes"/>
      <point x="0" y="50"/>
      <point x="15" y="30"/>
      <point x="60" y="5" type="curve"/>
      <point x="-26" y="-10"/>
      <point x="-66" y="-41"/>
      <point x="-66" y="-91" type="curve" smooth="yes"/>
      <point x="-66" y="-162"/>
      <point x="20" y="-202"/>
      <point x="172" y="-202" type="curve" smooth="yes"/>
      <point x="353" y="-202"/>
      <point x="450" y="-144"/>
      <point x="450" y="-35" type="curve" smooth="yes"/>
      <point x="450" y="30"/>
      <point x="419" y="65"/>
      <point x="346" y="82" type="curve" smooth="yes"/>
      <point x="322" y="88"/>
      <point x="261" y="95"/>
      <point x="168" y="104" type="curve" smooth="yes"/>
      <point x="133" y="107"/>
      <point x="119" y="117"/>
      <point x="119" y="138" type="curve" smooth="yes"/>
      <point x="119" y="156"/>
      <point x="139" y="169"/>
      <point x="166" y="169" type="curve" smooth="yes"/>
      <point x="173" y="169"/>
      <point x="185" y="168"/>
      <point x="200" y="166" type="curve" smooth="yes"/>
      <point x="235" y="162"/>
      <point x="298" y="157"/>
      <point x="317" y="157" type="curve" smooth="yes"/>
      <point x="439" y="157"/>
      <point x="527" y="223"/>
      <point x="527" y="313" type="curve" smooth="yes"/>
      <point x="527" y="368"/>
      <point x="499" y="413"/>
      <point x="448" y="443" type="curve"/>
      <point x="462" y="460"/>
      <point x="471" y="467"/>
      <point x="482" y="467" type="curve" smooth="yes"/>
      <point x="490" y="467"/>
      <point x="494" y="463"/>
      <point x="499" y="450" type="curve" smooth="yes"/>
      <point x="510" y="420"/>
      <point x="525" y="407"/>
      <point x="549" y="407" type="curve" smooth="yes"/>
      <point x="580" y="407"/>
      <point x="602" y="431"/>
      <point x="602" y="464" type="curve" smooth="yes"/>
      <point x="602" y="505"/>
      <point x="573" y="532"/>
      <point x="530" y="532" type="curve" smooth="yes"/>
      <point x="487" y="532"/>
      <point x="448" y="511"/>
    </contour>
    <contour>
      <point x="317" y="431" type="curve" smooth="yes"/>
      <point x="354" y="431"/>
      <point x="380" y="401"/>
      <point x="380" y="360" type="curve" smooth="yes"/>
      <point x="380" y="328"/>
      <point x="370" y="285"/>
      <point x="354" y="253" type="curve" smooth="yes"/>
      <point x="338" y="221"/>
      <point x="316" y="205"/>
      <point x="287" y="205" type="curve" smooth="yes"/>
      <point x="246" y="205"/>
      <point x="222" y="232"/>
      <point x="222" y="277" type="curve" smooth="yes"/>
      <point x="222" y="314"/>
      <point x="233" y="356"/>
      <point x="251" y="388" type="curve" smooth="yes"/>
      <point x="267" y="417"/>
      <point x="289" y="431"/>
    </contour>
    <contour>
      <point x="141" y="-28" type="curve" smooth="yes"/>
      <point x="185" y="-28"/>
      <point x="261" y="-35"/>
      <point x="285" y="-41" type="curve" smooth="yes"/>
      <point x="316" y="-48"/>
      <point x="329" y="-61"/>
      <point x="329" y="-85" type="curve" smooth="yes"/>
      <point x="329" y="-131"/>
      <point x="276" y="-155"/>
      <point x="177" y="-155" type="curve" smooth="yes"/>
      <point x="97" y="-155"/>
      <point x="57" y="-132"/>
      <point x="57" y="-85" type="curve" smooth="yes"/>
      <point x="57" y="-47"/>
      <point x="85" y="-28"/>
    </contour>
  </outline>
</glyph>
<glyph name="h" format="2">
  <advance width="685"/>
  <unicode hex="0068"/>
  <unicode hex="04BB"/>
  <outline>
    <contour>
      <point x="376" y="736" type="line"/>
      <point x="108" y="722" type="line"/>
      <point x="101" y="675" type="line"/>
      <point x="125" y="675" type="line" smooth="yes"/>
      <point x="175" y="675"/>
      <point x="187" y="669"/>
      <point x="187" y="644" type="curve" smooth="yes"/>
      <point x="187" y="633"/>
      <point x="184" y="620"/>
      <point x="171" y="577" type="curve" smooth="yes"/>
      <point x="0" y="0" type="line"/>
      <point x="157" y="0" type="line"/>
      <point x="195" y="127" type="line" smooth="yes"/>
      <point x="223" y="220"/>
      <point x="248" y="272"/>
      <point x="292" y="325" type="curve" smooth="yes"/>
      <point x="329" y="369"/>
      <point x="362" y="394"/>
      <point x="386" y="394" type="curve" smooth="yes"/>
      <point x="401" y="394"/>
      <point x="415" y="381"/>
      <point x="415" y="368" type="curve" smooth="yes"/>
      <point x="415" y="360"/>
      <point x="412" y="347"/>
      <point x="406" y="331" type="curve" smooth="yes"/>
      <point x="345" y="163" type="line" smooth="yes"/>
      <point x="326" y="113"/>
      <point x="324" y="103"/>
      <point x="324" y="76" type="curve" smooth="yes"/>
      <point x="324" y="21"/>
      <point x="363" y="-14"/>
      <point x="426" y="-14" type="curve" smooth="yes"/>
      <point x="499" y="-14"/>
      <point x="560" y="34"/>
      <point x="637" y="151" type="curve"/>
      <point x="598" y="177" type="line"/>
      <point x="570" y="139"/>
      <point x="555" y="119"/>
      <point x="553" y="116" type="curve"/>
      <point x="525" y="83"/>
      <point x="504" y="66"/>
      <point x="492" y="66" type="curve" smooth="yes"/>
      <point x="485" y="66"/>
      <point x="478" y="74"/>
      <point x="478" y="82" type="curve" smooth="yes"/>
      <point x="478" y="89"/>
      <point x="480" y="95"/>
      <point x="489" y="120" type="curve" smooth="yes"/>
      <point x="536" y="247" type="line" smooth="yes"/>
      <point x="557" y="306"/>
      <point x="566" y="343"/>
      <point x="566" y="375" type="curve" smooth="yes"/>
      <point x="566" y="435"/>
      <point x="519" y="478"/>
      <point x="454" y="478" type="curve" smooth="yes"/>
      <point x="388" y="478"/>
      <point x="329" y="443"/>
      <point x="266" y="365" type="curve"/>
    </contour>
  </outline>
</glyph>
<glyph name="i" format="2">
  <advance width="389"/>
  <unicode hex="0069"/>
  <outline>
    <component base="dotlessi" xOffset="-10"/>
    <contour>
      <point x="248" y="737" type="curve" smooth="yes"/>
      <point x="201" y="737"/>
      <point x="163" y="699"/>
      <point x="163" y="652" type="curve" smooth="yes"/>
      <point x="163" y="606"/>
      <point x="201" y="567"/>
      <point x="247" y="567" type="curve" smooth="yes"/>
      <point x="295" y="567"/>
      <point x="333" y="605"/>
      <point x="333" y="652" type="curve" smooth="yes"/>
      <point x="333" y="699"/>
      <point x="295" y="737"/>
    </contour>
  </outline>
</glyph>
<glyph name="j" format="2">
  <advance width="370"/>
  <unicode hex="006A"/>
  <unicode hex="0458"/>
  <outline>
    <component base="dotlessj" xOffset="-10"/>
    <contour>
      <point x="296" y="737" type="curve" smooth="yes"/>
      <point x="249" y="737"/>
      <point x="211" y="699"/>
      <point x="211" y="652" type="curve" smooth="yes"/>
      <point x="211" y="606"/>
      <point x="249" y="567"/>
      <point x="295" y="567" type="curve" smooth="yes"/>
      <point x="343" y="567"/>
      <point x="381" y="605"/>
      <point x="381" y="652" type="curve" smooth="yes"/>
      <point x="381" y="699"/>
      <point x="343" y="737"/>
    </contour>
  </outline>
</glyph>
<glyph name="k" format="2">
  <advance width="648"/>
  <unicode hex="006B"/>
  <outline>
    <contour>
      <point x="371" y="736" type="line"/>
      <point x="103" y="722" type="line"/>
      <point x="97" y="675" type="line"/>
      <point x="120" y="675" type="line" smooth="yes"/>
      <point x="170" y="675"/>
      <point x="182" y="669"/>
      <point x="182" y="644" type="curve" smooth="yes"/>
      <point x="182" y="633"/>
      <point x="179" y="620"/>
      <point x="166" y="577" type="curve" smooth="yes"/>
      <point x="-5" y="0" type="line"/>
      <point x="152" y="0" type="line"/>
      <point x="189" y="122" type="line" smooth="yes"/>
      <point x="218" y="220"/>
      <point x="240" y="267"/>
      <point x="280" y="315" type="curve" smooth="yes"/>
      <point x="326" y="371"/>
      <point x="361" y="395"/>
      <point x="397" y="395" type="curve" smooth="yes"/>
      <point x="425" y="395"/>
      <point x="444" y="377"/>
      <point x="444" y="350" type="curve" smooth="yes"/>
      <point x="444" y="304"/>
      <point x="406" y="268"/>
      <point x="330" y="243" type="curve"/>
      <point x="306" y="253"/>
      <point x="297" y="256"/>
      <point x="284" y="256" type="curve" smooth="yes"/>
      <point x="262" y="256"/>
      <point x="248" y="244"/>
      <point x="248" y="225" type="curve" smooth="yes"/>
      <point x="248" y="207"/>
      <point x="262" y="196"/>
      <point x="284" y="196" type="curve" smooth="yes"/>
      <point x="288" y="196"/>
      <point x="297" y="197"/>
      <point x="305" y="198" type="curve"/>
      <point x="309" y="190"/>
      <point x="310" y="186"/>
      <point x="310" y="181" type="curve" smooth="yes"/>
      <point x="310" y="173"/>
      <point x="309" y="161"/>
      <point x="306" y="148" type="curve"/>
      <point x="303" y="129"/>
      <point x="301" y="111"/>
      <point x="301" y="93" type="curve" smooth="yes"/>
      <point x="301" y="25"/>
      <point x="338" y="-14"/>
      <point x="403" y="-14" type="curve" smooth="yes"/>
      <point x="479" y="-14"/>
      <point x="532" y="30"/>
      <point x="584" y="135" type="curve"/>
      <point x="541" y="158" type="line"/>
      <point x="518" y="101"/>
      <point x="489" y="66"/>
      <point x="466" y="66" type="curve" smooth="yes"/>
      <point x="453" y="66"/>
      <point x="451" y="71"/>
      <point x="448" y="107" type="curve" smooth="yes"/>
      <point x="442" y="169"/>
      <point x="429" y="191"/>
      <point x="387" y="215" type="curve"/>
      <point x="431" y="229"/>
      <point x="460" y="241"/>
      <point x="489" y="257" type="curve" smooth="yes"/>
      <point x="549" y="290"/>
      <point x="581" y="333"/>
      <point x="581" y="380" type="curve" smooth="yes"/>
      <point x="581" y="438"/>
      <point x="533" y="478"/>
      <point x="463" y="478" type="curve" smooth="yes"/>
      <point x="391" y="478"/>
      <point x="340" y="450"/>
      <point x="262" y="371" type="curve"/>
    </contour>
  </outline>
</glyph>
<glyph name="q" format="2">
  <advance width="630"/>
  <unicode hex="0071"/>
  <outline>
    <contour>
      <point x="587" y="478" type="line"/>
      <point x="513" y="478" type="line"/>
      <point x="425" y="402" type="line"/>
      <point x="398" y="451"/>
      <point x="350" y="478"/>
      <point x="287" y="478" type="curve" smooth="yes"/>
      <point x="139" y="478"/>
      <point x="0" y="329"/>
      <point x="0" y="171" type="curve" smooth="yes"/>
      <point x="0" y="60"/>
      <point x="66" y="-14"/>
      <point x="165" y="-14" type="curve" smooth="yes"/>
      <point x="215" y="-14"/>
      <point x="255" y="3"/>
      <point x="302" y="46" type="curve"/>
      <point x="269" y="-65" type="line" smooth="yes"/>
      <point x="260" y="-95"/>
      <point x="255" y="-112"/>
      <point x="254" y="-115" type="curve" smooth="yes"/>
      <point x="249" y="-130"/>
      <point x="246" y="-135"/>
      <point x="240" y="-141" type="curve"/>
      <point x="232" y="-150"/>
      <point x="215" y="-153"/>
      <point x="174" y="-155" type="curve" smooth="yes"/>
      <point x="170" y="-155" type="line"/>
      <point x="163" y="-202" type="line"/>
      <point x="476" y="-202" type="line"/>
      <point x="482" y="-155" type="line"/>
      <point x="467" y="-155" type="line" smooth="yes"/>
      <point x="427" y="-155"/>
      <point x="411" y="-148"/>
      <point x="411" y="-129" type="curve" smooth="yes"/>
      <point x="411" y="-120"/>
      <point x="416" y="-100"/>
      <point x="426" y="-65" type="curve" smooth="yes"/>
    </contour>
    <contour>
      <point x="315" y="422" type="curve" smooth="yes"/>
      <point x="349" y="422"/>
      <point x="376" y="393"/>
      <point x="376" y="356" type="curve" smooth="yes"/>
      <point x="376" y="299"/>
      <point x="349" y="198"/>
      <point x="317" y="137" type="curve" smooth="yes"/>
      <point x="290" y="84"/>
      <point x="257" y="56"/>
      <point x="222" y="56" type="curve" smooth="yes"/>
      <point x="187" y="56"/>
      <point x="162" y="87"/>
      <point x="162" y="130" type="curve" smooth="yes"/>
      <point x="162" y="207"/>
      <point x="199" y="323"/>
      <point x="242" y="380" type="curve" smooth="yes"/>
      <point x="262" y="406"/>
      <point x="289" y="422"/>
    </contour>
  </outline>
</glyph>
<glyph name="r" format="2">
  <advance width="519"/>
  <unicode hex="0072"/>
  <outline>
    <contour>
      <point x="285" y="478" type="line"/>
      <point x="35" y="463" type="line"/>
      <point x="28" y="416" type="line"/>
      <point x="52" y="416" type="line" smooth="yes"/>
      <point x="101" y="416"/>
      <point x="113" y="410"/>
      <point x="113" y="385" type="curve" smooth="yes"/>
      <point x="113" y="374"/>
      <point x="109" y="357"/>
      <point x="98" y="319" type="curve" smooth="yes"/>
      <point x="3" y="0" type="line"/>
      <point x="160" y="0" type="line"/>
      <point x="202" y="138" type="line" smooth="yes"/>
      <point x="230" y="234"/>
      <point x="280" y="327"/>
      <point x="328" y="374" type="curve" smooth="yes"/>
      <point x="344" y="389"/>
      <point x="361" y="400"/>
      <point x="369" y="400" type="curve" smooth="yes"/>
      <point x="376" y="400"/>
      <point x="379" y="396"/>
      <point x="379" y="387" type="curve" smooth="yes"/>
      <point x="379" y="372"/>
      <point x="380" y="365"/>
      <point x="382" y="356" type="curve" smooth="yes"/>
      <point x="389" y="327"/>
      <point x="417" y="307"/>
      <point x="449" y="307" type="curve" smooth="yes"/>
      <point x="492" y="307"/>
      <point x="524" y="343"/>
      <point x="524" y="390" type="curve" smooth="yes"/>
      <point x="524" y="444"/>
      <point x="488" y="478"/>
      <point x="431" y="478" type="curve" smooth="yes"/>
      <point x="365" y="478"/>
      <point x="316" y="443"/>
      <point x="254" y="350" type="curve"/>
    </contour>
  </outline>
</glyph>
<glyph name="v" format="2">
  <advance width="556"/>
  <unicode hex="0076"/>
  <outline>
    <contour>
      <point x="306" y="478" type="line"/>
      <point x="39" y="463" type="line"/>
      <point x="32" y="416" type="line"/>
      <point x="56" y="416" type="line" smooth="yes"/>
      <point x="105" y="416"/>
      <point x="117" y="410"/>
      <point x="117" y="385" type="curve" smooth="yes"/>
      <point x="117" y="374"/>
      <point x="113" y="356"/>
      <point x="102" y="319" type="curve" smooth="yes"/>
      <point x="70" y="210" type="line" smooth="yes"/>
      <point x="62" y="184"/>
      <point x="58" y="158"/>
      <point x="58" y="132" type="curve" smooth="yes"/>
      <point x="58" y="88"/>
      <point x="73" y="51"/>
      <point x="101" y="27" type="curve" smooth="yes"/>
      <point x="131" y="1"/>
      <point x="172" y="-14"/>
      <point x="213" y="-14" type="curve" smooth="yes"/>
      <point x="297" y="-14"/>
      <point x="372" y="40"/>
      <point x="428" y="139" type="curve" smooth="yes"/>
      <point x="471" y="217"/>
      <point x="500" y="316"/>
      <point x="500" y="389" type="curve" smooth="yes"/>
      <point x="500" y="442"/>
      <point x="469" y="478"/>
      <point x="422" y="478" type="curve" smooth="yes"/>
      <point x="380" y="478"/>
      <point x="353" y="452"/>
      <point x="353" y="413" type="curve" smooth="yes"/>
      <point x="353" y="391"/>
      <point x="361" y="376"/>
      <point x="382" y="357" type="curve" smooth="yes"/>
      <point x="423" y="319"/>
      <point x="426" y="315"/>
      <point x="426" y="294" type="curve" smooth="yes"/>
      <point x="426" y="250"/>
      <point x="404" y="191"/>
      <point x="365" y="131" type="curve" smooth="yes"/>
      <point x="333" y="83"/>
      <point x="298" y="57"/>
      <point x="265" y="57" type="curve" smooth="yes"/>
      <point x="236" y="57"/>
      <point x="209" y="84"/>
      <point x="209" y="114" type="curve" smooth="yes"/>
      <point x="209" y="134"/>
      <point x="210" y="139"/>
      <point x="233" y="230" type="curve" smooth="yes"/>
    </contour>
  </outline>
</glyph>
<glyph name="braceleft" format="2">
  <advance width="407"/>
  <unicode hex="007B"/>
  <outline>
    <contour>
      <point x="52" y="285" type="line"/>
      <point x="89" y="275"/>
      <point x="103" y="258"/>
      <point x="103" y="225" type="curve" smooth="yes"/>
      <point x="103" y="204"/>
      <point x="102" y="198"/>
      <point x="90" y="154" type="curve" smooth="yes"/>
      <point x="69" y="74" type="line" smooth="yes"/>
      <point x="56" y="27"/>
      <point x="52" y="5"/>
      <point x="52" y="-21" type="curve" smooth="yes"/>
      <point x="52" y="-76"/>
      <point x="85" y="-108"/>
      <point x="140" y="-108" type="curve" smooth="yes"/>
      <point x="182" y="-108" type="line"/>
      <point x="194" y="-65" type="line"/>
      <point x="158" y="-63"/>
      <point x="147" y="-51"/>
      <point x="147" y="-16" type="curve" smooth="yes"/>
      <point x="147" y="2"/>
      <point x="150" y="18"/>
      <point x="164" y="71" type="curve" smooth="yes"/>
      <point x="192" y="175" type="line" smooth="yes"/>
      <point x="201" y="207"/>
      <point x="205" y="228"/>
      <point x="205" y="240" type="curve" smooth="yes"/>
      <point x="205" y="273"/>
      <point x="184" y="294"/>
      <point x="140" y="307" type="curve"/>
      <point x="206" y="323"/>
      <point x="238" y="355"/>
      <point x="261" y="432" type="curve" smooth="yes"/>
      <point x="294" y="553" type="line" smooth="yes"/>
      <point x="319" y="645"/>
      <point x="341" y="674"/>
      <point x="390" y="679" type="curve"/>
      <point x="402" y="722" type="line"/>
      <point x="371" y="722" type="line" smooth="yes"/>
      <point x="273" y="720"/>
      <point x="230" y="682"/>
      <point x="202" y="572" type="curve" smooth="yes"/>
      <point x="172" y="462" type="line" smooth="yes"/>
      <point x="152" y="373"/>
      <point x="129" y="345"/>
      <point x="64" y="329" type="curve"/>
    </contour>
  </outline>
</glyph>
<glyph name="exclamdown" format="2">
  <advance width="333"/>
  <unicode hex="00A1"/>
  <outline>
    <component base="period" xOffset="104" yOffset="390"/>
    <contour>
      <point x="145" y="331" type="line"/>
      <point x="100" y="198"/>
      <point x="76" y="140"/>
      <point x="16" y="20" type="curve" smooth="yes"/>
      <point x="-39" y="-91"/>
      <point x="-39" y="-91"/>
      <point x="-39" y="-123" type="curve" smooth="yes"/>
      <point x="-39" y="-170"/>
      <point x="1" y="-203"/>
      <point x="58" y="-203" type="curve" smooth="yes"/>
      <point x="84" y="-203"/>
      <point x="107" y="-191"/>
      <point x="122" y="-168" type="curve" smooth="yes"/>
      <point x="139" y="-143"/>
      <point x="142" y="-123"/>
      <point x="146" y="-33" type="curve" smooth="yes"/>
      <point x="150" y="66"/>
      <point x="167" y="183"/>
      <point x="197" y="318" type="curve"/>
    </contour>
  </outline>
</glyph>
<glyph name="cent" format="2">
  <advance width="574"/>
  <unicode hex="00A2"/>
  <outline>
    <contour>
      <point x="243" y="-15" type="line"/>
      <point x="335" y="-11"/>
      <point x="384" y="17"/>
      <point x="464" y="108" type="curve"/>
      <point x="470" y="116" type="line"/>
      <point x="434" y="147" type="line"/>
      <point x="398" y="109"/>
      <point x="387" y="99"/>
      <point x="373" y="88" type="curve" smooth="yes"/>
      <point x="341" y="62"/>
      <point x="308" y="48"/>
      <point x="278" y="48" type="curve" smooth="yes"/>
      <point x="271" y="48" type="line"/>
      <point x="374" y="278" type="line"/>
      <point x="390" y="265"/>
      <point x="406" y="259"/>
      <point x="427" y="259" type="curve" smooth="yes"/>
      <point x="478" y="259"/>
      <point x="514" y="297"/>
      <point x="514" y="351" type="curve" smooth="yes"/>
      <point x="514" y="394"/>
      <point x="492" y="433"/>
      <point x="454" y="456" type="curve"/>
      <point x="511" y="586" type="line"/>
      <point x="457" y="586" type="line"/>
      <point x="408" y="475" type="line"/>
      <point x="384" y="481"/>
      <point x="366" y="483"/>
      <point x="343" y="483" type="curve" smooth="yes"/>
      <point x="176" y="483"/>
      <point x="30" y="339"/>
      <point x="30" y="173" type="curve" smooth="yes"/>
      <point x="30" y="79"/>
      <point x="103" y="-5"/>
      <point x="190" y="-12" type="curve"/>
      <point x="134" y="-137" type="line"/>
      <point x="188" y="-137" type="line"/>
    </contour>
    <contour>
      <point x="225" y="66" type="line"/>
      <point x="205" y="85"/>
      <point x="194" y="112"/>
      <point x="194" y="144" type="curve" smooth="yes"/>
      <point x="194" y="198"/>
      <point x="216" y="285"/>
      <point x="244" y="341" type="curve" smooth="yes"/>
      <point x="276" y="404"/>
      <point x="314" y="436"/>
      <point x="359" y="436" type="curve" smooth="yes"/>
      <point x="381" y="436"/>
      <point x="403" y="424"/>
      <point x="403" y="411" type="curve" smooth="yes"/>
      <point x="403" y="408"/>
      <point x="401" y="404"/>
      <point x="397" y="402" type="curve"/>
      <point x="374" y="388"/>
      <point x="367" y="380"/>
      <point x="357" y="360" type="curve" smooth="yes"/>
    </contour>
  </outline>
</glyph>
<glyph name="sterling" format="2">
  <advance width="574"/>
  <unicode hex="00A3"/>
  <outline>
    <contour>
      <point x="435" y="376" type="line"/>
      <point x="298" y="376" type="line"/>
      <point x="296" y="417"/>
      <point x="296" y="427"/>
      <point x="296" y="442" type="curve" smooth="yes"/>
      <point x="296" y="575"/>
      <point x="341" y="655"/>
      <point x="415" y="655" type="curve" smooth="yes"/>
      <point x="443" y="655"/>
      <point x="461" y="644"/>
      <point x="461" y="627" type="curve" smooth="yes"/>
      <point x="461" y="619"/>
      <point x="458" y="615"/>
      <point x="450" y="609" type="curve" smooth="yes"/>
      <point x="415" y="585"/>
      <point x="403" y="566"/>
      <point x="403" y="537" type="curve" smooth="yes"/>
      <point x="403" y="497"/>
      <point x="435" y="468"/>
      <point x="479" y="468" type="curve" smooth="yes"/>
      <point x="530" y="468"/>
      <point x="566" y="508"/>
      <point x="566" y="564" type="curve" smooth="yes"/>
      <point x="566" y="648"/>
      <point x="497" y="705"/>
      <point x="396" y="705" type="curve" smooth="yes"/>
      <point x="243" y="705"/>
      <point x="139" y="589"/>
      <point x="139" y="420" type="curve" smooth="yes"/>
      <point x="140" y="376" type="line"/>
      <point x="26" y="376" type="line"/>
      <point x="18" y="319" type="line"/>
      <point x="148" y="319" type="line"/>
      <point x="160" y="280"/>
      <point x="168" y="232"/>
      <point x="168" y="197" type="curve" smooth="yes"/>
      <point x="168" y="188"/>
      <point x="167" y="174"/>
      <point x="165" y="156" type="curve"/>
      <point x="132" y="164"/>
      <point x="110" y="168"/>
      <point x="89" y="168" type="curve" smooth="yes"/>
      <point x="26" y="168"/>
      <point x="-18" y="128"/>
      <point x="-18" y="72" type="curve" smooth="yes"/>
      <point x="-18" y="19"/>
      <point x="19" y="-15"/>
      <point x="77" y="-15" type="curve" smooth="yes"/>
      <point x="125" y="-15"/>
      <point x="160" y="4"/>
      <point x="197" y="49" type="curve"/>
      <point x="244" y="6"/>
      <point x="295" y="-15"/>
      <point x="351" y="-15" type="curve" smooth="yes"/>
      <point x="414" y="-15"/>
      <point x="458" y="12"/>
      <point x="497" y="76" type="curve" smooth="yes"/>
      <point x="517" y="109"/>
      <point x="530" y="139"/>
      <point x="542" y="180" type="curve"/>
      <point x="499" y="200" type="line"/>
      <point x="474" y="145"/>
      <point x="428" y="115"/>
      <point x="369" y="115" type="curve" smooth="yes"/>
      <point x="329" y="115"/>
      <point x="282" y="123"/>
      <point x="249" y="136" type="curve"/>
      <point x="282" y="205"/>
      <point x="295" y="253"/>
      <point x="298" y="319" type="curve"/>
      <point x="426" y="319" type="line"/>
    </contour>
    <contour>
      <point x="146" y="84" type="curve"/>
      <point x="126" y="42"/>
      <point x="108" y="28"/>
      <point x="75" y="28" type="curve" smooth="yes"/>
      <point x="47" y="28"/>
      <point x="29" y="46"/>
      <point x="29" y="74" type="curve" smooth="yes"/>
      <point x="29" y="99"/>
      <point x="46" y="118"/>
      <point x="69" y="118" type="curve" smooth="yes"/>
      <point x="92" y="118"/>
      <point x="116" y="107"/>
    </contour>
  </outline>
</glyph>
<glyph name="currency" format="2">
  <advance width="574"/>
  <unicode hex="00A4"/>
  <outline>
    <contour>
      <point x="160" y="140" type="line"/>
      <point x="205" y="113"/>
      <point x="246" y="101"/>
      <point x="293" y="101" type="curve" smooth="yes"/>
      <point x="341" y="101"/>
      <point x="378" y="112"/>
      <point x="426" y="139" type="curve"/>
      <point x="469" y="97" type="line"/>
      <point x="546" y="174" type="line"/>
      <point x="503" y="217" type="line"/>
      <point x="528" y="257"/>
      <point x="541" y="302"/>
      <point x="541" y="349" type="curve" smooth="yes"/>
      <point x="541" y="396"/>
      <point x="527" y="444"/>
      <point x="503" y="482" type="curve"/>
      <point x="546" y="525" type="line"/>
      <point x="468" y="602" type="line"/>
      <point x="426" y="560" type="line"/>
      <point x="384" y="585"/>
      <point x="341" y="598"/>
      <point x="294" y="598" type="curve" smooth="yes"/>
      <point x="246" y="598"/>
      <point x="198" y="584"/>
      <point x="160" y="560" type="curve"/>
      <point x="117" y="603" type="line"/>
      <point x="40" y="525" type="line"/>
      <point x="83" y="482" type="line"/>
      <point x="60" y="448"/>
      <point x="45" y="396"/>
      <point x="45" y="349" type="curve" smooth="yes"/>
      <point x="45" y="303"/>
      <point x="59" y="254"/>
      <point x="83" y="217" type="curve"/>
      <point x="41" y="175" type="line"/>
      <point x="118" y="97" type="line"/>
    </contour>
    <contour>
      <point x="293" y="477" type="curve" smooth="yes"/>
      <point x="363" y="477"/>
      <point x="420" y="420"/>
      <point x="420" y="350" type="curve" smooth="yes"/>
      <point x="420" y="278"/>
      <point x="363" y="222"/>
      <point x="292" y="222" type="curve" smooth="yes"/>
      <point x="223" y="222"/>
      <point x="166" y="280"/>
      <point x="166" y="350" type="curve" smooth="yes"/>
      <point x="166" y="420"/>
      <point x="223" y="477"/>
    </contour>
  </outline>
</glyph>
<glyph name="yen" format="2">
  <advance width="574"/>
  <unicode hex="00A5"/>
  <outline>
    <contour>
      <point x="385" y="375" type="line"/>
      <point x="509" y="551" type="line" smooth="yes"/>
      <point x="558" y="617"/>
      <point x="578" y="634"/>
      <point x="628" y="652" type="curve"/>
      <point x="635" y="706" type="line"/>
      <point x="404" y="706" type="line"/>
      <point x="397" y="652" type="line"/>
      <point x="413" y="652" type="line" smooth="yes"/>
      <point x="448" y="652"/>
      <point x="470" y="638"/>
      <point x="470" y="616" type="curve" smooth="yes"/>
      <point x="470" y="606"/>
      <point x="464" y="589"/>
      <point x="453" y="573" type="curve" smooth="yes"/>
      <point x="328" y="384" type="line"/>
      <point x="256" y="594" type="line" smooth="yes"/>
      <point x="247" y="620"/>
      <point x="247" y="620"/>
      <point x="247" y="628" type="curve" smooth="yes"/>
      <point x="247" y="646"/>
      <point x="257" y="652"/>
      <point x="291" y="652" type="curve" smooth="yes"/>
      <point x="313" y="652" type="line"/>
      <point x="321" y="706" type="line"/>
      <point x="30" y="706" type="line"/>
      <point x="23" y="652" type="line"/>
      <point x="72" y="652"/>
      <point x="90" y="640"/>
      <point x="107" y="594" type="curve" smooth="yes"/>
      <point x="185" y="375" type="line"/>
      <point x="60" y="375" type="line"/>
      <point x="54" y="329" type="line"/>
      <point x="201" y="329" type="line"/>
      <point x="179" y="244" type="line"/>
      <point x="31" y="244" type="line"/>
      <point x="25" y="198" type="line"/>
      <point x="166" y="198" type="line"/>
      <point x="152" y="145" type="line"/>
      <point x="145" y="119" type="line" smooth="yes"/>
      <point x="142" y="106"/>
      <point x="139" y="98"/>
      <point x="138" y="94" type="curve" smooth="yes"/>
      <point x="134" y="80"/>
      <point x="131" y="74"/>
      <point x="125" y="68" type="curve"/>
      <point x="118" y="60"/>
      <point x="97" y="55"/>
      <point x="56" y="54" type="curve" smooth="yes"/>
      <point x="44" y="54" type="line"/>
      <point x="36" y="0" type="line"/>
      <point x="374" y="0" type="line"/>
      <point x="382" y="54" type="line"/>
      <point x="369" y="54" type="line" smooth="yes"/>
      <point x="304" y="54"/>
      <point x="290" y="59"/>
      <point x="290" y="81" type="curve" smooth="yes"/>
      <point x="290" y="91"/>
      <point x="294" y="107"/>
      <point x="304" y="145" type="curve" smooth="yes"/>
      <point x="318" y="198" type="line"/>
      <point x="469" y="198" type="line"/>
      <point x="475" y="244" type="line"/>
      <point x="330" y="244" type="line"/>
      <point x="353" y="329" type="line"/>
      <point x="510" y="329" type="line"/>
      <point x="516" y="375" type="line"/>
    </contour>
  </outline>
</glyph>
<glyph name="brokenbar" format="2">
  <advance width="606"/>
  <unicode hex="00A6"/>
  <outline>
    <contour>
      <point x="343" y="722" type="line"/>
      <point x="262" y="722" type="line"/>
      <point x="262" y="400" type="line"/>
      <point x="343" y="400" type="line"/>
    </contour>
    <contour>
      <point x="343" y="322" type="line"/>
      <point x="262" y="322" type="line"/>
      <point x="262" y="0" type="line"/>
      <point x="343" y="0" type="line"/>
    </contour>
  </outline>
</glyph>
<glyph name="section" format="2">
  <advance width="500"/>
  <unicode hex="00A7"/>
  <outline>
    <contour>
      <point x="269" y="140" type="curve"/>
      <point x="278" y="139"/>
      <point x="283" y="139"/>
      <point x="289" y="139" type="curve" smooth="yes"/>
      <point x="376" y="139"/>
      <point x="455" y="213"/>
      <point x="455" y="296" type="curve" smooth="yes"/>
      <point x="455" y="346"/>
      <point x="434" y="383"/>
      <point x="361" y="462" type="curve" smooth="yes"/>
      <point x="273" y="557"/>
      <point x="251" y="591"/>
      <point x="251" y="628" type="curve" smooth="yes"/>
      <point x="251" y="667"/>
      <point x="290" y="698"/>
      <point x="339" y="698" type="curve" smooth="yes"/>
      <point x="369" y="698"/>
      <point x="400" y="687"/>
      <point x="400" y="676" type="curve" smooth="yes"/>
      <point x="400" y="673"/>
      <point x="398" y="671"/>
      <point x="392" y="666" type="curve" smooth="yes"/>
      <point x="371" y="648"/>
      <point x="361" y="630"/>
      <point x="361" y="609" type="curve" smooth="yes"/>
      <point x="361" y="571"/>
      <point x="390" y="544"/>
      <point x="431" y="544" type="curve" smooth="yes"/>
      <point x="473" y="544"/>
      <point x="505" y="575"/>
      <point x="505" y="615" type="curve" smooth="yes"/>
      <point x="505" y="685"/>
      <point x="431" y="737"/>
      <point x="333" y="737" type="curve" smooth="yes"/>
      <point x="221" y="737"/>
      <point x="143" y="670"/>
      <point x="143" y="575" type="curve" smooth="yes"/>
      <point x="143" y="534"/>
      <point x="155" y="505"/>
      <point x="193" y="452" type="curve"/>
      <point x="181" y="453"/>
      <point x="172" y="454"/>
      <point x="166" y="454" type="curve" smooth="yes"/>
      <point x="81" y="454"/>
      <point x="8" y="381"/>
      <point x="8" y="297" type="curve" smooth="yes"/>
      <point x="8" y="250"/>
      <point x="26" y="214"/>
      <point x="79" y="157" type="curve" smooth="yes"/>
      <point x="193" y="34"/>
      <point x="213" y="6"/>
      <point x="213" y="-36" type="curve" smooth="yes"/>
      <point x="213" y="-78"/>
      <point x="180" y="-104"/>
      <point x="129" y="-104" type="curve" smooth="yes"/>
      <point x="96" y="-104"/>
      <point x="62" y="-92"/>
      <point x="62" y="-80" type="curve" smooth="yes"/>
      <point x="62" y="-76"/>
      <point x="65" y="-73"/>
      <point x="73" y="-67" type="curve" smooth="yes"/>
      <point x="93" y="-53"/>
      <point x="101" y="-38"/>
      <point x="101" y="-16" type="curve" smooth="yes"/>
      <point x="101" y="21"/>
      <point x="70" y="49"/>
      <point x="30" y="49" type="curve" smooth="yes"/>
      <point x="-12" y="49"/>
      <point x="-40" y="19"/>
      <point x="-40" y="-27" type="curve" smooth="yes"/>
      <point x="-40" y="-93"/>
      <point x="35" y="-144"/>
      <point x="131" y="-144" type="curve" smooth="yes"/>
      <point x="239" y="-144"/>
      <point x="322" y="-72"/>
      <point x="322" y="20" type="curve" smooth="yes"/>
      <point x="322" y="63"/>
      <point x="307" y="97"/>
    </contour>
    <contour>
      <point x="177" y="416" type="curve" smooth="yes"/>
      <point x="208" y="416"/>
      <point x="238" y="395"/>
      <point x="287" y="341" type="curve" smooth="yes"/>
      <point x="331" y="291"/>
      <point x="348" y="261"/>
      <point x="348" y="234" type="curve" smooth="yes"/>
      <point x="348" y="203"/>
      <point x="319" y="179"/>
      <point x="283" y="179" type="curve" smooth="yes"/>
      <point x="250" y="179"/>
      <point x="228" y="195"/>
      <point x="170" y="259" type="curve" smooth="yes"/>
      <point x="126" y="308"/>
      <point x="115" y="328"/>
      <point x="115" y="358" type="curve" smooth="yes"/>
      <point x="115" y="391"/>
      <point x="141" y="416"/>
    </contour>
  </outline>
</glyph>
<glyph name="dieresis" format="2">
  <advance width="333"/>
  <unicode hex="00A8"/>
  <outline>
    <contour>
      <point x="209" y="685" type="curve" smooth="yes"/>
      <point x="169" y="685"/>
      <point x="137" y="653"/>
      <point x="137" y="614" type="curve" smooth="yes"/>
      <point x="137" y="574"/>
      <point x="169" y="542"/>
      <point x="208" y="542" type="curve" smooth="yes"/>
      <point x="248" y="542"/>
      <point x="280" y="573"/>
      <point x="280" y="614" type="curve" smooth="yes"/>
      <point x="280" y="653"/>
      <point x="248" y="685"/>
    </contour>
    <contour>
      <point x="424" y="685" type="curve" smooth="yes"/>
      <point x="384" y="685"/>
      <point x="352" y="653"/>
      <point x="352" y="614" type="curve" smooth="yes"/>
      <point x="352" y="574"/>
      <point x="384" y="542"/>
      <point x="423" y="542" type="curve" smooth="yes"/>
      <point x="463" y="542"/>
      <point x="495" y="573"/>
      <point x="495" y="614" type="curve" smooth="yes"/>
      <point x="495" y="653"/>
      <point x="463" y="685"/>
    </contour>
  </outline>
</glyph>
<glyph name="ordfeminine" format="2">
  <advance width="412"/>
  <unicode hex="00AA"/>
  <outline>
    <contour>
      <point x="312" y="728" type="line"/>
      <point x="302" y="700" type="line"/>
      <point x="287" y="724"/>
      <point x="259" y="737"/>
      <point x="220" y="737" type="curve" smooth="yes"/>
      <point x="120" y="737"/>
      <point x="29" y="648"/>
      <point x="29" y="550" type="curve" smooth="yes"/>
      <point x="29" y="486"/>
      <point x="76" y="441"/>
      <point x="145" y="441" type="curve" smooth="yes"/>
      <point x="189" y="441"/>
      <point x="217" y="454"/>
      <point x="253" y="492" type="curve"/>
      <point x="252" y="490"/>
      <point x="252" y="489"/>
      <point x="252" y="488" type="curve"/>
      <point x="250" y="462"/>
      <point x="276" y="441"/>
      <point x="309" y="441" type="curve" smooth="yes"/>
      <point x="355" y="441"/>
      <point x="408" y="480"/>
      <point x="449" y="544" type="curve"/>
      <point x="423" y="559" type="line"/>
      <point x="399" y="525"/>
      <point x="365" y="492"/>
      <point x="353" y="492" type="curve" smooth="yes"/>
      <point x="349" y="492"/>
      <point x="344" y="497"/>
      <point x="344" y="502" type="curve" smooth="yes"/>
      <point x="344" y="506"/>
      <point x="344" y="506"/>
      <point x="351" y="529" type="curve" smooth="yes"/>
      <point x="417" y="728" type="line"/>
    </contour>
    <contour>
      <point x="241" y="704" type="curve" smooth="yes"/>
      <point x="266" y="704"/>
      <point x="282" y="686"/>
      <point x="282" y="660" type="curve" smooth="yes"/>
      <point x="282" y="630"/>
      <point x="268" y="580"/>
      <point x="248" y="541" type="curve" smooth="yes"/>
      <point x="228" y="503"/>
      <point x="204" y="483"/>
      <point x="179" y="483" type="curve" smooth="yes"/>
      <point x="153" y="483"/>
      <point x="138" y="501"/>
      <point x="138" y="530" type="curve" smooth="yes"/>
      <point x="138" y="563"/>
      <point x="151" y="610"/>
      <point x="170" y="647" type="curve" smooth="yes"/>
      <point x="191" y="686"/>
      <point x="214" y="704"/>
    </contour>
  </outline>
</glyph>
<glyph name="guillemotleft" format="2">
  <advance width="481"/>
  <unicode hex="00AB"/>
  <outline>
    <contour>
      <point x="80" y="247" type="line"/>
      <point x="215" y="389" type="line" smooth="yes"/>
      <point x="222" y="396"/>
      <point x="224" y="400"/>
      <point x="224" y="405" type="curve" smooth="yes"/>
      <point x="224" y="413"/>
      <point x="218" y="419"/>
      <point x="210" y="419" type="curve" smooth="yes"/>
      <point x="205" y="419"/>
      <point x="200" y="417"/>
      <point x="194" y="413" type="curve" smooth="yes"/>
      <point x="-28" y="253" type="line"/>
      <point x="-34" y="250"/>
      <point x="-35" y="248"/>
      <point x="-35" y="245" type="curve" smooth="yes"/>
      <point x="-35" y="243"/>
      <point x="-34" y="240"/>
      <point x="-30" y="237" type="curve"/>
      <point x="130" y="86" type="line" smooth="yes"/>
      <point x="136" y="80"/>
      <point x="141" y="78"/>
      <point x="146" y="78" type="curve" smooth="yes"/>
      <point x="153" y="78"/>
      <point x="158" y="84"/>
      <point x="158" y="90" type="curve" smooth="yes"/>
      <point x="158" y="93"/>
      <point x="157" y="97"/>
      <point x="155" y="100" type="curve"/>
    </contour>
    <contour>
      <point x="283" y="247" type="line"/>
      <point x="418" y="389" type="line" smooth="yes"/>
      <point x="425" y="396"/>
      <point x="427" y="400"/>
      <point x="427" y="405" type="curve" smooth="yes"/>
      <point x="427" y="413"/>
      <point x="421" y="419"/>
      <point x="413" y="419" type="curve" smooth="yes"/>
      <point x="408" y="419"/>
      <point x="403" y="417"/>
      <point x="397" y="413" type="curve" smooth="yes"/>
      <point x="175" y="253" type="line"/>
      <point x="169" y="250"/>
      <point x="168" y="248"/>
      <point x="168" y="245" type="curve" smooth="yes"/>
      <point x="168" y="243"/>
      <point x="169" y="240"/>
      <point x="173" y="237" type="curve"/>
      <point x="333" y="86" type="line" smooth="yes"/>
      <point x="339" y="80"/>
      <point x="344" y="78"/>
      <point x="349" y="78" type="curve" smooth="yes"/>
      <point x="356" y="78"/>
      <point x="361" y="84"/>
      <point x="361" y="90" type="curve" smooth="yes"/>
      <point x="361" y="93"/>
      <point x="360" y="97"/>
      <point x="358" y="100" type="curve"/>
    </contour>
  </outline>
</glyph>
<glyph name="uni00AD" format="2">
  <advance width="333"/>
  <unicode hex="00AD"/>
  <outline>
    <contour>
      <point x="45" y="310" type="line"/>
      <point x="10" y="180" type="line"/>
      <point x="237" y="180" type="line"/>
      <point x="272" y="310" type="line"/>
    </contour>
  </outline>
</glyph>
<glyph name="registered" format="2">
  <advance width="747"/>
  <unicode hex="00AE"/>
  <outline>
    <contour>
      <point x="333" y="323" type="line"/>
      <point x="357" y="323" type="line" smooth="yes"/>
      <point x="401" y="321"/>
      <point x="408" y="312"/>
      <point x="412" y="251" type="curve" smooth="yes"/>
      <point x="415" y="213"/>
      <point x="416" y="204"/>
      <point x="422" y="190" type="curve" smooth="yes"/>
      <point x="435" y="157"/>
      <point x="461" y="140"/>
      <point x="502" y="140" type="curve" smooth="yes"/>
      <point x="558" y="140"/>
      <point x="592" y="173"/>
      <point x="592" y="226" type="curve" smooth="yes"/>
      <point x="592" y="238" type="line"/>
      <point x="557" y="238" type="line"/>
      <point x="557" y="233" type="line" smooth="yes"/>
      <point x="557" y="207"/>
      <point x="550" y="192"/>
      <point x="538" y="192" type="curve" smooth="yes"/>
      <point x="527" y="192"/>
      <point x="524" y="197"/>
      <point x="521" y="219" type="curve"/>
      <point x="520" y="221"/>
      <point x="520" y="226"/>
      <point x="518" y="232" type="curve"/>
      <point x="515" y="251" type="line" smooth="yes"/>
      <point x="508" y="294"/>
      <point x="489" y="319"/>
      <point x="454" y="332" type="curve"/>
      <point x="517" y="347"/>
      <point x="545" y="376"/>
      <point x="545" y="425" type="curve" smooth="yes"/>
      <point x="545" y="457"/>
      <point x="530" y="485"/>
      <point x="503" y="502" type="curve" smooth="yes"/>
      <point x="482" y="515"/>
      <point x="450" y="521"/>
      <point x="401" y="521" type="curve" smooth="yes"/>
      <point x="181" y="521" type="line"/>
      <point x="181" y="486" type="line"/>
      <point x="192" y="486" type="line" smooth="yes"/>
      <point x="230" y="485"/>
      <point x="234" y="484"/>
      <point x="234" y="467" type="curve" smooth="yes"/>
      <point x="234" y="444" type="line"/>
      <point x="234" y="225" type="line"/>
      <point x="234" y="212" type="line"/>
      <point x="234" y="200" type="line" smooth="yes"/>
      <point x="234" y="194"/>
      <point x="233" y="191"/>
      <point x="231" y="189" type="curve" smooth="yes"/>
      <point x="227" y="185"/>
      <point x="218" y="183"/>
      <point x="192" y="183" type="curve" smooth="yes"/>
      <point x="181" y="183" type="line"/>
      <point x="181" y="148" type="line"/>
      <point x="391" y="148" type="line"/>
      <point x="391" y="183" type="line"/>
      <point x="374" y="183" type="line" smooth="yes"/>
      <point x="349" y="183"/>
      <point x="339" y="185"/>
      <point x="336" y="189" type="curve" smooth="yes"/>
      <point x="333" y="193"/>
      <point x="333" y="194"/>
      <point x="333" y="225" type="curve" smooth="yes"/>
    </contour>
    <contour>
      <point x="333" y="358" type="line"/>
      <point x="333" y="457" type="line" smooth="yes"/>
      <point x="333" y="483"/>
      <point x="335" y="485"/>
      <point x="365" y="486" type="curve" smooth="yes"/>
      <point x="377" y="486" type="line" smooth="yes"/>
      <point x="422" y="486"/>
      <point x="441" y="467"/>
      <point x="441" y="422" type="curve" smooth="yes"/>
      <point x="441" y="373"/>
      <point x="421" y="358"/>
      <point x="357" y="358" type="curve" smooth="yes"/>
    </contour>
    <contour>
      <point x="373" y="685" type="curve" smooth="yes"/>
      <point x="180" y="685"/>
      <point x="23" y="528"/>
      <point x="23" y="335" type="curve" smooth="yes"/>
      <point x="23" y="144"/>
      <point x="180" y="-15"/>
      <point x="369" y="-15" type="curve" smooth="yes"/>
      <point x="567" y="-15"/>
      <point x="723" y="140"/>
      <point x="723" y="336" type="curve" smooth="yes"/>
      <point x="723" y="528"/>
      <point x="566" y="685"/>
    </contour>
    <contour>
      <point x="374" y="633" type="curve" smooth="yes"/>
      <point x="534" y="633"/>
      <point x="664" y="499"/>
      <point x="664" y="336" type="curve" smooth="yes"/>
      <point x="664" y="169"/>
      <point x="534" y="37"/>
      <point x="370" y="37" type="curve" smooth="yes"/>
      <point x="214" y="37"/>
      <point x="83" y="173"/>
      <point x="83" y="335" type="curve" smooth="yes"/>
      <point x="83" y="500"/>
      <point x="213" y="633"/>
    </contour>
  </outline>
</glyph>
<glyph name="macron" format="2">
  <advance width="333"/>
  <unicode hex="00AF"/>
  <outline>
    <contour>
      <point x="171" y="642" type="line"/>
      <point x="150" y="566" type="line"/>
      <point x="484" y="566" type="line"/>
      <point x="505" y="642" type="line"/>
    </contour>
  </outline>
</glyph>
<glyph name="degree" format="2">
  <advance width="400"/>
  <unicode hex="00B0"/>
  <outline>
    <contour>
      <point x="224" y="686" type="curve" smooth="yes"/>
      <point x="137" y="686"/>
      <point x="70" y="619"/>
      <point x="70" y="534" type="curve" smooth="yes"/>
      <point x="70" y="447"/>
      <point x="136" y="380"/>
      <point x="220" y="380" type="curve" smooth="yes"/>
      <point x="304" y="380"/>
      <point x="370" y="447"/>
      <point x="370" y="533" type="curve" smooth="yes"/>
      <point x="370" y="619"/>
      <point x="306" y="686"/>
    </contour>
    <contour>
      <point x="222" y="629" type="curve" smooth="yes"/>
      <point x="272" y="629"/>
      <point x="313" y="586"/>
      <point x="313" y="533" type="curve" smooth="yes"/>
      <point x="313" y="479"/>
      <point x="272" y="437"/>
      <point x="220" y="437" type="curve" smooth="yes"/>
      <point x="168" y="437"/>
      <point x="126" y="480"/>
      <point x="126" y="532" type="curve" smooth="yes"/>
      <point x="126" y="587"/>
      <point x="168" y="629"/>
    </contour>
  </outline>
</glyph>
<glyph name="twosuperior" format="2">
  <advance width="344"/>
  <unicode hex="00B2"/>
  <outline>
    <contour>
      <point x="306" y="436" type="line"/>
      <point x="298" y="422" type="line"/>
      <point x="275" y="376"/>
      <point x="265" y="369"/>
      <point x="221" y="368" type="curve" smooth="yes"/>
      <point x="102" y="368" type="line"/>
      <point x="155" y="401"/>
      <point x="169" y="410"/>
      <point x="217" y="436" type="curve" smooth="yes"/>
      <point x="269" y="464"/>
      <point x="287" y="476"/>
      <point x="311" y="497" type="curve" smooth="yes"/>
      <point x="342" y="526"/>
      <point x="360" y="561"/>
      <point x="360" y="594" type="curve" smooth="yes"/>
      <point x="360" y="660"/>
      <point x="302" y="705"/>
      <point x="215" y="705" type="curve" smooth="yes"/>
      <point x="121" y="705"/>
      <point x="51" y="652"/>
      <point x="51" y="579" type="curve" smooth="yes"/>
      <point x="51" y="539"/>
      <point x="79" y="510"/>
      <point x="118" y="510" type="curve" smooth="yes"/>
      <point x="152" y="510"/>
      <point x="174" y="530"/>
      <point x="174" y="561" type="curve" smooth="yes"/>
      <point x="174" y="583"/>
      <point x="163" y="597"/>
      <point x="138" y="606" type="curve"/>
      <point x="118" y="615"/>
      <point x="114" y="618"/>
      <point x="114" y="626" type="curve" smooth="yes"/>
      <point x="114" y="644"/>
      <point x="146" y="662"/>
      <point x="177" y="662" type="curve" smooth="yes"/>
      <point x="219" y="662"/>
      <point x="247" y="637"/>
      <point x="247" y="599" type="curve" smooth="yes"/>
      <point x="247" y="572"/>
      <point x="234" y="542"/>
      <point x="211" y="515" type="curve" smooth="yes"/>
      <point x="192" y="492"/>
      <point x="161" y="465"/>
      <point x="98" y="414" type="curve" smooth="yes"/>
      <point x="9" y="342"/>
      <point x="-16" y="315"/>
      <point x="-16" y="287" type="curve" smooth="yes"/>
      <point x="-16" y="282" type="line"/>
      <point x="285" y="282" type="line"/>
      <point x="340" y="425" type="line"/>
    </contour>
  </outline>
</glyph>
<glyph name="threesuperior" format="2">
  <advance width="344"/>
  <unicode hex="00B3"/>
  <outline>
    <contour>
      <point x="237" y="498" type="curve"/>
      <point x="308" y="514"/>
      <point x="348" y="553"/>
      <point x="348" y="606" type="curve" smooth="yes"/>
      <point x="348" y="664"/>
      <point x="290" y="705"/>
      <point x="206" y="705" type="curve" smooth="yes"/>
      <point x="125" y="705"/>
      <point x="61" y="662"/>
      <point x="61" y="608" type="curve" smooth="yes"/>
      <point x="61" y="576"/>
      <point x="84" y="553"/>
      <point x="118" y="553" type="curve" smooth="yes"/>
      <point x="147" y="553"/>
      <point x="171" y="573"/>
      <point x="171" y="598" type="curve" smooth="yes"/>
      <point x="171" y="615"/>
      <point x="162" y="629"/>
      <point x="142" y="642" type="curve" smooth="yes"/>
      <point x="139" y="644"/>
      <point x="138" y="645"/>
      <point x="138" y="647" type="curve" smooth="yes"/>
      <point x="138" y="657"/>
      <point x="162" y="667"/>
      <point x="186" y="667" type="curve" smooth="yes"/>
      <point x="220" y="667"/>
      <point x="240" y="646"/>
      <point x="240" y="610" type="curve" smooth="yes"/>
      <point x="240" y="560"/>
      <point x="206" y="516"/>
      <point x="167" y="516" type="curve" smooth="yes"/>
      <point x="160" y="516"/>
      <point x="157" y="517"/>
      <point x="148" y="520" type="curve"/>
      <point x="140" y="522"/>
      <point x="136" y="523"/>
      <point x="130" y="523" type="curve" smooth="yes"/>
      <point x="115" y="523"/>
      <point x="105" y="513"/>
      <point x="105" y="499" type="curve" smooth="yes"/>
      <point x="105" y="484"/>
      <point x="114" y="476"/>
      <point x="131" y="476" type="curve" smooth="yes"/>
      <point x="136" y="476"/>
      <point x="140" y="477"/>
      <point x="146" y="478" type="curve" smooth="yes"/>
      <point x="160" y="481"/>
      <point x="160" y="481"/>
      <point x="166" y="481" type="curve" smooth="yes"/>
      <point x="192" y="481"/>
      <point x="207" y="462"/>
      <point x="207" y="426" type="curve" smooth="yes"/>
      <point x="207" y="355"/>
      <point x="173" y="309"/>
      <point x="121" y="309" type="curve" smooth="yes"/>
      <point x="96" y="309"/>
      <point x="68" y="322"/>
      <point x="68" y="335" type="curve" smooth="yes"/>
      <point x="68" y="338"/>
      <point x="69" y="339"/>
      <point x="72" y="340" type="curve" smooth="yes"/>
      <point x="102" y="349"/>
      <point x="114" y="362"/>
      <point x="114" y="386" type="curve" smooth="yes"/>
      <point x="114" y="415"/>
      <point x="91" y="435"/>
      <point x="59" y="435" type="curve" smooth="yes"/>
      <point x="22" y="435"/>
      <point x="-4" y="409"/>
      <point x="-4" y="373" type="curve" smooth="yes"/>
      <point x="-4" y="312"/>
      <point x="52" y="273"/>
      <point x="139" y="273" type="curve" smooth="yes"/>
      <point x="243" y="273"/>
      <point x="320" y="330"/>
      <point x="320" y="408" type="curve" smooth="yes"/>
      <point x="320" y="437"/>
      <point x="304" y="467"/>
      <point x="280" y="481" type="curve" smooth="yes"/>
      <point x="269" y="488"/>
      <point x="258" y="492"/>
    </contour>
  </outline>
</glyph>
<glyph name="acute" format="2">
  <advance width="333"/>
  <unicode hex="00B4"/>
  <outline>
    <contour>
      <point x="173" y="535" type="line"/>
      <point x="227" y="535" type="line"/>
      <point x="393" y="623" type="line" smooth="yes"/>
      <point x="411" y="633"/>
      <point x="421" y="648"/>
      <point x="421" y="667" type="curve" smooth="yes"/>
      <point x="421" y="696"/>
      <point x="397" y="719"/>
      <point x="367" y="719" type="curve" smooth="yes"/>
      <point x="343" y="719"/>
      <point x="331" y="711"/>
      <point x="297" y="674" type="curve" smooth="yes"/>
    </contour>
  </outline>
</glyph>
<glyph name="mu" format="2">
  <advance width="685"/>
  <unicode hex="00B5"/>
  <outline>
    <contour>
      <point x="39" y="416" type="line"/>
      <point x="49" y="416" type="line" smooth="yes"/>
      <point x="99" y="416"/>
      <point x="110" y="410"/>
      <point x="110" y="385" type="curve" smooth="yes"/>
      <point x="110" y="375"/>
      <point x="106" y="357"/>
      <point x="94" y="319" type="curve" smooth="yes"/>
      <point x="6" y="20" type="line" smooth="yes"/>
      <point x="0" y="0"/>
      <point x="-13" y="-26"/>
      <point x="-34" y="-56" type="curve" smooth="yes"/>
      <point x="-83" y="-128"/>
      <point x="-90" y="-142"/>
      <point x="-90" y="-171" type="curve" smooth="yes"/>
      <point x="-90" y="-199"/>
      <point x="-66" y="-219"/>
      <point x="-32" y="-219" type="curve" smooth="yes"/>
      <point x="23" y="-219"/>
      <point x="69" y="-172"/>
      <point x="69" y="-117" type="curve" smooth="yes"/>
      <point x="69" y="-103"/>
      <point x="67" y="-82"/>
      <point x="63" y="-53" type="curve" smooth="yes"/>
      <point x="61" y="-38"/>
      <point x="60" y="-28"/>
      <point x="60" y="-21" type="curve" smooth="yes"/>
      <point x="60" y="-9"/>
      <point x="62" y="5"/>
      <point x="68" y="23" type="curve"/>
      <point x="88" y="-1"/>
      <point x="115" y="-14"/>
      <point x="148" y="-14" type="curve" smooth="yes"/>
      <point x="212" y="-14"/>
      <point x="267" y="20"/>
      <point x="331" y="97" type="curve"/>
      <point x="330" y="86"/>
      <point x="330" y="80"/>
      <point x="330" y="70" type="curve" smooth="yes"/>
      <point x="330" y="15"/>
      <point x="364" y="-14"/>
      <point x="427" y="-14" type="curve" smooth="yes"/>
      <point x="503" y="-14"/>
      <point x="562" y="33"/>
      <point x="639" y="152" type="curve"/>
      <point x="601" y="180" type="line"/>
      <point x="557" y="112"/>
      <point x="519" y="71"/>
      <point x="502" y="71" type="curve" smooth="yes"/>
      <point x="494" y="71"/>
      <point x="488" y="78"/>
      <point x="488" y="85" type="curve" smooth="yes"/>
      <point x="488" y="96"/>
      <point x="488" y="96"/>
      <point x="504" y="152" type="curve" smooth="yes"/>
      <point x="597" y="463" type="line"/>
      <point x="439" y="463" type="line"/>
      <point x="391" y="299" type="line" smooth="yes"/>
      <point x="375" y="246"/>
      <point x="353" y="200"/>
      <point x="323" y="159" type="curve" smooth="yes"/>
      <point x="287" y="108"/>
      <point x="239" y="70"/>
      <point x="212" y="70" type="curve" smooth="yes"/>
      <point x="200" y="70"/>
      <point x="188" y="82"/>
      <point x="188" y="95" type="curve" smooth="yes"/>
      <point x="188" y="98"/>
      <point x="189" y="103"/>
      <point x="190" y="109" type="curve"/>
      <point x="193" y="117"/>
      <point x="195" y="125"/>
      <point x="197" y="132" type="curve" smooth="yes"/>
      <point x="202" y="150"/>
      <point x="206" y="165"/>
      <point x="209" y="173" type="curve"/>
      <point x="299" y="477" type="line"/>
      <point x="45" y="463" type="line"/>
    </contour>
  </outline>
</glyph>
<glyph name="paragraph" format="2">
  <advance width="650"/>
  <unicode hex="00B6"/>
  <outline>
    <contour>
      <point x="164" y="-3" type="line" smooth="yes"/>
      <point x="160" y="-18"/>
      <point x="157" y="-33"/>
      <point x="153" y="-46" type="curve"/>
      <point x="149" y="-57"/>
      <point x="147" y="-64"/>
      <point x="145" y="-68" type="curve" smooth="yes"/>
      <point x="139" y="-80"/>
      <point x="116" y="-89"/>
      <point x="88" y="-90" type="curve" smooth="yes"/>
      <point x="82" y="-90" type="line"/>
      <point x="67" y="-144" type="line"/>
      <point x="432" y="-144" type="line"/>
      <point x="446" y="-90" type="line"/>
      <point x="440" y="-90" type="line" smooth="yes"/>
      <point x="406" y="-90"/>
      <point x="390" y="-83"/>
      <point x="390" y="-68" type="curve" smooth="yes"/>
      <point x="390" y="-59"/>
      <point x="390" y="-59"/>
      <point x="404" y="-3" type="curve" smooth="yes"/>
      <point x="561" y="582" type="line"/>
      <point x="565" y="594"/>
      <point x="568" y="607"/>
      <point x="571" y="620" type="curve"/>
      <point x="574" y="628" type="line"/>
      <point x="578" y="643"/>
      <point x="581" y="649"/>
      <point x="587" y="654" type="curve" smooth="yes"/>
      <point x="596" y="662"/>
      <point x="605" y="664"/>
      <point x="643" y="668" type="curve"/>
      <point x="646" y="668" type="line"/>
      <point x="661" y="722" type="line"/>
      <point x="372" y="722" type="line" smooth="yes"/>
      <point x="282" y="722"/>
      <point x="222" y="704"/>
      <point x="172" y="662" type="curve" smooth="yes"/>
      <point x="118" y="616"/>
      <point x="78" y="533"/>
      <point x="78" y="465" type="curve" smooth="yes"/>
      <point x="78" y="374"/>
      <point x="139" y="325"/>
      <point x="252" y="325" type="curve"/>
    </contour>
    <contour>
      <point x="483" y="668" type="line"/>
      <point x="280" y="-89" type="line"/>
      <point x="242" y="-89" type="line"/>
      <point x="445" y="668" type="line"/>
    </contour>
    <contour>
      <point x="269" y="384" type="line"/>
      <point x="257" y="384" type="line" smooth="yes"/>
      <point x="219" y="384"/>
      <point x="204" y="400"/>
      <point x="204" y="442" type="curve" smooth="yes"/>
      <point x="204" y="457"/>
      <point x="206" y="476"/>
      <point x="211" y="491" type="curve"/>
      <point x="230" y="562" type="line" smooth="yes"/>
      <point x="250" y="640"/>
      <point x="283" y="670"/>
      <point x="345" y="668" type="curve"/>
    </contour>
  </outline>
</glyph>
<glyph name="onesuperior" format="2">
  <advance width="344"/>
  <unicode hex="00B9"/>
  <outline>
    <contour>
      <point x="323" y="706" type="line"/>
      <point x="292" y="706" type="line"/>
      <point x="262" y="685"/>
      <point x="176" y="665"/>
      <point x="112" y="663" type="curve"/>
      <point x="102" y="627" type="line"/>
      <point x="164" y="627" type="line" smooth="yes"/>
      <point x="184" y="627"/>
      <point x="190" y="624"/>
      <point x="190" y="614" type="curve" smooth="yes"/>
      <point x="190" y="609"/>
      <point x="189" y="601"/>
      <point x="186" y="592" type="curve"/>
      <point x="125" y="371" type="line" smooth="yes"/>
      <point x="120" y="353"/>
      <point x="119" y="348"/>
      <point x="117" y="341" type="curve"/>
      <point x="114" y="334"/>
      <point x="113" y="330"/>
      <point x="110" y="328" type="curve"/>
      <point x="106" y="323"/>
      <point x="91" y="321"/>
      <point x="63" y="321" type="curve" smooth="yes"/>
      <point x="26" y="321" type="line"/>
      <point x="21" y="282" type="line"/>
      <point x="294" y="282" type="line"/>
      <point x="299" y="321" type="line"/>
      <point x="271" y="321" type="line" smooth="yes"/>
      <point x="230" y="321"/>
      <point x="222" y="323"/>
      <point x="222" y="335" type="curve" smooth="yes"/>
      <point x="222" y="340"/>
      <point x="222" y="341"/>
      <point x="230" y="371" type="curve" smooth="yes"/>
    </contour>
  </outline>
</glyph>
<glyph name="ordmasculine" format="2">
  <advance width="356"/>
  <unicode hex="00BA"/>
  <outline>
    <contour>
      <point x="239" y="737" type="curve" smooth="yes"/>
      <point x="125" y="737"/>
      <point x="29" y="657"/>
      <point x="29" y="562" type="curve" smooth="yes"/>
      <point x="29" y="487"/>
      <point x="83" y="441"/>
      <point x="170" y="441" type="curve" smooth="yes"/>
      <point x="291" y="441"/>
      <point x="383" y="519"/>
      <point x="383" y="621" type="curve" smooth="yes"/>
      <point x="383" y="692"/>
      <point x="327" y="737"/>
    </contour>
    <contour>
      <point x="237" y="709" type="curve" smooth="yes"/>
      <point x="263" y="709"/>
      <point x="280" y="691"/>
      <point x="280" y="663" type="curve" smooth="yes"/>
      <point x="280" y="630"/>
      <point x="266" y="573"/>
      <point x="247" y="530" type="curve" smooth="yes"/>
      <point x="228" y="488"/>
      <point x="205" y="467"/>
      <point x="175" y="467" type="curve" smooth="yes"/>
      <point x="148" y="467"/>
      <point x="133" y="484"/>
      <point x="133" y="515" type="curve" smooth="yes"/>
      <point x="133" y="551"/>
      <point x="146" y="605"/>
      <point x="163" y="643" type="curve" smooth="yes"/>
      <point x="183" y="686"/>
      <point x="208" y="709"/>
    </contour>
  </outline>
</glyph>
<glyph name="onequarter" format="2">
  <advance width="861"/>
  <unicode hex="00BC"/>
  <outline>
    <contour>
      <point x="601" y="722" type="line"/>
      <point x="181" y="0" type="line"/>
      <point x="261" y="0" type="line"/>
      <point x="680" y="722" type="line"/>
    </contour>
    <contour>
      <point x="819" y="155" type="line"/>
      <point x="748" y="155" type="line"/>
      <point x="826" y="424" type="line"/>
      <point x="760" y="424" type="line"/>
      <point x="467" y="147" type="line"/>
      <point x="467" y="109" type="line"/>
      <point x="633" y="109" type="line"/>
      <point x="628" y="90" type="line"/>
      <point x="623" y="75" type="line"/>
      <point x="621" y="67"/>
      <point x="620" y="62"/>
      <point x="619" y="60" type="curve"/>
      <point x="616" y="52"/>
      <point x="615" y="49"/>
      <point x="612" y="46" type="curve" smooth="yes"/>
      <point x="607" y="41"/>
      <point x="593" y="39"/>
      <point x="566" y="39" type="curve" smooth="yes"/>
      <point x="548" y="39" type="line"/>
      <point x="542" y="0" type="line"/>
      <point x="777" y="0" type="line"/>
      <point x="783" y="39" type="line"/>
      <point x="768" y="39" type="line" smooth="yes"/>
      <point x="729" y="39"/>
      <point x="721" y="41"/>
      <point x="721" y="52" type="curve" smooth="yes"/>
      <point x="721" y="56"/>
      <point x="723" y="67"/>
      <point x="729" y="88" type="curve" smooth="yes"/>
      <point x="735" y="109" type="line"/>
      <point x="811" y="109" type="line"/>
    </contour>
    <contour>
      <point x="646" y="155" type="line"/>
      <point x="535" y="155" type="line"/>
      <point x="688" y="303" type="line"/>
    </contour>
    <contour>
      <point x="323" y="706" type="line"/>
      <point x="292" y="706" type="line"/>
      <point x="262" y="685"/>
      <point x="176" y="665"/>
      <point x="112" y="663" type="curve"/>
      <point x="102" y="627" type="line"/>
      <point x="164" y="627" type="line" smooth="yes"/>
      <point x="184" y="627"/>
      <point x="190" y="624"/>
      <point x="190" y="614" type="curve" smooth="yes"/>
      <point x="190" y="609"/>
      <point x="189" y="601"/>
      <point x="186" y="592" type="curve"/>
      <point x="125" y="371" type="line" smooth="yes"/>
      <point x="120" y="353"/>
      <point x="119" y="348"/>
      <point x="117" y="341" type="curve"/>
      <point x="114" y="334"/>
      <point x="113" y="330"/>
      <point x="110" y="328" type="curve"/>
      <point x="106" y="323"/>
      <point x="91" y="321"/>
      <point x="63" y="321" type="curve" smooth="yes"/>
      <point x="26" y="321" type="line"/>
      <point x="21" y="282" type="line"/>
      <point x="294" y="282" type="line"/>
      <point x="299" y="321" type="line"/>
      <point x="271" y="321" type="line" smooth="yes"/>
      <point x="230" y="321"/>
      <point x="222" y="323"/>
      <point x="222" y="335" type="curve" smooth="yes"/>
      <point x="222" y="340"/>
      <point x="222" y="341"/>
      <point x="230" y="371" type="curve" smooth="yes"/>
    </contour>
  </outline>
</glyph>
<glyph name="onehalf" format="2">
  <advance width="861"/>
  <unicode hex="00BD"/>
  <outline>
    <contour>
      <point x="605" y="722" type="line"/>
      <point x="186" y="0" type="line"/>
      <point x="265" y="0" type="line"/>
      <point x="685" y="722" type="line"/>
    </contour>
    <contour>
      <point x="323" y="706" type="line"/>
      <point x="292" y="706" type="line"/>
      <point x="262" y="685"/>
      <point x="176" y="665"/>
      <point x="112" y="663" type="curve"/>
      <point x="102" y="627" type="line"/>
      <point x="164" y="627" type="line" smooth="yes"/>
      <point x="184" y="627"/>
      <point x="190" y="624"/>
      <point x="190" y="614" type="curve" smooth="yes"/>
      <point x="190" y="609"/>
      <point x="189" y="601"/>
      <point x="186" y="592" type="curve"/>
      <point x="125" y="371" type="line" smooth="yes"/>
      <point x="120" y="353"/>
      <point x="119" y="348"/>
      <point x="117" y="341" type="curve"/>
      <point x="114" y="334"/>
      <point x="113" y="330"/>
      <point x="110" y="328" type="curve"/>
      <point x="106" y="323"/>
      <point x="91" y="321"/>
      <point x="63" y="321" type="curve" smooth="yes"/>
      <point x="26" y="321" type="line"/>
      <point x="21" y="282" type="line"/>
      <point x="294" y="282" type="line"/>
      <point x="299" y="321" type="line"/>
      <point x="271" y="321" type="line" smooth="yes"/>
      <point x="230" y="321"/>
      <point x="222" y="323"/>
      <point x="222" y="335" type="curve" smooth="yes"/>
      <point x="222" y="340"/>
      <point x="222" y="341"/>
      <point x="230" y="371" type="curve" smooth="yes"/>
    </contour>
    <contour>
      <point x="803" y="154" type="line"/>
      <point x="795" y="139" type="line" smooth="yes"/>
      <point x="771" y="94"/>
      <point x="762" y="87"/>
      <point x="718" y="86" type="curve" smooth="yes"/>
      <point x="599" y="86" type="line"/>
      <point x="651" y="119"/>
      <point x="665" y="127"/>
      <point x="714" y="154" type="curve" smooth="yes"/>
      <point x="766" y="181"/>
      <point x="784" y="193"/>
      <point x="808" y="215" type="curve" smooth="yes"/>
      <point x="839" y="244"/>
      <point x="857" y="278"/>
      <point x="857" y="311" type="curve" smooth="yes"/>
      <point x="857" y="377"/>
      <point x="799" y="422"/>
      <point x="712" y="422" type="curve" smooth="yes"/>
      <point x="618" y="422"/>
      <point x="548" y="369"/>
      <point x="548" y="297" type="curve" smooth="yes"/>
      <point x="548" y="257"/>
      <point x="576" y="228"/>
      <point x="615" y="228" type="curve" smooth="yes"/>
      <point x="649" y="228"/>
      <point x="671" y="248"/>
      <point x="671" y="279" type="curve" smooth="yes"/>
      <point x="671" y="300"/>
      <point x="660" y="314"/>
      <point x="635" y="324" type="curve" smooth="yes"/>
      <point x="614" y="332"/>
      <point x="611" y="335"/>
      <point x="611" y="343" type="curve" smooth="yes"/>
      <point x="611" y="361"/>
      <point x="643" y="379"/>
      <point x="674" y="379" type="curve" smooth="yes"/>
      <point x="716" y="379"/>
      <point x="744" y="354"/>
      <point x="744" y="316" type="curve" smooth="yes"/>
      <point x="744" y="289"/>
      <point x="731" y="259"/>
      <point x="708" y="232" type="curve" smooth="yes"/>
      <point x="689" y="210"/>
      <point x="656" y="181"/>
      <point x="595" y="132" type="curve" smooth="yes"/>
      <point x="502" y="57"/>
      <point x="477" y="28"/>
      <point x="481" y="0" type="curve"/>
      <point x="782" y="0" type="line"/>
      <point x="837" y="143" type="line"/>
    </contour>
  </outline>
</glyph>
<glyph name="threequarters" format="2">
  <advance width="861"/>
  <unicode hex="00BE"/>
  <outline>
    <contour>
      <point x="615" y="722" type="line"/>
      <point x="195" y="0" type="line"/>
      <point x="275" y="0" type="line"/>
      <point x="694" y="722" type="line"/>
    </contour>
    <contour>
      <point x="819" y="155" type="line"/>
      <point x="748" y="155" type="line"/>
      <point x="826" y="424" type="line"/>
      <point x="760" y="424" type="line"/>
      <point x="467" y="147" type="line"/>
      <point x="467" y="109" type="line"/>
      <point x="633" y="109" type="line"/>
      <point x="628" y="90" type="line"/>
      <point x="623" y="75" type="line"/>
      <point x="621" y="67"/>
      <point x="620" y="62"/>
      <point x="619" y="60" type="curve"/>
      <point x="616" y="52"/>
      <point x="615" y="49"/>
      <point x="612" y="46" type="curve" smooth="yes"/>
      <point x="607" y="41"/>
      <point x="594" y="39"/>
      <point x="566" y="39" type="curve" smooth="yes"/>
      <point x="548" y="39" type="line"/>
      <point x="542" y="0" type="line"/>
      <point x="777" y="0" type="line"/>
      <point x="783" y="39" type="line"/>
      <point x="768" y="39" type="line" smooth="yes"/>
      <point x="728" y="39"/>
      <point x="721" y="41"/>
      <point x="721" y="52" type="curve" smooth="yes"/>
      <point x="721" y="57"/>
      <point x="723" y="65"/>
      <point x="729" y="88" type="curve" smooth="yes"/>
      <point x="735" y="109" type="line"/>
      <point x="811" y="109" type="line"/>
    </contour>
    <contour>
      <point x="646" y="155" type="line"/>
      <point x="535" y="155" type="line"/>
      <point x="688" y="303" type="line"/>
    </contour>
    <contour>
      <point x="237" y="498" type="curve"/>
      <point x="308" y="514"/>
      <point x="348" y="553"/>
      <point x="348" y="606" type="curve" smooth="yes"/>
      <point x="348" y="664"/>
      <point x="290" y="705"/>
      <point x="206" y="705" type="curve" smooth="yes"/>
      <point x="125" y="705"/>
      <point x="61" y="662"/>
      <point x="61" y="608" type="curve" smooth="yes"/>
      <point x="61" y="576"/>
      <point x="84" y="553"/>
      <point x="118" y="553" type="curve" smooth="yes"/>
      <point x="147" y="553"/>
      <point x="171" y="573"/>
      <point x="171" y="598" type="curve" smooth="yes"/>
      <point x="171" y="615"/>
      <point x="162" y="629"/>
      <point x="142" y="642" type="curve" smooth="yes"/>
      <point x="139" y="644"/>
      <point x="138" y="645"/>
      <point x="138" y="647" type="curve" smooth="yes"/>
      <point x="138" y="657"/>
      <point x="162" y="667"/>
      <point x="186" y="667" type="curve" smooth="yes"/>
      <point x="220" y="667"/>
      <point x="240" y="646"/>
      <point x="240" y="610" type="curve" smooth="yes"/>
      <point x="240" y="560"/>
      <point x="206" y="516"/>
      <point x="167" y="516" type="curve" smooth="yes"/>
      <point x="160" y="516"/>
      <point x="157" y="517"/>
      <point x="148" y="520" type="curve"/>
      <point x="140" y="522"/>
      <point x="136" y="523"/>
      <point x="130" y="523" type="curve" smooth="yes"/>
      <point x="115" y="523"/>
      <point x="105" y="513"/>
      <point x="105" y="499" type="curve" smooth="yes"/>
      <point x="105" y="484"/>
      <point x="114" y="476"/>
      <point x="131" y="476" type="curve" smooth="yes"/>
      <point x="136" y="476"/>
      <point x="140" y="477"/>
      <point x="146" y="478" type="curve" smooth="yes"/>
      <point x="160" y="481"/>
      <point x="160" y="481"/>
      <point x="166" y="481" type="curve" smooth="yes"/>
      <point x="192" y="481"/>
      <point x="207" y="462"/>
      <point x="207" y="426" type="curve" smooth="yes"/>
      <point x="207" y="355"/>
      <point x="173" y="309"/>
      <point x="121" y="309" type="curve" smooth="yes"/>
      <point x="96" y="309"/>
      <point x="68" y="322"/>
      <point x="68" y="335" type="curve" smooth="yes"/>
      <point x="68" y="338"/>
      <point x="69" y="339"/>
      <point x="72" y="340" type="curve" smooth="yes"/>
      <point x="102" y="349"/>
      <point x="114" y="362"/>
      <point x="114" y="386" type="curve" smooth="yes"/>
      <point x="114" y="415"/>
      <point x="91" y="435"/>
      <point x="59" y="435" type="curve" smooth="yes"/>
      <point x="22" y="435"/>
      <point x="-4" y="409"/>
      <point x="-4" y="373" type="curve" smooth="yes"/>
      <point x="-4" y="312"/>
      <point x="52" y="273"/>
      <point x="139" y="273" type="curve" smooth="yes"/>
      <point x="243" y="273"/>
      <point x="320" y="330"/>
      <point x="320" y="408" type="curve" smooth="yes"/>
      <point x="320" y="437"/>
      <point x="304" y="467"/>
      <point x="280" y="481" type="curve" smooth="yes"/>
      <point x="269" y="488"/>
      <point x="258" y="492"/>
    </contour>
  </outline>
</glyph>
<glyph name="Aacute" format="2">
  <advance width="741"/>
  <unicode hex="00C1"/>
  <outline>
    <component base="A"/>
    <contour>
      <point x="377" y="774" type="line"/>
      <point x="431" y="774" type="line"/>
      <point x="596" y="862" type="line" smooth="yes"/>
      <point x="615" y="872"/>
      <point x="625" y="888"/>
      <point x="625" y="906" type="curve" smooth="yes"/>
      <point x="625" y="935"/>
      <point x="601" y="958"/>
      <point x="571" y="958" type="curve" smooth="yes"/>
      <point x="547" y="958"/>
      <point x="534" y="950"/>
      <point x="501" y="913" type="curve" smooth="yes"/>
    </contour>
  </outline>
</glyph>
<glyph name="Acircumflex" format="2">
  <advance width="741"/>
  <unicode hex="00C2"/>
  <outline>
    <component base="A"/>
    <contour>
      <point x="275" y="774" type="line"/>
      <point x="342" y="774" type="line"/>
      <point x="468" y="862" type="line"/>
      <point x="558" y="774" type="line"/>
      <point x="617" y="774" type="line"/>
      <point x="533" y="950" type="line"/>
      <point x="432" y="950" type="line"/>
    </contour>
  </outline>
</glyph>
<glyph name="Atilde" format="2">
  <advance width="741"/>
  <unicode hex="00C3"/>
  <outline>
    <component base="A"/>
    <contour>
      <point x="591" y="922" type="line"/>
      <point x="583" y="895"/>
      <point x="566" y="882"/>
      <point x="541" y="882" type="curve" smooth="yes"/>
      <point x="526" y="882"/>
      <point x="519" y="884"/>
      <point x="471" y="903" type="curve" smooth="yes"/>
      <point x="438" y="916"/>
      <point x="413" y="922"/>
      <point x="392" y="922" type="curve" smooth="yes"/>
      <point x="326" y="922"/>
      <point x="273" y="869"/>
      <point x="268" y="796" type="curve"/>
      <point x="315" y="796" type="line"/>
      <point x="320" y="823"/>
      <point x="335" y="838"/>
      <point x="357" y="838" type="curve" smooth="yes"/>
      <point x="372" y="838"/>
      <point x="385" y="834"/>
      <point x="429" y="817" type="curve" smooth="yes"/>
      <point x="468" y="802"/>
      <point x="493" y="796"/>
      <point x="515" y="796" type="curve" smooth="yes"/>
      <point x="577" y="796"/>
      <point x="635" y="855"/>
      <point x="638" y="922" type="curve"/>
    </contour>
  </outline>
</glyph>
<glyph name="Adieresis" format="2">
  <advance width="741"/>
  <unicode hex="00C4"/>
  <outline>
    <component base="A"/>
    <contour>
      <point x="345" y="933" type="curve" smooth="yes"/>
      <point x="305" y="933"/>
      <point x="273" y="901"/>
      <point x="273" y="862" type="curve" smooth="yes"/>
      <point x="273" y="822"/>
      <point x="305" y="790"/>
      <point x="344" y="790" type="curve" smooth="yes"/>
      <point x="384" y="790"/>
      <point x="416" y="821"/>
      <point x="416" y="862" type="curve" smooth="yes"/>
      <point x="416" y="901"/>
      <point x="384" y="933"/>
    </contour>
    <contour>
      <point x="560" y="933" type="curve" smooth="yes"/>
      <point x="520" y="933"/>
      <point x="488" y="901"/>
      <point x="488" y="862" type="curve" smooth="yes"/>
      <point x="488" y="822"/>
      <point x="520" y="790"/>
      <point x="559" y="790" type="curve" smooth="yes"/>
      <point x="599" y="790"/>
      <point x="631" y="821"/>
      <point x="631" y="862" type="curve" smooth="yes"/>
      <point x="631" y="901"/>
      <point x="599" y="933"/>
    </contour>
  </outline>
</glyph>
<glyph name="Aring" format="2">
  <advance width="741"/>
  <unicode hex="00C5"/>
  <outline>
    <component base="A"/>
    <contour>
      <point x="466" y="998" type="curve" smooth="yes"/>
      <point x="406" y="998"/>
      <point x="358" y="950"/>
      <point x="358" y="891" type="curve" smooth="yes"/>
      <point x="358" y="832"/>
      <point x="406" y="783"/>
      <point x="464" y="783" type="curve" smooth="yes"/>
      <point x="525" y="783"/>
      <point x="573" y="830"/>
      <point x="573" y="891" type="curve" smooth="yes"/>
      <point x="573" y="950"/>
      <point x="525" y="998"/>
    </contour>
    <contour>
      <point x="466" y="944" type="curve" smooth="yes"/>
      <point x="495" y="944"/>
      <point x="519" y="920"/>
      <point x="519" y="891" type="curve" smooth="yes"/>
      <point x="519" y="861"/>
      <point x="495" y="837"/>
      <point x="465" y="837" type="curve" smooth="yes"/>
      <point x="436" y="837"/>
      <point x="412" y="862"/>
      <point x="412" y="890" type="curve" smooth="yes"/>
      <point x="412" y="920"/>
      <point x="436" y="944"/>
    </contour>
  </outline>
</glyph>
<glyph name="AE" format="2">
  <advance width="889"/>
  <unicode hex="00C6"/>
  <outline>
    <contour>
      <point x="903" y="722" type="line"/>
      <point x="215" y="722" type="line"/>
      <point x="208" y="668" type="line"/>
      <point x="239" y="668" type="line" smooth="yes"/>
      <point x="283" y="668"/>
      <point x="311" y="651"/>
      <point x="311" y="624" type="curve" smooth="yes"/>
      <point x="311" y="609"/>
      <point x="305" y="593"/>
      <point x="291" y="572" type="curve" smooth="yes"/>
      <point x="-3" y="122" type="line" smooth="yes"/>
      <point x="-36" y="70"/>
      <point x="-46" y="60"/>
      <point x="-74" y="54" type="curve"/>
      <point x="-81" y="0" type="line"/>
      <point x="138" y="0" type="line"/>
      <point x="145" y="54" type="line"/>
      <point x="89" y="55"/>
      <point x="65" y="66"/>
      <point x="65" y="92" type="curve" smooth="yes"/>
      <point x="65" y="102"/>
      <point x="69" y="113"/>
      <point x="77" y="126" type="curve" smooth="yes"/>
      <point x="168" y="271" type="line"/>
      <point x="339" y="271" type="line"/>
      <point x="305" y="145" type="line" smooth="yes"/>
      <point x="297" y="114"/>
      <point x="292" y="98"/>
      <point x="291" y="94" type="curve" smooth="yes"/>
      <point x="287" y="79"/>
      <point x="284" y="74"/>
      <point x="278" y="68" type="curve" smooth="yes"/>
      <point x="269" y="59"/>
      <point x="248" y="55"/>
      <point x="202" y="54" type="curve" smooth="yes"/>
      <point x="198" y="54" type="line"/>
      <point x="190" y="0" type="line"/>
      <point x="784" y="0" type="line"/>
      <point x="850" y="248" type="line"/>
      <point x="801" y="259" type="line"/>
      <point x="747" y="140"/>
      <point x="631" y="54"/>
      <point x="526" y="54" type="curve" smooth="yes"/>
      <point x="514" y="54" type="line" smooth="yes"/>
      <point x="483" y="54"/>
      <point x="467" y="63"/>
      <point x="467" y="79" type="curve" smooth="yes"/>
      <point x="467" y="88"/>
      <point x="469" y="99"/>
      <point x="472" y="111" type="curve" smooth="yes"/>
      <point x="535" y="347" type="line"/>
      <point x="547" y="347" type="line" smooth="yes"/>
      <point x="560" y="347"/>
      <point x="575" y="342"/>
      <point x="591" y="332" type="curve" smooth="yes"/>
      <point x="616" y="316"/>
      <point x="627" y="292"/>
      <point x="627" y="250" type="curve" smooth="yes"/>
      <point x="627" y="232"/>
      <point x="626" y="218"/>
      <point x="622" y="188" type="curve"/>
      <point x="669" y="181" type="line"/>
      <point x="759" y="516" type="line"/>
      <point x="712" y="523" type="line"/>
      <point x="683" y="442"/>
      <point x="635" y="403"/>
      <point x="559" y="401" type="curve" smooth="yes"/>
      <point x="550" y="401" type="line"/>
      <point x="608" y="620" type="line" smooth="yes"/>
      <point x="619" y="659"/>
      <point x="630" y="668"/>
      <point x="665" y="668" type="curve" smooth="yes"/>
      <point x="676" y="668" type="line" smooth="yes"/>
      <point x="780" y="664"/>
      <point x="817" y="613"/>
      <point x="814" y="477" type="curve"/>
      <point x="863" y="477" type="line"/>
    </contour>
    <contour>
      <point x="353" y="325" type="line"/>
      <point x="205" y="325" type="line"/>
      <point x="421" y="658" type="line" smooth="yes"/>
      <point x="425" y="664"/>
      <point x="429" y="667"/>
      <point x="434" y="667" type="curve" smooth="yes"/>
      <point x="439" y="667"/>
      <point x="443" y="664"/>
      <point x="443" y="661" type="curve" smooth="yes"/>
      <point x="443" y="660"/>
      <point x="443" y="659"/>
      <point x="442" y="657" type="curve"/>
    </contour>
  </outline>
</glyph>
<glyph name="Ccedilla" format="2">
  <advance width="759"/>
  <unicode hex="00C7"/>
  <outline>
    <contour>
      <point x="759" y="712" type="line"/>
      <point x="713" y="712" type="line"/>
      <point x="657" y="655" type="line"/>
      <point x="610" y="711"/>
      <point x="552" y="737"/>
      <point x="472" y="737" type="curve" smooth="yes"/>
      <point x="238" y="737"/>
      <point x="35" y="531"/>
      <point x="35" y="292" type="curve" smooth="yes"/>
      <point x="35" y="122"/>
      <point x="138" y="11"/>
      <point x="317" y="-12" type="curve"/>
      <point x="257" y="-91" type="line"/>
      <point x="274" y="-108" type="line"/>
      <point x="288" y="-105"/>
      <point x="294" y="-104"/>
      <point x="303" y="-104" type="curve" smooth="yes"/>
      <point x="328" y="-104"/>
      <point x="345" y="-119"/>
      <point x="345" y="-139" type="curve" smooth="yes"/>
      <point x="345" y="-162"/>
      <point x="325" y="-177"/>
      <point x="295" y="-177" type="curve" smooth="yes"/>
      <point x="274" y="-177"/>
      <point x="257" y="-172"/>
      <point x="224" y="-158" type="curve"/>
      <point x="202" y="-193" type="line"/>
      <point x="229" y="-212"/>
      <point x="268" y="-222"/>
      <point x="311" y="-222" type="curve" smooth="yes"/>
      <point x="392" y="-222"/>
      <point x="446" y="-187"/>
      <point x="446" y="-134" type="curve" smooth="yes"/>
      <point x="446" y="-91"/>
      <point x="409" y="-59"/>
      <point x="360" y="-59" type="curve" smooth="yes"/>
      <point x="353" y="-59"/>
      <point x="340" y="-60"/>
      <point x="327" y="-62" type="curve"/>
      <point x="361" y="-15" type="line"/>
      <point x="514" y="-17"/>
      <point x="626" y="63"/>
      <point x="679" y="212" type="curve"/>
      <point x="616" y="212" type="line"/>
      <point x="578" y="115"/>
      <point x="488" y="48"/>
      <point x="397" y="48" type="curve" smooth="yes"/>
      <point x="291" y="48"/>
      <point x="225" y="121"/>
      <point x="225" y="238" type="curve" smooth="yes"/>
      <point x="225" y="349"/>
      <point x="261" y="479"/>
      <point x="320" y="576" type="curve" smooth="yes"/>
      <point x="361" y="646"/>
      <point x="421" y="684"/>
      <point x="487" y="684" type="curve" smooth="yes"/>
      <point x="594" y="684"/>
      <point x="647" y="603"/>
      <point x="652" y="432" type="curve"/>
      <point x="701" y="426" type="line"/>
    </contour>
  </outline>
</glyph>
<glyph name="Egrave" format="2">
  <advance width="741"/>
  <unicode hex="00C8"/>
  <outline>
    <component base="E"/>
    <contour>
      <point x="545" y="774" type="line"/>
      <point x="443" y="916" type="line" smooth="yes"/>
      <point x="419" y="949"/>
      <point x="405" y="958"/>
      <point x="378" y="958" type="curve" smooth="yes"/>
      <point x="347" y="958"/>
      <point x="325" y="938"/>
      <point x="325" y="909" type="curve" smooth="yes"/>
      <point x="325" y="891"/>
      <point x="335" y="875"/>
      <point x="354" y="863" type="curve" smooth="yes"/>
      <point x="495" y="774" type="line"/>
    </contour>
  </outline>
</glyph>
<glyph name="Eacute" format="2">
  <advance width="741"/>
  <unicode hex="00C9"/>
  <outline>
    <component base="E"/>
    <contour>
      <point x="390" y="774" type="line"/>
      <point x="444" y="774" type="line"/>
      <point x="610" y="862" type="line" smooth="yes"/>
      <point x="628" y="872"/>
      <point x="638" y="888"/>
      <point x="638" y="906" type="curve" smooth="yes"/>
      <point x="638" y="935"/>
      <point x="614" y="958"/>
      <point x="584" y="958" type="curve" smooth="yes"/>
      <point x="560" y="958"/>
      <point x="548" y="950"/>
      <point x="515" y="913" type="curve" smooth="yes"/>
    </contour>
  </outline>
</glyph>
<glyph name="Ecircumflex" format="2">
  <advance width="741"/>
  <unicode hex="00CA"/>
  <outline>
    <component base="E"/>
    <contour>
      <point x="280" y="774" type="line"/>
      <point x="347" y="774" type="line"/>
      <point x="473" y="862" type="line"/>
      <point x="564" y="774" type="line"/>
      <point x="622" y="774" type="line"/>
      <point x="538" y="950" type="line"/>
      <point x="437" y="950" type="line"/>
    </contour>
  </outline>
</glyph>
<glyph name="Edieresis" format="2">
  <advance width="741"/>
  <unicode hex="00CB"/>
  <outline>
    <component base="E"/>
    <contour>
      <point x="350" y="933" type="curve" smooth="yes"/>
      <point x="310" y="933"/>
      <point x="278" y="901"/>
      <point x="278" y="862" type="curve" smooth="yes"/>
      <point x="278" y="822"/>
      <point x="310" y="790"/>
      <point x="349" y="790" type="curve" smooth="yes"/>
      <point x="389" y="790"/>
      <point x="421" y="821"/>
      <point x="421" y="862" type="curve" smooth="yes"/>
      <point x="421" y="901"/>
      <point x="389" y="933"/>
    </contour>
    <contour>
      <point x="565" y="933" type="curve" smooth="yes"/>
      <point x="525" y="933"/>
      <point x="493" y="901"/>
      <point x="493" y="862" type="curve" smooth="yes"/>
      <point x="493" y="822"/>
      <point x="525" y="790"/>
      <point x="564" y="790" type="curve" smooth="yes"/>
      <point x="604" y="790"/>
      <point x="636" y="821"/>
      <point x="636" y="862" type="curve" smooth="yes"/>
      <point x="636" y="901"/>
      <point x="604" y="933"/>
    </contour>
  </outline>
</glyph>
<glyph name="Igrave" format="2">
  <advance width="444"/>
  <unicode hex="00CC"/>
  <outline>
    <component base="I"/>
    <contour>
      <point x="376" y="774" type="line"/>
      <point x="274" y="916" type="line" smooth="yes"/>
      <point x="250" y="949"/>
      <point x="237" y="958"/>
      <point x="209" y="958" type="curve" smooth="yes"/>
      <point x="178" y="958"/>
      <point x="156" y="938"/>
      <point x="156" y="909" type="curve" smooth="yes"/>
      <point x="156" y="891"/>
      <point x="166" y="875"/>
      <point x="186" y="863" type="curve" smooth="yes"/>
      <point x="327" y="774" type="line"/>
    </contour>
  </outline>
</glyph>
<glyph name="Iacute" format="2">
  <advance width="444"/>
  <unicode hex="00CD"/>
  <outline>
    <component base="I"/>
    <contour>
      <point x="179" y="774" type="line"/>
      <point x="232" y="774" type="line"/>
      <point x="398" y="862" type="line" smooth="yes"/>
      <point x="417" y="872"/>
      <point x="427" y="888"/>
      <point x="427" y="906" type="curve" smooth="yes"/>
      <point x="427" y="935"/>
      <point x="403" y="958"/>
      <point x="373" y="958" type="curve" smooth="yes"/>
      <point x="348" y="958"/>
      <point x="335" y="950"/>
      <point x="303" y="913" type="curve" smooth="yes"/>
    </contour>
  </outline>
</glyph>
<glyph name="Icircumflex" format="2">
  <advance width="444"/>
  <unicode hex="00CE"/>
  <outline>
    <component base="I"/>
    <contour>
      <point x="137" y="774" type="line"/>
      <point x="203" y="774" type="line"/>
      <point x="330" y="862" type="line"/>
      <point x="420" y="774" type="line"/>
      <point x="479" y="774" type="line"/>
      <point x="395" y="950" type="line"/>
      <point x="294" y="950" type="line"/>
    </contour>
  </outline>
</glyph>
<glyph name="Idieresis" format="2">
  <advance width="444"/>
  <unicode hex="00CF"/>
  <outline>
    <component base="I"/>
    <contour>
      <point x="212" y="933" type="curve" smooth="yes"/>
      <point x="172" y="933"/>
      <point x="140" y="901"/>
      <point x="140" y="862" type="curve" smooth="yes"/>
      <point x="140" y="822"/>
      <point x="172" y="790"/>
      <point x="211" y="790" type="curve" smooth="yes"/>
      <point x="251" y="790"/>
      <point x="283" y="821"/>
      <point x="283" y="862" type="curve" smooth="yes"/>
      <point x="283" y="901"/>
      <point x="251" y="933"/>
    </contour>
    <contour>
      <point x="427" y="933" type="curve" smooth="yes"/>
      <point x="387" y="933"/>
      <point x="355" y="901"/>
      <point x="355" y="862" type="curve" smooth="yes"/>
      <point x="355" y="822"/>
      <point x="387" y="790"/>
      <point x="426" y="790" type="curve" smooth="yes"/>
      <point x="466" y="790"/>
      <point x="498" y="821"/>
      <point x="498" y="862" type="curve" smooth="yes"/>
      <point x="498" y="901"/>
      <point x="466" y="933"/>
    </contour>
  </outline>
</glyph>
<glyph name="Ntilde" format="2">
  <advance width="852"/>
  <unicode hex="00D1"/>
  <outline>
    <component base="N"/>
    <contour>
      <point x="663" y="922" type="line"/>
      <point x="656" y="896"/>
      <point x="638" y="882"/>
      <point x="613" y="882" type="curve" smooth="yes"/>
      <point x="598" y="882"/>
      <point x="591" y="884"/>
      <point x="543" y="903" type="curve" smooth="yes"/>
      <point x="510" y="916"/>
      <point x="485" y="922"/>
      <point x="464" y="922" type="curve" smooth="yes"/>
      <point x="398" y="922"/>
      <point x="345" y="869"/>
      <point x="340" y="796" type="curve"/>
      <point x="388" y="796" type="line"/>
      <point x="392" y="823"/>
      <point x="407" y="838"/>
      <point x="429" y="838" type="curve" smooth="yes"/>
      <point x="444" y="838"/>
      <point x="457" y="834"/>
      <point x="502" y="817" type="curve" smooth="yes"/>
      <point x="540" y="802"/>
      <point x="565" y="796"/>
      <point x="587" y="796" type="curve" smooth="yes"/>
      <point x="649" y="796"/>
      <point x="707" y="855"/>
      <point x="710" y="922" type="curve"/>
    </contour>
  </outline>
</glyph>
<glyph name="Ograve" format="2">
  <advance width="833"/>
  <unicode hex="00D2"/>
  <outline>
    <contour>
      <point x="571" y="774" type="line"/>
      <point x="469" y="916" type="line" smooth="yes"/>
      <point x="445" y="949"/>
      <point x="431" y="958"/>
      <point x="404" y="958" type="curve" smooth="yes"/>
      <point x="373" y="958"/>
      <point x="351" y="938"/>
      <point x="351" y="909" type="curve" smooth="yes"/>
      <point x="351" y="891"/>
      <point x="361" y="875"/>
      <point x="380" y="863" type="curve" smooth="yes"/>
      <point x="522" y="774" type="line"/>
    </contour>
    <component base="O"/>
  </outline>
</glyph>
<glyph name="Oacute" format="2">
  <advance width="833"/>
  <unicode hex="00D3"/>
  <outline>
    <contour>
      <point x="433" y="774" type="line"/>
      <point x="487" y="774" type="line"/>
      <point x="653" y="862" type="line" smooth="yes"/>
      <point x="671" y="872"/>
      <point x="681" y="888"/>
      <point x="681" y="906" type="curve" smooth="yes"/>
      <point x="681" y="935"/>
      <point x="657" y="958"/>
      <point x="627" y="958" type="curve" smooth="yes"/>
      <point x="603" y="958"/>
      <point x="590" y="950"/>
      <point x="557" y="913" type="curve" smooth="yes"/>
    </contour>
    <component base="O"/>
  </outline>
</glyph>
<glyph name="Ocircumflex" format="2">
  <advance width="833"/>
  <unicode hex="00D4"/>
  <outline>
    <contour>
      <point x="323" y="774" type="line"/>
      <point x="390" y="774" type="line"/>
      <point x="516" y="862" type="line"/>
      <point x="607" y="774" type="line"/>
      <point x="665" y="774" type="line"/>
      <point x="581" y="950" type="line"/>
      <point x="480" y="950" type="line"/>
    </contour>
    <component base="O"/>
  </outline>
</glyph>
<glyph name="Otilde" format="2">
  <advance width="833"/>
  <unicode hex="00D5"/>
  <outline>
    <contour>
      <point x="654" y="922" type="line"/>
      <point x="646" y="895"/>
      <point x="629" y="882"/>
      <point x="604" y="882" type="curve" smooth="yes"/>
      <point x="589" y="882"/>
      <point x="581" y="884"/>
      <point x="534" y="903" type="curve" smooth="yes"/>
      <point x="501" y="916"/>
      <point x="476" y="922"/>
      <point x="455" y="922" type="curve" smooth="yes"/>
      <point x="388" y="922"/>
      <point x="336" y="869"/>
      <point x="331" y="796" type="curve"/>
      <point x="378" y="796" type="line"/>
      <point x="383" y="823"/>
      <point x="398" y="838"/>
      <point x="419" y="838" type="curve" smooth="yes"/>
      <point x="435" y="838"/>
      <point x="447" y="835"/>
      <point x="492" y="817" type="curve" smooth="yes"/>
      <point x="531" y="802"/>
      <point x="556" y="796"/>
      <point x="578" y="796" type="curve" smooth="yes"/>
      <point x="640" y="796"/>
      <point x="697" y="854"/>
      <point x="701" y="922" type="curve"/>
    </contour>
    <component base="O"/>
  </outline>
</glyph>
<glyph name="Odieresis" format="2">
  <advance width="833"/>
  <unicode hex="00D6"/>
  <outline>
    <contour>
      <point x="406" y="933" type="curve" smooth="yes"/>
      <point x="366" y="933"/>
      <point x="334" y="901"/>
      <point x="334" y="862" type="curve" smooth="yes"/>
      <point x="334" y="822"/>
      <point x="366" y="790"/>
      <point x="405" y="790" type="curve" smooth="yes"/>
      <point x="445" y="790"/>
      <point x="477" y="821"/>
      <point x="477" y="862" type="curve" smooth="yes"/>
      <point x="477" y="901"/>
      <point x="445" y="933"/>
    </contour>
    <contour>
      <point x="621" y="933" type="curve" smooth="yes"/>
      <point x="581" y="933"/>
      <point x="549" y="901"/>
      <point x="549" y="862" type="curve" smooth="yes"/>
      <point x="549" y="822"/>
      <point x="581" y="790"/>
      <point x="620" y="790" type="curve" smooth="yes"/>
      <point x="660" y="790"/>
      <point x="692" y="821"/>
      <point x="692" y="862" type="curve" smooth="yes"/>
      <point x="692" y="901"/>
      <point x="660" y="933"/>
    </contour>
    <component base="O"/>
  </outline>
</glyph>
<glyph name="Oslash" format="2">
  <advance width="833"/>
  <unicode hex="00D8"/>
  <outline>
    <contour>
      <point x="652" y="697" type="line"/>
      <point x="606" y="723"/>
      <point x="549" y="737"/>
      <point x="485" y="737" type="curve" smooth="yes"/>
      <point x="241" y="737"/>
      <point x="36" y="531"/>
      <point x="36" y="286" type="curve" smooth="yes"/>
      <point x="36" y="191"/>
      <point x="69" y="112"/>
      <point x="131" y="57" type="curve"/>
      <point x="17" y="-83" type="line"/>
      <point x="82" y="-83" type="line"/>
      <point x="172" y="27" type="line"/>
      <point x="216" y="0"/>
      <point x="278" y="-15"/>
      <point x="344" y="-15" type="curve" smooth="yes"/>
      <point x="589" y="-15"/>
      <point x="797" y="194"/>
      <point x="797" y="441" type="curve" smooth="yes"/>
      <point x="797" y="530"/>
      <point x="760" y="609"/>
      <point x="692" y="667" type="curve"/>
      <point x="778" y="773" type="line"/>
      <point x="713" y="773" type="line"/>
    </contour>
    <contour>
      <point x="217" y="163" type="line"/>
      <point x="216" y="175"/>
      <point x="215" y="185"/>
      <point x="215" y="197" type="curve" smooth="yes"/>
      <point x="215" y="288"/>
      <point x="251" y="429"/>
      <point x="300" y="528" type="curve" smooth="yes"/>
      <point x="352" y="632"/>
      <point x="413" y="682"/>
      <point x="487" y="682" type="curve" smooth="yes"/>
      <point x="532" y="682"/>
      <point x="569" y="661"/>
      <point x="591" y="623" type="curve"/>
    </contour>
    <contour>
      <point x="610" y="566" type="line"/>
      <point x="612" y="548"/>
      <point x="613" y="532"/>
      <point x="613" y="514" type="curve" smooth="yes"/>
      <point x="613" y="415"/>
      <point x="581" y="289"/>
      <point x="533" y="197" type="curve" smooth="yes"/>
      <point x="477" y="91"/>
      <point x="415" y="40"/>
      <point x="341" y="40" type="curve" smooth="yes"/>
      <point x="293" y="40"/>
      <point x="256" y="62"/>
      <point x="234" y="104" type="curve"/>
    </contour>
  </outline>
</glyph>
<glyph name="Ugrave" format="2">
  <advance width="833"/>
  <unicode hex="00D9"/>
  <outline>
    <component base="U"/>
    <contour>
      <point x="604" y="774" type="line"/>
      <point x="502" y="916" type="line" smooth="yes"/>
      <point x="478" y="949"/>
      <point x="464" y="958"/>
      <point x="437" y="958" type="curve" smooth="yes"/>
      <point x="406" y="958"/>
      <point x="384" y="938"/>
      <point x="384" y="909" type="curve" smooth="yes"/>
      <point x="384" y="891"/>
      <point x="394" y="875"/>
      <point x="414" y="863" type="curve" smooth="yes"/>
      <point x="555" y="774" type="line"/>
    </contour>
  </outline>
</glyph>
<glyph name="Udieresis" format="2">
  <advance width="833"/>
  <unicode hex="00DC"/>
  <outline>
    <component base="U"/>
    <contour>
      <point x="436" y="933" type="curve" smooth="yes"/>
      <point x="396" y="933"/>
      <point x="364" y="901"/>
      <point x="364" y="862" type="curve" smooth="yes"/>
      <point x="364" y="822"/>
      <point x="396" y="790"/>
      <point x="435" y="790" type="curve" smooth="yes"/>
      <point x="475" y="790"/>
      <point x="507" y="821"/>
      <point x="507" y="862" type="curve" smooth="yes"/>
      <point x="507" y="901"/>
      <point x="475" y="933"/>
    </contour>
    <contour>
      <point x="651" y="933" type="curve" smooth="yes"/>
      <point x="611" y="933"/>
      <point x="579" y="901"/>
      <point x="579" y="862" type="curve" smooth="yes"/>
      <point x="579" y="822"/>
      <point x="611" y="790"/>
      <point x="650" y="790" type="curve" smooth="yes"/>
      <point x="690" y="790"/>
      <point x="722" y="821"/>
      <point x="722" y="862" type="curve" smooth="yes"/>
      <point x="722" y="901"/>
      <point x="690" y="933"/>
    </contour>
  </outline>
</glyph>
<glyph name="Yacute" format="2">
  <advance width="704"/>
  <unicode hex="00DD"/>
  <outline>
    <component base="Y"/>
    <contour>
      <point x="369" y="774" type="line"/>
      <point x="422" y="774" type="line"/>
      <point x="588" y="862" type="line" smooth="yes"/>
      <point x="607" y="872"/>
      <point x="617" y="888"/>
      <point x="617" y="906" type="curve" smooth="yes"/>
      <point x="617" y="935"/>
      <point x="593" y="958"/>
      <point x="563" y="958" type="curve" smooth="yes"/>
      <point x="538" y="958"/>
      <point x="525" y="950"/>
      <point x="493" y="913" type="curve" smooth="yes"/>
    </contour>
  </outline>
</glyph>
<glyph name="Thorn" format="2">
  <advance width="741"/>
  <unicode hex="00DE"/>
  <outline>
    <contour>
      <point x="335" y="0" type="line"/>
      <point x="343" y="54" type="line"/>
      <point x="321" y="54" type="line" smooth="yes"/>
      <point x="256" y="54"/>
      <point x="242" y="59"/>
      <point x="242" y="81" type="curve" smooth="yes"/>
      <point x="242" y="90"/>
      <point x="246" y="110"/>
      <point x="256" y="144" type="curve"/>
      <point x="261" y="166" type="line"/>
      <point x="336" y="166" type="line" smooth="yes"/>
      <point x="446" y="166"/>
      <point x="514" y="176"/>
      <point x="567" y="200" type="curve" smooth="yes"/>
      <point x="646" y="235"/>
      <point x="690" y="303"/>
      <point x="690" y="391" type="curve" smooth="yes"/>
      <point x="690" y="454"/>
      <point x="665" y="505"/>
      <point x="619" y="538" type="curve" smooth="yes"/>
      <point x="579" y="567"/>
      <point x="526" y="578"/>
      <point x="433" y="578" type="curve" smooth="yes"/>
      <point x="372" y="578" type="line"/>
      <point x="375" y="589"/>
      <point x="380" y="607"/>
      <point x="385" y="628" type="curve"/>
      <point x="390" y="643"/>
      <point x="393" y="648"/>
      <point x="399" y="654" type="curve"/>
      <point x="408" y="664"/>
      <point x="429" y="667"/>
      <point x="475" y="668" type="curve" smooth="yes"/>
      <point x="482" y="668" type="line"/>
      <point x="489" y="722" type="line"/>
      <point x="116" y="722" type="line"/>
      <point x="108" y="668" type="line"/>
      <point x="130" y="668" type="line" smooth="yes"/>
      <point x="195" y="668"/>
      <point x="209" y="663"/>
      <point x="209" y="641" type="curve" smooth="yes"/>
      <point x="209" y="632"/>
      <point x="205" y="614"/>
      <point x="195" y="578" type="curve" smooth="yes"/>
      <point x="79" y="144" type="line" smooth="yes"/>
      <point x="71" y="114"/>
      <point x="67" y="97"/>
      <point x="66" y="94" type="curve" smooth="yes"/>
      <point x="61" y="79"/>
      <point x="58" y="74"/>
      <point x="52" y="68" type="curve"/>
      <point x="44" y="59"/>
      <point x="22" y="55"/>
      <point x="-24" y="54" type="curve" smooth="yes"/>
      <point x="-31" y="54" type="line"/>
      <point x="-38" y="0" type="line"/>
    </contour>
    <contour>
      <point x="276" y="220" type="line"/>
      <point x="343" y="471" type="line" smooth="yes"/>
      <point x="354" y="514"/>
      <point x="366" y="524"/>
      <point x="407" y="524" type="curve" smooth="yes"/>
      <point x="418" y="524" type="line" smooth="yes"/>
      <point x="475" y="524"/>
      <point x="511" y="483"/>
      <point x="511" y="419" type="curve" smooth="yes"/>
      <point x="511" y="354"/>
      <point x="484" y="286"/>
      <point x="446" y="255" type="curve" smooth="yes"/>
      <point x="418" y="232"/>
      <point x="375" y="220"/>
      <point x="319" y="220" type="curve" smooth="yes"/>
    </contour>
  </outline>
</glyph>
<glyph name="germandbls" format="2">
  <advance width="574"/>
  <unicode hex="00DF"/>
  <outline>
    <contour>
      <point x="46" y="186" type="line" smooth="yes"/>
      <point x="8" y="-2"/>
      <point x="-9" y="-64"/>
      <point x="-66" y="-205" type="curve"/>
      <point x="98" y="-180" type="line"/>
      <point x="129" y="-80"/>
      <point x="172" y="94"/>
      <point x="184" y="169" type="curve" smooth="yes"/>
      <point x="242" y="506" type="line" smooth="yes"/>
      <point x="266" y="640"/>
      <point x="292" y="691"/>
      <point x="339" y="691" type="curve" smooth="yes"/>
      <point x="373" y="691"/>
      <point x="395" y="654"/>
      <point x="395" y="596" type="curve" smooth="yes"/>
      <point x="395" y="539"/>
      <point x="377" y="477"/>
      <point x="354" y="453" type="curve" smooth="yes"/>
      <point x="343" y="442"/>
      <point x="329" y="438"/>
      <point x="300" y="438" type="curve" smooth="yes"/>
      <point x="280" y="438"/>
      <point x="272" y="432"/>
      <point x="272" y="420" type="curve" smooth="yes"/>
      <point x="272" y="410"/>
      <point x="279" y="404"/>
      <point x="297" y="398" type="curve" smooth="yes"/>
      <point x="315" y="392"/>
      <point x="318" y="391"/>
      <point x="325" y="386" type="curve" smooth="yes"/>
      <point x="346" y="372"/>
      <point x="358" y="340"/>
      <point x="358" y="300" type="curve" smooth="yes"/>
      <point x="358" y="248"/>
      <point x="344" y="168"/>
      <point x="324" y="105" type="curve" smooth="yes"/>
      <point x="309" y="58"/>
      <point x="287" y="33"/>
      <point x="259" y="33" type="curve" smooth="yes"/>
      <point x="242" y="33"/>
      <point x="230" y="39"/>
      <point x="214" y="55" type="curve"/>
      <point x="198" y="1" type="line"/>
      <point x="229" y="-10"/>
      <point x="249" y="-14"/>
      <point x="284" y="-14" type="curve" smooth="yes"/>
      <point x="347" y="-14"/>
      <point x="400" y="6"/>
      <point x="438" y="44" type="curve" smooth="yes"/>
      <point x="482" y="87"/>
      <point x="508" y="154"/>
      <point x="508" y="221" type="curve" smooth="yes"/>
      <point x="508" y="289"/>
      <point x="482" y="342"/>
      <point x="433" y="376" type="curve" smooth="yes"/>
      <point x="414" y="389"/>
      <point x="399" y="396"/>
      <point x="365" y="410" type="curve"/>
      <point x="409" y="419"/>
      <point x="430" y="428"/>
      <point x="455" y="446" type="curve" smooth="yes"/>
      <point x="498" y="477"/>
      <point x="523" y="526"/>
      <point x="523" y="579" type="curve" smooth="yes"/>
      <point x="523" y="671"/>
      <point x="450" y="736"/>
      <point x="344" y="736" type="curve" smooth="yes"/>
      <point x="212" y="736"/>
      <point x="138" y="642"/>
      <point x="92" y="415" type="curve" smooth="yes"/>
    </contour>
  </outline>
</glyph>
<glyph name="agrave" format="2">
  <advance width="667"/>
  <unicode hex="00E0"/>
  <outline>
    <component base="a"/>
    <contour>
      <point x="448" y="535" type="line"/>
      <point x="346" y="677" type="line" smooth="yes"/>
      <point x="322" y="710"/>
      <point x="309" y="719"/>
      <point x="281" y="719" type="curve" smooth="yes"/>
      <point x="250" y="719"/>
      <point x="228" y="699"/>
      <point x="228" y="670" type="curve" smooth="yes"/>
      <point x="228" y="652"/>
      <point x="238" y="636"/>
      <point x="258" y="624" type="curve" smooth="yes"/>
      <point x="399" y="535" type="line"/>
    </contour>
  </outline>
</glyph>
<glyph name="aacute" format="2">
  <advance width="667"/>
  <unicode hex="00E1"/>
  <outline>
    <component base="a"/>
    <contour>
      <point x="297" y="535" type="line"/>
      <point x="350" y="535" type="line"/>
      <point x="516" y="623" type="line" smooth="yes"/>
      <point x="535" y="633"/>
      <point x="545" y="648"/>
      <point x="545" y="667" type="curve" smooth="yes"/>
      <point x="545" y="696"/>
      <point x="521" y="719"/>
      <point x="491" y="719" type="curve" smooth="yes"/>
      <point x="467" y="719"/>
      <point x="454" y="711"/>
      <point x="421" y="674" type="curve" smooth="yes"/>
    </contour>
  </outline>
</glyph>
<glyph name="acircumflex" format="2">
  <advance width="667"/>
  <unicode hex="00E2"/>
  <outline>
    <component base="a"/>
    <contour>
      <point x="203" y="535" type="line"/>
      <point x="270" y="535" type="line"/>
      <point x="397" y="621" type="line"/>
      <point x="487" y="535" type="line"/>
      <point x="545" y="535" type="line"/>
      <point x="462" y="709" type="line"/>
      <point x="361" y="709" type="line"/>
    </contour>
  </outline>
</glyph>
<glyph name="atilde" format="2">
  <advance width="667"/>
  <unicode hex="00E3"/>
  <outline>
    <component base="a"/>
    <contour>
      <point x="532" y="683" type="line"/>
      <point x="524" y="656"/>
      <point x="507" y="643"/>
      <point x="482" y="643" type="curve" smooth="yes"/>
      <point x="467" y="643"/>
      <point x="460" y="645"/>
      <point x="412" y="664" type="curve" smooth="yes"/>
      <point x="379" y="677"/>
      <point x="354" y="683"/>
      <point x="333" y="683" type="curve" smooth="yes"/>
      <point x="267" y="683"/>
      <point x="214" y="630"/>
      <point x="209" y="557" type="curve"/>
      <point x="256" y="557" type="line"/>
      <point x="261" y="584"/>
      <point x="276" y="599"/>
      <point x="298" y="599" type="curve" smooth="yes"/>
      <point x="314" y="599"/>
      <point x="326" y="595"/>
      <point x="370" y="578" type="curve" smooth="yes"/>
      <point x="409" y="563"/>
      <point x="434" y="557"/>
      <point x="455" y="557" type="curve" smooth="yes"/>
      <point x="518" y="557"/>
      <point x="576" y="616"/>
      <point x="579" y="683" type="curve"/>
    </contour>
  </outline>
</glyph>
<glyph name="adieresis" format="2">
  <advance width="667"/>
  <unicode hex="00E4"/>
  <outline>
    <component base="a"/>
    <contour>
      <point x="276" y="685" type="curve" smooth="yes"/>
      <point x="236" y="685"/>
      <point x="204" y="653"/>
      <point x="204" y="614" type="curve" smooth="yes"/>
      <point x="204" y="574"/>
      <point x="236" y="542"/>
      <point x="275" y="542" type="curve" smooth="yes"/>
      <point x="315" y="542"/>
      <point x="347" y="573"/>
      <point x="347" y="614" type="curve" smooth="yes"/>
      <point x="347" y="653"/>
      <point x="315" y="685"/>
    </contour>
    <contour>
      <point x="491" y="685" type="curve" smooth="yes"/>
      <point x="451" y="685"/>
      <point x="419" y="653"/>
      <point x="419" y="614" type="curve" smooth="yes"/>
      <point x="419" y="574"/>
      <point x="451" y="542"/>
      <point x="490" y="542" type="curve" smooth="yes"/>
      <point x="530" y="542"/>
      <point x="562" y="573"/>
      <point x="562" y="614" type="curve" smooth="yes"/>
      <point x="562" y="653"/>
      <point x="530" y="685"/>
    </contour>
  </outline>
</glyph>
<glyph name="aring" format="2">
  <advance width="667"/>
  <unicode hex="00E5"/>
  <outline>
    <component base="a"/>
    <contour>
      <point x="392" y="745" type="curve" smooth="yes"/>
      <point x="332" y="745"/>
      <point x="284" y="697"/>
      <point x="284" y="638" type="curve" smooth="yes"/>
      <point x="284" y="579"/>
      <point x="332" y="530"/>
      <point x="390" y="530" type="curve" smooth="yes"/>
      <point x="451" y="530"/>
      <point x="499" y="577"/>
      <point x="499" y="638" type="curve" smooth="yes"/>
      <point x="499" y="697"/>
      <point x="451" y="745"/>
    </contour>
    <contour>
      <point x="392" y="691" type="curve" smooth="yes"/>
      <point x="421" y="691"/>
      <point x="445" y="667"/>
      <point x="445" y="638" type="curve" smooth="yes"/>
      <point x="445" y="608"/>
      <point x="421" y="584"/>
      <point x="391" y="584" type="curve" smooth="yes"/>
      <point x="362" y="584"/>
      <point x="338" y="609"/>
      <point x="338" y="637" type="curve" smooth="yes"/>
      <point x="338" y="667"/>
      <point x="362" y="691"/>
    </contour>
  </outline>
</glyph>
<glyph name="ae" format="2">
  <advance width="815"/>
  <unicode hex="00E6"/>
  <outline>
    <contour>
      <point x="691" y="125" type="line"/>
      <point x="633" y="67"/>
      <point x="591" y="45"/>
      <point x="539" y="45" type="curve" smooth="yes"/>
      <point x="486" y="45"/>
      <point x="453" y="80"/>
      <point x="453" y="136" type="curve" smooth="yes"/>
      <point x="453" y="150"/>
      <point x="453" y="158"/>
      <point x="456" y="181" type="curve"/>
      <point x="514" y="184"/>
      <point x="557" y="191"/>
      <point x="604" y="204" type="curve" smooth="yes"/>
      <point x="719" y="238"/>
      <point x="774" y="287"/>
      <point x="774" y="357" type="curve" smooth="yes"/>
      <point x="774" y="425"/>
      <point x="704" y="478"/>
      <point x="614" y="478" type="curve" smooth="yes"/>
      <point x="545" y="478"/>
      <point x="473" y="452"/>
      <point x="421" y="409" type="curve"/>
      <point x="379" y="458"/>
      <point x="328" y="478"/>
      <point x="241" y="478" type="curve" smooth="yes"/>
      <point x="139" y="478"/>
      <point x="68" y="432"/>
      <point x="68" y="366" type="curve" smooth="yes"/>
      <point x="68" y="322"/>
      <point x="101" y="290"/>
      <point x="147" y="290" type="curve" smooth="yes"/>
      <point x="190" y="290"/>
      <point x="223" y="317"/>
      <point x="223" y="354" type="curve" smooth="yes"/>
      <point x="223" y="369"/>
      <point x="216" y="383"/>
      <point x="201" y="401" type="curve" smooth="yes"/>
      <point x="195" y="408"/>
      <point x="194" y="410"/>
      <point x="194" y="414" type="curve" smooth="yes"/>
      <point x="194" y="424"/>
      <point x="215" y="431"/>
      <point x="245" y="431" type="curve" smooth="yes"/>
      <point x="304" y="431"/>
      <point x="341" y="403"/>
      <point x="341" y="359" type="curve" smooth="yes"/>
      <point x="341" y="333"/>
      <point x="337" y="312"/>
      <point x="324" y="264" type="curve"/>
      <point x="203" y="248"/>
      <point x="184" y="244"/>
      <point x="128" y="227" type="curve" smooth="yes"/>
      <point x="27" y="195"/>
      <point x="-19" y="153"/>
      <point x="-19" y="89" type="curve" smooth="yes"/>
      <point x="-19" y="24"/>
      <point x="32" y="-15"/>
      <point x="118" y="-15" type="curve" smooth="yes"/>
      <point x="209" y="-15"/>
      <point x="277" y="23"/>
      <point x="319" y="98" type="curve"/>
      <point x="340" y="24"/>
      <point x="401" y="-14"/>
      <point x="495" y="-14" type="curve" smooth="yes"/>
      <point x="589" y="-14"/>
      <point x="662" y="19"/>
      <point x="726" y="91" type="curve"/>
    </contour>
    <contour>
      <point x="311" y="214" type="curve"/>
      <point x="297" y="154"/>
      <point x="289" y="133"/>
      <point x="277" y="113" type="curve" smooth="yes"/>
      <point x="253" y="77"/>
      <point x="222" y="56"/>
      <point x="190" y="56" type="curve" smooth="yes"/>
      <point x="160" y="56"/>
      <point x="139" y="78"/>
      <point x="139" y="109" type="curve" smooth="yes"/>
      <point x="139" y="167"/>
      <point x="199" y="203"/>
    </contour>
    <contour>
      <point x="464" y="227" type="curve"/>
      <point x="488" y="349"/>
      <point x="546" y="431"/>
      <point x="609" y="431" type="curve" smooth="yes"/>
      <point x="635" y="431"/>
      <point x="652" y="413"/>
      <point x="652" y="384" type="curve" smooth="yes"/>
      <point x="652" y="349"/>
      <point x="630" y="309"/>
      <point x="596" y="280" type="curve" smooth="yes"/>
      <point x="561" y="250"/>
      <point x="526" y="237"/>
    </contour>
  </outline>
</glyph>
<glyph name="ccedilla" format="2">
  <advance width="537"/>
  <unicode hex="00E7"/>
  <outline>
    <contour>
      <point x="199" y="-14" type="line"/>
      <point x="292" y="-17"/>
      <point x="364" y="21"/>
      <point x="442" y="116" type="curve"/>
      <point x="406" y="146" type="line"/>
      <point x="347" y="78"/>
      <point x="299" y="47"/>
      <point x="250" y="47" type="curve" smooth="yes"/>
      <point x="202" y="47"/>
      <point x="168" y="86"/>
      <point x="168" y="141" type="curve" smooth="yes"/>
      <point x="168" y="203"/>
      <point x="190" y="289"/>
      <point x="220" y="344" type="curve" smooth="yes"/>
      <point x="251" y="402"/>
      <point x="288" y="431"/>
      <point x="331" y="431" type="curve" smooth="yes"/>
      <point x="356" y="431"/>
      <point x="373" y="421"/>
      <point x="373" y="406" type="curve" smooth="yes"/>
      <point x="373" y="399"/>
      <point x="370" y="395"/>
      <point x="361" y="390" type="curve"/>
      <point x="333" y="372"/>
      <point x="323" y="357"/>
      <point x="323" y="328" type="curve" smooth="yes"/>
      <point x="323" y="285"/>
      <point x="355" y="256"/>
      <point x="401" y="256" type="curve" smooth="yes"/>
      <point x="453" y="256"/>
      <point x="487" y="293"/>
      <point x="487" y="349" type="curve" smooth="yes"/>
      <point x="487" y="427"/>
      <point x="420" y="478"/>
      <point x="316" y="478" type="curve" smooth="yes"/>
      <point x="146" y="478"/>
      <point x="3" y="338"/>
      <point x="3" y="171" type="curve" smooth="yes"/>
      <point x="3" y="75"/>
      <point x="59" y="10"/>
      <point x="157" y="-10" type="curve"/>
      <point x="95" y="-89" type="line"/>
      <point x="111" y="-106" type="line"/>
      <point x="126" y="-103"/>
      <point x="133" y="-102"/>
      <point x="140" y="-102" type="curve" smooth="yes"/>
      <point x="166" y="-102"/>
      <point x="183" y="-117"/>
      <point x="183" y="-138" type="curve" smooth="yes"/>
      <point x="183" y="-160"/>
      <point x="163" y="-176"/>
      <point x="134" y="-176" type="curve" smooth="yes"/>
      <point x="112" y="-176"/>
      <point x="94" y="-171"/>
      <point x="62" y="-156" type="curve"/>
      <point x="40" y="-192" type="line"/>
      <point x="67" y="-210"/>
      <point x="105" y="-220"/>
      <point x="149" y="-220" type="curve" smooth="yes"/>
      <point x="230" y="-220"/>
      <point x="284" y="-185"/>
      <point x="284" y="-133" type="curve" smooth="yes"/>
      <point x="284" y="-90"/>
      <point x="247" y="-58"/>
      <point x="198" y="-58" type="curve" smooth="yes"/>
      <point x="190" y="-58"/>
      <point x="178" y="-59"/>
      <point x="164" y="-61" type="curve"/>
    </contour>
  </outline>
</glyph>
<glyph name="egrave" format="2">
  <advance width="519"/>
  <unicode hex="00E8"/>
  <outline>
    <component base="e"/>
    <contour>
      <point x="387" y="535" type="line"/>
      <point x="285" y="677" type="line" smooth="yes"/>
      <point x="261" y="710"/>
      <point x="247" y="719"/>
      <point x="220" y="719" type="curve" smooth="yes"/>
      <point x="189" y="719"/>
      <point x="167" y="699"/>
      <point x="167" y="670" type="curve" smooth="yes"/>
      <point x="167" y="652"/>
      <point x="177" y="636"/>
      <point x="197" y="624" type="curve" smooth="yes"/>
      <point x="338" y="535" type="line"/>
    </contour>
  </outline>
</glyph>
<glyph name="eacute" format="2">
  <advance width="519"/>
  <unicode hex="00E9"/>
  <outline>
    <component base="e"/>
    <contour>
      <point x="230" y="535" type="line"/>
      <point x="284" y="535" type="line"/>
      <point x="449" y="623" type="line" smooth="yes"/>
      <point x="468" y="633"/>
      <point x="478" y="648"/>
      <point x="478" y="667" type="curve" smooth="yes"/>
      <point x="478" y="696"/>
      <point x="454" y="719"/>
      <point x="424" y="719" type="curve" smooth="yes"/>
      <point x="400" y="719"/>
      <point x="388" y="712"/>
      <point x="354" y="674" type="curve" smooth="yes"/>
    </contour>
  </outline>
</glyph>
<glyph name="ecircumflex" format="2">
  <advance width="519"/>
  <unicode hex="00EA"/>
  <outline>
    <component base="e"/>
    <contour>
      <point x="133" y="535" type="line"/>
      <point x="199" y="535" type="line"/>
      <point x="326" y="621" type="line"/>
      <point x="416" y="535" type="line"/>
      <point x="475" y="535" type="line"/>
      <point x="391" y="709" type="line"/>
      <point x="290" y="709" type="line"/>
    </contour>
  </outline>
</glyph>
<glyph name="igrave" format="2">
  <advance width="389"/>
  <unicode hex="00EC"/>
  <outline>
    <component base="dotlessi" xOffset="-10"/>
    <contour>
      <point x="289" y="535" type="line"/>
      <point x="187" y="677" type="line" smooth="yes"/>
      <point x="163" y="710"/>
      <point x="149" y="719"/>
      <point x="122" y="719" type="curve" smooth="yes"/>
      <point x="91" y="719"/>
      <point x="69" y="699"/>
      <point x="69" y="670" type="curve" smooth="yes"/>
      <point x="69" y="652"/>
      <point x="79" y="636"/>
      <point x="98" y="624" type="curve" smooth="yes"/>
      <point x="239" y="535" type="line"/>
    </contour>
  </outline>
</glyph>
<glyph name="iacute" format="2">
  <advance width="389"/>
  <unicode hex="00ED"/>
  <outline>
    <component base="dotlessi" xOffset="-10"/>
    <contour>
      <point x="151" y="535" type="line"/>
      <point x="205" y="535" type="line"/>
      <point x="371" y="623" type="line" smooth="yes"/>
      <point x="389" y="633"/>
      <point x="399" y="648"/>
      <point x="399" y="667" type="curve" smooth="yes"/>
      <point x="399" y="696"/>
      <point x="375" y="719"/>
      <point x="345" y="719" type="curve" smooth="yes"/>
      <point x="321" y="719"/>
      <point x="309" y="711"/>
      <point x="275" y="674" type="curve" smooth="yes"/>
    </contour>
  </outline>
</glyph>
<glyph name="icircumflex" format="2">
  <advance width="389"/>
  <unicode hex="00EE"/>
  <outline>
    <component base="dotlessi" xOffset="-10"/>
    <contour>
      <point x="41" y="535" type="line"/>
      <point x="108" y="535" type="line"/>
      <point x="234" y="621" type="line"/>
      <point x="324" y="535" type="line"/>
      <point x="383" y="535" type="line"/>
      <point x="299" y="709" type="line"/>
      <point x="198" y="709" type="line"/>
    </contour>
  </outline>
</glyph>
<glyph name="idieresis" format="2">
  <advance width="389"/>
  <unicode hex="00EF"/>
  <outline>
    <component base="dotlessi" xOffset="-10"/>
    <contour>
      <point x="124" y="685" type="curve" smooth="yes"/>
      <point x="84" y="685"/>
      <point x="52" y="653"/>
      <point x="52" y="614" type="curve" smooth="yes"/>
      <point x="52" y="574"/>
      <point x="84" y="542"/>
      <point x="123" y="542" type="curve" smooth="yes"/>
      <point x="163" y="542"/>
      <point x="195" y="573"/>
      <point x="195" y="614" type="curve" smooth="yes"/>
      <point x="195" y="653"/>
      <point x="163" y="685"/>
    </contour>
    <contour>
      <point x="339" y="685" type="curve" smooth="yes"/>
      <point x="299" y="685"/>
      <point x="267" y="653"/>
      <point x="267" y="614" type="curve" smooth="yes"/>
      <point x="267" y="574"/>
      <point x="299" y="542"/>
      <point x="338" y="542" type="curve" smooth="yes"/>
      <point x="378" y="542"/>
      <point x="410" y="573"/>
      <point x="410" y="614" type="curve" smooth="yes"/>
      <point x="410" y="653"/>
      <point x="378" y="685"/>
    </contour>
  </outline>
</glyph>
<glyph name="eth" format="2">
  <advance width="574"/>
  <unicode hex="00F0"/>
  <outline>
    <contour>
      <point x="507" y="736" type="line"/>
      <point x="481" y="787" type="line"/>
      <point x="338" y="714" type="line"/>
      <point x="300" y="743"/>
      <point x="270" y="761"/>
      <point x="229" y="779" type="curve"/>
      <point x="195" y="746" type="line"/>
      <point x="236" y="720"/>
      <point x="261" y="699"/>
      <point x="275" y="681" type="curve"/>
      <point x="148" y="617" type="line"/>
      <point x="174" y="566" type="line"/>
      <point x="313" y="637" type="line"/>
      <point x="361" y="568"/>
      <point x="382" y="523"/>
      <point x="392" y="469" type="curve"/>
      <point x="368" y="475"/>
      <point x="346" y="478"/>
      <point x="321" y="478" type="curve" smooth="yes"/>
      <point x="154" y="478"/>
      <point x="10" y="343"/>
      <point x="10" y="187" type="curve" smooth="yes"/>
      <point x="10" y="63"/>
      <point x="91" y="-14"/>
      <point x="220" y="-14" type="curve" smooth="yes"/>
      <point x="317" y="-14"/>
      <point x="409" y="25"/>
      <point x="467" y="91" type="curve" smooth="yes"/>
      <point x="517" y="148"/>
      <point x="540" y="216"/>
      <point x="540" y="309" type="curve" smooth="yes"/>
      <point x="540" y="448"/>
      <point x="501" y="538"/>
      <point x="383" y="672" type="curve"/>
    </contour>
    <contour>
      <point x="320" y="431" type="curve" smooth="yes"/>
      <point x="358" y="431"/>
      <point x="385" y="400"/>
      <point x="385" y="355" type="curve" smooth="yes"/>
      <point x="385" y="301"/>
      <point x="363" y="205"/>
      <point x="335" y="133" type="curve" smooth="yes"/>
      <point x="308" y="63"/>
      <point x="273" y="29"/>
      <point x="229" y="29" type="curve" smooth="yes"/>
      <point x="189" y="29"/>
      <point x="165" y="58"/>
      <point x="165" y="107" type="curve" smooth="yes"/>
      <point x="165" y="168"/>
      <point x="184" y="258"/>
      <point x="210" y="322" type="curve" smooth="yes"/>
      <point x="240" y="394"/>
      <point x="277" y="431"/>
    </contour>
  </outline>
</glyph>
<glyph name="ntilde" format="2">
  <advance width="685"/>
  <unicode hex="00F1"/>
  <outline>
    <component base="n"/>
    <contour>
      <point x="523" y="683" type="line"/>
      <point x="515" y="656"/>
      <point x="498" y="643"/>
      <point x="473" y="643" type="curve" smooth="yes"/>
      <point x="458" y="643"/>
      <point x="451" y="645"/>
      <point x="403" y="664" type="curve" smooth="yes"/>
      <point x="370" y="677"/>
      <point x="345" y="683"/>
      <point x="324" y="683" type="curve" smooth="yes"/>
      <point x="258" y="683"/>
      <point x="205" y="630"/>
      <point x="200" y="557" type="curve"/>
      <point x="247" y="557" type="line"/>
      <point x="252" y="584"/>
      <point x="267" y="599"/>
      <point x="289" y="599" type="curve" smooth="yes"/>
      <point x="304" y="599"/>
      <point x="317" y="595"/>
      <point x="361" y="578" type="curve" smooth="yes"/>
      <point x="400" y="563"/>
      <point x="425" y="557"/>
      <point x="446" y="557" type="curve" smooth="yes"/>
      <point x="509" y="557"/>
      <point x="567" y="616"/>
      <point x="570" y="683" type="curve"/>
    </contour>
  </outline>
</glyph>
<glyph name="ograve" format="2">
  <advance width="574"/>
  <unicode hex="00F2"/>
  <outline>
    <contour>
      <point x="324" y="478" type="curve" smooth="yes"/>
      <point x="154" y="478"/>
      <point x="10" y="344"/>
      <point x="10" y="187" type="curve" smooth="yes"/>
      <point x="10" y="129"/>
      <point x="33" y="71"/>
      <point x="70" y="37" type="curve" smooth="yes"/>
      <point x="105" y="3"/>
      <point x="157" y="-14"/>
      <point x="220" y="-14" type="curve" smooth="yes"/>
      <point x="402" y="-14"/>
      <point x="540" y="115"/>
      <point x="540" y="285" type="curve" smooth="yes"/>
      <point x="540" y="344"/>
      <point x="520" y="393"/>
      <point x="484" y="424" type="curve" smooth="yes"/>
      <point x="445" y="458"/>
      <point x="386" y="478"/>
    </contour>
    <contour>
      <point x="320" y="431" type="curve" smooth="yes"/>
      <point x="359" y="431"/>
      <point x="385" y="400"/>
      <point x="385" y="354" type="curve" smooth="yes"/>
      <point x="385" y="301"/>
      <point x="363" y="203"/>
      <point x="335" y="133" type="curve" smooth="yes"/>
      <point x="308" y="63"/>
      <point x="273" y="29"/>
      <point x="229" y="29" type="curve" smooth="yes"/>
      <point x="188" y="29"/>
      <point x="165" y="58"/>
      <point x="165" y="108" type="curve" smooth="yes"/>
      <point x="165" y="168"/>
      <point x="184" y="258"/>
      <point x="210" y="322" type="curve" smooth="yes"/>
      <point x="240" y="393"/>
      <point x="277" y="431"/>
    </contour>
    <contour>
      <point x="405" y="535" type="line"/>
      <point x="302" y="677" type="line" smooth="yes"/>
      <point x="279" y="710"/>
      <point x="265" y="719"/>
      <point x="238" y="719" type="curve" smooth="yes"/>
      <point x="207" y="719"/>
      <point x="185" y="699"/>
      <point x="185" y="670" type="curve" smooth="yes"/>
      <point x="185" y="652"/>
      <point x="195" y="636"/>
      <point x="214" y="624" type="curve" smooth="yes"/>
      <point x="355" y="535" type="line"/>
    </contour>
  </outline>
</glyph>
<glyph name="oacute" format="2">
  <advance width="574"/>
  <unicode hex="00F3"/>
  <outline>
    <contour>
      <point x="324" y="478" type="curve" smooth="yes"/>
      <point x="154" y="478"/>
      <point x="10" y="344"/>
      <point x="10" y="187" type="curve" smooth="yes"/>
      <point x="10" y="129"/>
      <point x="33" y="71"/>
      <point x="70" y="37" type="curve" smooth="yes"/>
      <point x="105" y="3"/>
      <point x="157" y="-14"/>
      <point x="220" y="-14" type="curve" smooth="yes"/>
      <point x="402" y="-14"/>
      <point x="540" y="115"/>
      <point x="540" y="285" type="curve" smooth="yes"/>
      <point x="540" y="344"/>
      <point x="520" y="393"/>
      <point x="484" y="424" type="curve" smooth="yes"/>
      <point x="445" y="458"/>
      <point x="386" y="478"/>
    </contour>
    <contour>
      <point x="320" y="431" type="curve" smooth="yes"/>
      <point x="359" y="431"/>
      <point x="385" y="400"/>
      <point x="385" y="354" type="curve" smooth="yes"/>
      <point x="385" y="301"/>
      <point x="363" y="203"/>
      <point x="335" y="133" type="curve" smooth="yes"/>
      <point x="308" y="63"/>
      <point x="273" y="29"/>
      <point x="229" y="29" type="curve" smooth="yes"/>
      <point x="188" y="29"/>
      <point x="165" y="58"/>
      <point x="165" y="108" type="curve" smooth="yes"/>
      <point x="165" y="168"/>
      <point x="184" y="258"/>
      <point x="210" y="322" type="curve" smooth="yes"/>
      <point x="240" y="393"/>
      <point x="277" y="431"/>
    </contour>
    <contour>
      <point x="274" y="535" type="line"/>
      <point x="327" y="535" type="line"/>
      <point x="493" y="623" type="line" smooth="yes"/>
      <point x="512" y="633"/>
      <point x="522" y="648"/>
      <point x="522" y="667" type="curve" smooth="yes"/>
      <point x="522" y="696"/>
      <point x="498" y="719"/>
      <point x="468" y="719" type="curve" smooth="yes"/>
      <point x="443" y="719"/>
      <point x="431" y="711"/>
      <point x="398" y="674" type="curve" smooth="yes"/>
    </contour>
  </outline>
</glyph>
<glyph name="ocircumflex" format="2">
  <advance width="574"/>
  <unicode hex="00F4"/>
  <outline>
    <component base="o"/>
    <contour>
      <point x="171" y="535" type="line"/>
      <point x="238" y="535" type="line"/>
      <point x="364" y="621" type="line"/>
      <point x="454" y="535" type="line"/>
      <point x="513" y="535" type="line"/>
      <point x="429" y="709" type="line"/>
      <point x="328" y="709" type="line"/>
    </contour>
  </outline>
</glyph>
<glyph name="otilde" format="2">
  <advance width="574"/>
  <unicode hex="00F5"/>
  <outline>
    <contour>
      <point x="324" y="478" type="curve" smooth="yes"/>
      <point x="154" y="478"/>
      <point x="10" y="344"/>
      <point x="10" y="187" type="curve" smooth="yes"/>
      <point x="10" y="129"/>
      <point x="33" y="71"/>
      <point x="70" y="37" type="curve" smooth="yes"/>
      <point x="105" y="3"/>
      <point x="157" y="-14"/>
      <point x="220" y="-14" type="curve" smooth="yes"/>
      <point x="402" y="-14"/>
      <point x="540" y="115"/>
      <point x="540" y="285" type="curve" smooth="yes"/>
      <point x="540" y="344"/>
      <point x="520" y="393"/>
      <point x="484" y="424" type="curve" smooth="yes"/>
      <point x="445" y="458"/>
      <point x="386" y="478"/>
    </contour>
    <contour>
      <point x="320" y="431" type="curve" smooth="yes"/>
      <point x="359" y="431"/>
      <point x="385" y="400"/>
      <point x="385" y="354" type="curve" smooth="yes"/>
      <point x="385" y="301"/>
      <point x="363" y="203"/>
      <point x="335" y="133" type="curve" smooth="yes"/>
      <point x="308" y="63"/>
      <point x="273" y="29"/>
      <point x="229" y="29" type="curve" smooth="yes"/>
      <point x="188" y="29"/>
      <point x="165" y="58"/>
      <point x="165" y="108" type="curve" smooth="yes"/>
      <point x="165" y="168"/>
      <point x="184" y="258"/>
      <point x="210" y="322" type="curve" smooth="yes"/>
      <point x="240" y="393"/>
      <point x="277" y="431"/>
    </contour>
    <contour>
      <point x="491" y="683" type="line"/>
      <point x="483" y="656"/>
      <point x="466" y="643"/>
      <point x="441" y="643" type="curve" smooth="yes"/>
      <point x="426" y="643"/>
      <point x="418" y="645"/>
      <point x="371" y="664" type="curve" smooth="yes"/>
      <point x="338" y="677"/>
      <point x="313" y="683"/>
      <point x="292" y="683" type="curve" smooth="yes"/>
      <point x="226" y="683"/>
      <point x="173" y="630"/>
      <point x="168" y="557" type="curve"/>
      <point x="215" y="557" type="line"/>
      <point x="220" y="584"/>
      <point x="235" y="599"/>
      <point x="257" y="599" type="curve" smooth="yes"/>
      <point x="272" y="599"/>
      <point x="285" y="595"/>
      <point x="329" y="578" type="curve" smooth="yes"/>
      <point x="367" y="563"/>
      <point x="393" y="557"/>
      <point x="414" y="557" type="curve" smooth="yes"/>
      <point x="477" y="557"/>
      <point x="535" y="616"/>
      <point x="538" y="683" type="curve"/>
    </contour>
  </outline>
</glyph>
<glyph name="odieresis" format="2">
  <advance width="574"/>
  <unicode hex="00F6"/>
  <outline>
    <contour>
      <point x="324" y="478" type="curve" smooth="yes"/>
      <point x="154" y="478"/>
      <point x="10" y="344"/>
      <point x="10" y="187" type="curve" smooth="yes"/>
      <point x="10" y="129"/>
      <point x="33" y="71"/>
      <point x="70" y="37" type="curve" smooth="yes"/>
      <point x="105" y="3"/>
      <point x="157" y="-14"/>
      <point x="220" y="-14" type="curve" smooth="yes"/>
      <point x="402" y="-14"/>
      <point x="540" y="115"/>
      <point x="540" y="285" type="curve" smooth="yes"/>
      <point x="540" y="344"/>
      <point x="520" y="393"/>
      <point x="484" y="424" type="curve" smooth="yes"/>
      <point x="445" y="458"/>
      <point x="386" y="478"/>
    </contour>
    <contour>
      <point x="320" y="431" type="curve" smooth="yes"/>
      <point x="359" y="431"/>
      <point x="385" y="400"/>
      <point x="385" y="354" type="curve" smooth="yes"/>
      <point x="385" y="301"/>
      <point x="363" y="203"/>
      <point x="335" y="133" type="curve" smooth="yes"/>
      <point x="308" y="63"/>
      <point x="273" y="29"/>
      <point x="229" y="29" type="curve" smooth="yes"/>
      <point x="188" y="29"/>
      <point x="165" y="58"/>
      <point x="165" y="108" type="curve" smooth="yes"/>
      <point x="165" y="168"/>
      <point x="184" y="258"/>
      <point x="210" y="322" type="curve" smooth="yes"/>
      <point x="240" y="393"/>
      <point x="277" y="431"/>
    </contour>
    <contour>
      <point x="243" y="685" type="curve" smooth="yes"/>
      <point x="203" y="685"/>
      <point x="171" y="653"/>
      <point x="171" y="614" type="curve" smooth="yes"/>
      <point x="171" y="574"/>
      <point x="203" y="542"/>
      <point x="242" y="542" type="curve" smooth="yes"/>
      <point x="282" y="542"/>
      <point x="314" y="573"/>
      <point x="314" y="614" type="curve" smooth="yes"/>
      <point x="314" y="653"/>
      <point x="282" y="685"/>
    </contour>
    <contour>
      <point x="458" y="685" type="curve" smooth="yes"/>
      <point x="418" y="685"/>
      <point x="386" y="653"/>
      <point x="386" y="614" type="curve" smooth="yes"/>
      <point x="386" y="574"/>
      <point x="418" y="542"/>
      <point x="457" y="542" type="curve" smooth="yes"/>
      <point x="497" y="542"/>
      <point x="529" y="573"/>
      <point x="529" y="614" type="curve" smooth="yes"/>
      <point x="529" y="653"/>
      <point x="497" y="685"/>
    </contour>
  </outline>
</glyph>
<glyph name="ugrave" format="2">
  <advance width="685"/>
  <unicode hex="00F9"/>
  <outline>
    <component base="u"/>
    <contour>
      <point x="450" y="535" type="line"/>
      <point x="348" y="677" type="line" smooth="yes"/>
      <point x="324" y="710"/>
      <point x="310" y="719"/>
      <point x="283" y="719" type="curve" smooth="yes"/>
      <point x="252" y="719"/>
      <point x="230" y="699"/>
      <point x="230" y="670" type="curve" smooth="yes"/>
      <point x="230" y="652"/>
      <point x="240" y="636"/>
      <point x="260" y="624" type="curve" smooth="yes"/>
      <point x="401" y="535" type="line"/>
    </contour>
  </outline>
</glyph>
<glyph name="uacute" format="2">
  <advance width="685"/>
  <unicode hex="00FA"/>
  <outline>
    <component base="u"/>
    <contour>
      <point x="306" y="535" type="line"/>
      <point x="359" y="535" type="line"/>
      <point x="525" y="623" type="line" smooth="yes"/>
      <point x="544" y="633"/>
      <point x="554" y="648"/>
      <point x="554" y="667" type="curve" smooth="yes"/>
      <point x="554" y="696"/>
      <point x="530" y="719"/>
      <point x="500" y="719" type="curve" smooth="yes"/>
      <point x="476" y="719"/>
      <point x="463" y="711"/>
      <point x="430" y="674" type="curve" smooth="yes"/>
    </contour>
  </outline>
</glyph>
<glyph name="ucircumflex" format="2">
  <advance width="685"/>
  <unicode hex="00FB"/>
  <outline>
    <component base="u"/>
    <contour>
      <point x="199" y="535" type="line"/>
      <point x="266" y="535" type="line"/>
      <point x="392" y="621" type="line"/>
      <point x="482" y="535" type="line"/>
      <point x="541" y="535" type="line"/>
      <point x="457" y="709" type="line"/>
      <point x="356" y="709" type="line"/>
    </contour>
  </outline>
</glyph>
<glyph name="udieresis" format="2">
  <advance width="685"/>
  <unicode hex="00FC"/>
  <outline>
    <component base="u"/>
    <contour>
      <point x="282" y="685" type="curve" smooth="yes"/>
      <point x="242" y="685"/>
      <point x="210" y="653"/>
      <point x="210" y="614" type="curve" smooth="yes"/>
      <point x="210" y="574"/>
      <point x="242" y="542"/>
      <point x="281" y="542" type="curve" smooth="yes"/>
      <point x="321" y="542"/>
      <point x="353" y="573"/>
      <point x="353" y="614" type="curve" smooth="yes"/>
      <point x="353" y="653"/>
      <point x="321" y="685"/>
    </contour>
    <contour>
      <point x="497" y="685" type="curve" smooth="yes"/>
      <point x="457" y="685"/>
      <point x="425" y="653"/>
      <point x="425" y="614" type="curve" smooth="yes"/>
      <point x="425" y="574"/>
      <point x="457" y="542"/>
      <point x="496" y="542" type="curve" smooth="yes"/>
      <point x="536" y="542"/>
      <point x="568" y="573"/>
      <point x="568" y="614" type="curve" smooth="yes"/>
      <point x="568" y="653"/>
      <point x="536" y="685"/>
    </contour>
  </outline>
</glyph>
<glyph name="thorn" format="2">
  <advance width="648"/>
  <unicode hex="00FE"/>
  <outline>
    <contour>
      <point x="380" y="737" type="line"/>
      <point x="113" y="723" type="line"/>
      <point x="106" y="676" type="line"/>
      <point x="130" y="676" type="line" smooth="yes"/>
      <point x="180" y="676"/>
      <point x="192" y="670"/>
      <point x="192" y="645" type="curve" smooth="yes"/>
      <point x="192" y="634"/>
      <point x="189" y="623"/>
      <point x="177" y="580" type="curve" smooth="yes"/>
      <point x="-15" y="-65" type="line"/>
      <point x="-22" y="-90" type="line" smooth="yes"/>
      <point x="-26" y="-104"/>
      <point x="-29" y="-112"/>
      <point x="-30" y="-115" type="curve" smooth="yes"/>
      <point x="-35" y="-130"/>
      <point x="-37" y="-135"/>
      <point x="-44" y="-141" type="curve"/>
      <point x="-51" y="-149"/>
      <point x="-67" y="-153"/>
      <point x="-107" y="-155" type="curve" smooth="yes"/>
      <point x="-111" y="-155" type="line"/>
      <point x="-118" y="-202" type="line"/>
      <point x="192" y="-202" type="line"/>
      <point x="199" y="-155" type="line"/>
      <point x="184" y="-155" type="line" smooth="yes"/>
      <point x="144" y="-155"/>
      <point x="127" y="-148"/>
      <point x="127" y="-129" type="curve" smooth="yes"/>
      <point x="127" y="-120"/>
      <point x="130" y="-108"/>
      <point x="143" y="-65" type="curve" smooth="yes"/>
      <point x="177" y="50" type="line"/>
      <point x="205" y="5"/>
      <point x="243" y="-14"/>
      <point x="303" y="-14" type="curve" smooth="yes"/>
      <point x="453" y="-14"/>
      <point x="590" y="134"/>
      <point x="590" y="298" type="curve" smooth="yes"/>
      <point x="590" y="406"/>
      <point x="522" y="478"/>
      <point x="418" y="478" type="curve" smooth="yes"/>
      <point x="370" y="478"/>
      <point x="335" y="464"/>
      <point x="289" y="427" type="curve"/>
    </contour>
    <contour>
      <point x="366" y="408" type="curve" smooth="yes"/>
      <point x="405" y="408"/>
      <point x="430" y="379"/>
      <point x="430" y="335" type="curve" smooth="yes"/>
      <point x="430" y="279"/>
      <point x="405" y="187"/>
      <point x="372" y="122" type="curve" smooth="yes"/>
      <point x="344" y="69"/>
      <point x="313" y="44"/>
      <point x="275" y="44" type="curve" smooth="yes"/>
      <point x="236" y="44"/>
      <point x="206" y="76"/>
      <point x="206" y="118" type="curve" smooth="yes"/>
      <point x="206" y="170"/>
      <point x="238" y="280"/>
      <point x="270" y="334" type="curve" smooth="yes"/>
      <point x="299" y="385"/>
      <point x="328" y="408"/>
    </contour>
  </outline>
</glyph>
<glyph name="ydieresis" format="2">
  <advance width="519"/>
  <unicode hex="00FF"/>
  <outline>
    <component base="y"/>
    <contour>
      <point x="199" y="685" type="curve" smooth="yes"/>
      <point x="159" y="685"/>
      <point x="127" y="653"/>
      <point x="127" y="614" type="curve" smooth="yes"/>
      <point x="127" y="574"/>
      <point x="159" y="542"/>
      <point x="198" y="542" type="curve" smooth="yes"/>
      <point x="238" y="542"/>
      <point x="270" y="573"/>
      <point x="270" y="614" type="curve" smooth="yes"/>
      <point x="270" y="653"/>
      <point x="238" y="685"/>
    </contour>
    <contour>
      <point x="414" y="685" type="curve" smooth="yes"/>
      <point x="374" y="685"/>
      <point x="342" y="653"/>
      <point x="342" y="614" type="curve" smooth="yes"/>
      <point x="342" y="574"/>
      <point x="374" y="542"/>
      <point x="413" y="542" type="curve" smooth="yes"/>
      <point x="453" y="542"/>
      <point x="485" y="573"/>
      <point x="485" y="614" type="curve" smooth="yes"/>
      <point x="485" y="653"/>
      <point x="453" y="685"/>
    </contour>
  </outline>
</glyph>
<glyph name="amacron" format="2">
  <advance width="667"/>
  <unicode hex="0101"/>
  <outline>
    <component base="a"/>
    <contour>
      <point x="220" y="642" type="line"/>
      <point x="199" y="566" type="line"/>
      <point x="533" y="566" type="line"/>
      <point x="554" y="642" type="line"/>
    </contour>
  </outline>
</glyph>
<glyph name="Abreve" format="2">
  <advance width="741"/>
  <unicode hex="0102"/>
  <outline>
    <component base="A"/>
    <contour>
      <point x="312" y="941" type="line"/>
      <point x="310" y="929"/>
      <point x="310" y="923"/>
      <point x="310" y="915" type="curve" smooth="yes"/>
      <point x="310" y="825"/>
      <point x="359" y="777"/>
      <point x="450" y="777" type="curve" smooth="yes"/>
      <point x="511" y="777"/>
      <point x="557" y="797"/>
      <point x="591" y="839" type="curve" smooth="yes"/>
      <point x="616" y="869"/>
      <point x="631" y="904"/>
      <point x="634" y="941" type="curve"/>
      <point x="588" y="941" type="line"/>
      <point x="575" y="891"/>
      <point x="523" y="856"/>
      <point x="461" y="856" type="curve" smooth="yes"/>
      <point x="396" y="856"/>
      <point x="366" y="882"/>
      <point x="361" y="941" type="curve"/>
    </contour>
  </outline>
</glyph>
<glyph name="abreve" format="2">
  <advance width="667"/>
  <unicode hex="0103"/>
  <outline>
    <component base="a"/>
    <contour>
      <point x="236" y="701" type="line"/>
      <point x="235" y="689"/>
      <point x="234" y="678"/>
      <point x="234" y="672" type="curve" smooth="yes"/>
      <point x="234" y="586"/>
      <point x="284" y="537"/>
      <point x="373" y="537" type="curve" smooth="yes"/>
      <point x="434" y="537"/>
      <point x="480" y="557"/>
      <point x="515" y="599" type="curve" smooth="yes"/>
      <point x="540" y="630"/>
      <point x="554" y="664"/>
      <point x="557" y="701" type="curve"/>
      <point x="510" y="701" type="line"/>
      <point x="496" y="650"/>
      <point x="446" y="616"/>
      <point x="382" y="616" type="curve" smooth="yes"/>
      <point x="317" y="616"/>
      <point x="287" y="641"/>
      <point x="282" y="701" type="curve"/>
    </contour>
  </outline>
</glyph>
<glyph name="aogonek" format="2">
  <advance width="667"/>
  <unicode hex="0105"/>
  <outline>
    <contour>
      <point x="607" y="181" type="line"/>
      <point x="570" y="124"/>
      <point x="520" y="70"/>
      <point x="503" y="70" type="curve" smooth="yes"/>
      <point x="496" y="70"/>
      <point x="489" y="78"/>
      <point x="489" y="86" type="curve" smooth="yes"/>
      <point x="489" y="93"/>
      <point x="489" y="94"/>
      <point x="499" y="131" type="curve" smooth="yes"/>
      <point x="597" y="463" type="line"/>
      <point x="440" y="463" type="line"/>
      <point x="426" y="416" type="line"/>
      <point x="402" y="457"/>
      <point x="360" y="477"/>
      <point x="301" y="477" type="curve" smooth="yes"/>
      <point x="153" y="477"/>
      <point x="15" y="327"/>
      <point x="15" y="166" type="curve" smooth="yes"/>
      <point x="15" y="60"/>
      <point x="87" y="-14"/>
      <point x="188" y="-14" type="curve" smooth="yes"/>
      <point x="257" y="-14"/>
      <point x="304" y="11"/>
      <point x="351" y="73" type="curve"/>
      <point x="351" y="51"/>
      <point x="351" y="49"/>
      <point x="354" y="41" type="curve"/>
      <point x="363" y="8"/>
      <point x="396" y="-14"/>
      <point x="437" y="-14" type="curve" smooth="yes"/>
      <point x="447" y="-14"/>
      <point x="453" y="-13"/>
      <point x="467" y="-11" type="curve"/>
      <point x="444" y="-37"/>
      <point x="435" y="-60"/>
      <point x="435" y="-91" type="curve" smooth="yes"/>
      <point x="435" y="-139"/>
      <point x="467" y="-173"/>
      <point x="512" y="-173" type="curve" smooth="yes"/>
      <point x="549" y="-173"/>
      <point x="582" y="-151"/>
      <point x="612" y="-106" type="curve"/>
      <point x="594" y="-75" type="line"/>
      <point x="573" y="-93"/>
      <point x="559" y="-99"/>
      <point x="544" y="-99" type="curve" smooth="yes"/>
      <point x="527" y="-99"/>
      <point x="514" y="-84"/>
      <point x="514" y="-64" type="curve" smooth="yes"/>
      <point x="514" y="-37"/>
      <point x="514" y="-37"/>
      <point x="592" y="78" type="curve" smooth="yes"/>
      <point x="608" y="101"/>
      <point x="624" y="124"/>
      <point x="640" y="146" type="curve"/>
      <point x="640" y="147"/>
      <point x="643" y="151"/>
      <point x="646" y="157" type="curve"/>
    </contour>
    <contour>
      <point x="334" y="422" type="curve" smooth="yes"/>
      <point x="370" y="422"/>
      <point x="395" y="393"/>
      <point x="395" y="350" type="curve" smooth="yes"/>
      <point x="395" y="299"/>
      <point x="373" y="217"/>
      <point x="343" y="153" type="curve" smooth="yes"/>
      <point x="314" y="89"/>
      <point x="278" y="56"/>
      <point x="239" y="56" type="curve" smooth="yes"/>
      <point x="201" y="56"/>
      <point x="178" y="86"/>
      <point x="178" y="135" type="curve" smooth="yes"/>
      <point x="178" y="188"/>
      <point x="198" y="267"/>
      <point x="227" y="327" type="curve" smooth="yes"/>
      <point x="258" y="391"/>
      <point x="292" y="422"/>
    </contour>
  </outline>
</glyph>
